<svg xmlns="http://www.w3.org/2000/svg" viewBox="0 0 391.24 394.24">
  <defs>
    <style>
      .cls-1 {
        fill: #f15a24;
      }

      .cls-2 {
        fill: #00a99d;
      }

      .cls-3 {
        fill: #fbb03b;
      }

      .cls-4 {
        fill: #d4145a;
      }

      .cls-5 {
        fill: #2e3192;
      }

      .cls-13, .cls-14, .cls-6, .cls-7, .cls-8, .cls-9 {
        fill: none;
      }

      .cls-11, .cls-12, .cls-13, .cls-6, .cls-7, .cls-8, .cls-9 {
        stroke: #fff;
      }

      .cls-11, .cls-12, .cls-13, .cls-14, .cls-6, .cls-7, .cls-8, .cls-9 {
        stroke-miterlimit: 10;
      }

      .cls-12, .cls-7 {
        stroke-width: 0.25px;
      }

      .cls-8 {
        stroke-width: 0.5px;
      }

      .cls-9 {
        stroke-width: 3px;
      }

      .cls-10, .cls-11, .cls-12, .cls-15, .cls-24 {
        fill: #fff;
      }

      .cls-13 {
        stroke-width: 2px;
      }

      .cls-14 {
        stroke: #000;
      }

      .cls-15 {
        font-size: 16px;
        font-family: Ubuntu, Ubuntu;
      }

      .cls-16 {
        letter-spacing: -0.01em;
      }

      .cls-17 {
        letter-spacing: 0em;
      }

      .cls-18 {
        letter-spacing: 0.02em;
      }

      .cls-19 {
        letter-spacing: 0.01em;
      }

      .cls-20 {
        letter-spacing: -0.01em;
      }

      .cls-21 {
        letter-spacing: -0.02em;
      }

      .cls-22 {
        letter-spacing: -0.01em;
      }

      .cls-23 {
        letter-spacing: 0em;
      }

      .cls-24 {
        font-size: 40px;
        font-family: Ubuntu-Bold, Ubuntu;
        font-weight: 700;
      }
    </style>
  </defs>
  <title>cms</title>
  <g id="Layer_2" data-name="Layer 2">
    <g id="Layer_2-2" data-name="Layer 2">
      <circle class="cls-1" cx="197.12" cy="197.12" r="56.77"/>
      <circle class="cls-2" cx="303.19" cy="303.19" r="47.12"/>
      <circle class="cls-3" cx="197.12" cy="347.12" r="47.12"/>
      <circle class="cls-4" cx="90.1" cy="302.89" r="47.12"/>
      <circle class="cls-2" cx="47.12" cy="197.12" r="47.12"/>
      <circle class="cls-5" cx="91.05" cy="91.05" r="47.12"/>
      <circle class="cls-3" cx="197.12" cy="47.12" r="47.12"/>
      <circle class="cls-4" cx="302.59" cy="91.05" r="47.12"/>
      <circle class="cls-5" cx="344.12" cy="197.12" r="47.12"/>
      <polygon class="cls-1" points="132.87 191.59 132.87 205.63 110.86 205.63 110.86 210.73 109.61 209.48 98.58 198.46 110.31 186.74 110.86 186.19 110.86 191.59 132.87 191.59"/>
      <polygon class="cls-1" points="260.12 191.59 260.12 205.63 282.13 205.63 282.13 210.73 283.38 209.48 294.41 198.46 282.68 186.74 282.13 186.19 282.13 191.59 260.12 191.59"/>
      <polygon class="cls-1" points="155.53 149.29 145.77 159.38 129.95 144.09 126.4 147.75 126.37 145.99 126.1 130.39 142.68 130.12 143.46 130.11 139.71 133.99 155.53 149.29"/>
      <polygon class="cls-1" points="247.01 237.75 237.25 247.84 253.07 263.13 249.53 266.8 251.29 266.77 266.89 266.52 266.6 249.94 266.59 249.16 262.83 253.04 247.01 237.75"/>
      <polygon class="cls-1" points="203.81 134.88 189.77 134.78 189.92 112.78 184.82 112.74 186.08 111.5 197.18 100.54 208.81 112.36 209.36 112.91 203.96 112.87 203.81 134.88"/>
      <polygon class="cls-1" points="202.92 262.13 188.88 262.03 188.73 284.04 183.63 284 184.87 285.26 195.81 296.37 207.61 284.72 208.17 284.17 202.76 284.14 202.92 262.13"/>
      <polygon class="cls-1" points="246.91 159.04 237.13 148.98 252.92 133.64 249.36 129.98 251.13 130.01 266.72 130.22 266.47 146.8 266.46 147.58 262.7 143.71 246.91 159.04"/>
      <polygon class="cls-1" points="155.65 247.72 145.87 237.65 130.08 252.99 126.53 249.33 126.5 251.1 126.27 266.69 142.85 266.92 143.63 266.93 139.86 263.06 155.65 247.72"/>
      <path class="cls-6" d="M103.57,73.36a12.58,12.58,0,1,1-5.46-5.42"/>
      <path class="cls-7" d="M91.55,80.33h0c-.58-.52,1.24-3.4,1.76-4l.89-1a1.42,1.42,0,0,1,2-.1h0a1.42,1.42,0,0,1,.1,2l-.89,1C94.89,78.83,92.13,80.85,91.55,80.33Z"/>
      <rect class="cls-8" x="93.72" y="67.83" width="16.91" height="3.21" rx="1.6" ry="1.6" transform="translate(-19.17 92.59) rotate(-45)"/>
      <path class="cls-9" d="M185.76,29.59a11.39,11.39,0,0,1,10.09-10.47"/>
      <path class="cls-9" d="M208.45,29.17a11.39,11.39,0,0,0-10.13-10.06"/>
      <path class="cls-9" d="M208.47,31.47A11.39,11.39,0,0,1,198.4,41.76"/>
      <path class="cls-9" d="M185.81,31.72A11.39,11.39,0,0,0,195.9,41.77"/>
      <line class="cls-9" x1="194.03" y1="30.34" x2="200.44" y2="30.34"/>
      <line class="cls-9" x1="197.23" y1="33.86" x2="197.23" y2="27.17"/>
      <path class="cls-10" d="M312.19,59.77s.24.37.58,1c.17.32.38.72.58,1.17l.33.72a.56.56,0,0,1,0,.39,2.32,2.32,0,0,0,0,.41V79.73a2.84,2.84,0,0,0,0,.41.5.5,0,0,1,0,.39l-.33.72c-.2.45-.41.84-.57,1.17-.34.65-.57,1-.57,1s-.23-.37-.57-1c-.17-.32-.37-.72-.57-1.17l-.33-.72a.5.5,0,0,1,0-.39,2.84,2.84,0,0,0,0-.41V63.46a2.32,2.32,0,0,0,0-.41.56.56,0,0,1,0-.39l.33-.72c.2-.45.41-.84.58-1.17C311.95,60.14,312.19,59.77,312.19,59.77Z"/>
      <path class="cls-10" d="M294.19,59.77s.24.37.58,1c.17.32.38.72.58,1.17l.33.72a.56.56,0,0,1,0,.39,2.32,2.32,0,0,0,0,.41V79.73a2.84,2.84,0,0,0,0,.41.5.5,0,0,1,0,.39l-.33.72c-.2.45-.41.84-.57,1.17-.34.65-.57,1-.57,1s-.23-.37-.57-1c-.17-.32-.37-.72-.57-1.17l-.33-.72a.5.5,0,0,1,0-.39,2.84,2.84,0,0,0,0-.41V63.46a2.32,2.32,0,0,0,0-.41.56.56,0,0,1,0-.39l.33-.72c.2-.45.41-.84.58-1.17C293.95,60.14,294.19,59.77,294.19,59.77Z"/>
      <path class="cls-10" d="M303.19,59.77s.24.37.58,1c.17.32.38.72.58,1.17l.33.72a.56.56,0,0,1,0,.39,2.32,2.32,0,0,0,0,.41V79.73a2.84,2.84,0,0,0,0,.41.5.5,0,0,1,0,.39l-.33.72c-.2.45-.41.84-.57,1.17-.34.65-.57,1-.57,1s-.23-.37-.57-1c-.17-.32-.37-.72-.57-1.17l-.33-.72a.5.5,0,0,1,0-.39,2.84,2.84,0,0,0,0-.41V63.46a2.32,2.32,0,0,0,0-.41.56.56,0,0,1,0-.39l.33-.72c.2-.45.41-.84.58-1.17C302.95,60.14,303.19,59.77,303.19,59.77Z"/>
      <circle class="cls-11" cx="294.19" cy="66.68" r="3.17"/>
      <circle class="cls-11" cx="303.19" cy="76.66" r="3.17"/>
      <circle class="cls-11" cx="312.19" cy="70.33" r="3.17"/>
      <path class="cls-12" d="M62.79,174.54v0l-10.4,8.37v-4.46c-11.57,0-20.93,7.36-20.93,16.46,0-13.64,9.35-24.68,20.91-24.68v-4.1Z"/>
      <path class="cls-13" d="M324.76,194.93a19.35,19.35,0,0,1,19.36-19.36"/>
      <path class="cls-14" d="M344.12,175.57"/>
      <path class="cls-13" d="M363.48,194.93A19.31,19.31,0,0,0,357,180.5"/>
      <path class="cls-11" d="M353.08,173.6,347.92,192a3.94,3.94,0,1,1-6.71-3.68Z"/>
      <rect class="cls-6" x="281.5" y="281.62" width="43.38" height="21.27"/>
      <line class="cls-6" x1="281.5" y1="281.62" x2="303.19" y2="292.25"/>
      <line class="cls-6" x1="324.87" y1="281.62" x2="303.19" y2="292.25"/>
      <path class="cls-6" d="M210.15,339.2,198,326.72l-2.35-9-7.45-2.07-.73,1,3.43,5.77-3.37,3.31-5.93-3.07-1.08,1.29,1.79,6.92,9,2.49,12.26,12.4,4.46,1.24,3.3-3.25Zm-2.67,5.66-2.41-.67-.63-2.42,1.78-1.75,2.41.67.63,2.42Z"/>
      <path class="cls-6" d="M101.41,295.16a11.32,11.32,0,1,1-21.17-5.58l.17-.29.09-.13c.29-.41.61-.84.94-1.29,3.47-4.69,8.66-11.08,8.66-20.48,0,8.83,4.78,15.35,8.28,20,.57.77,1.11,1.49,1.58,2.16a8.86,8.86,0,0,1,.47.92A11.22,11.22,0,0,1,101.41,295.16Z"/>
      <path class="cls-6" d="M80.5,289.16a10.74,10.74,0,0,1,.94-1.29C81.1,288.32,80.79,288.75,80.5,289.16Z"/>
      <path class="cls-6" d="M100,289.6c-.48-.67-1-1.39-1.58-2.16A10.91,10.91,0,0,1,100,289.6Z"/>
      <path class="cls-6" d="M80.41,289.29a2.34,2.34,0,0,0-.17.29"/>
      <path class="cls-6" d="M100,289.6l0,0a3.38,3.38,0,0,1,.45.89"/>
      <circle class="cls-6" cx="89.93" cy="294.99" r="6.74"/>
      <text class="cls-15" transform="translate(314.03 218.58)">Measure</text>
      <text class="cls-15" transform="translate(275.96 108.91)">Manage</text>
      <text class="cls-15" transform="translate(172.13 67.86)">Crea<tspan class="cls-16" x="33.39" y="0">t</tspan><tspan class="cls-17" x="39.66" y="0">e</tspan></text>
      <text class="cls-15" transform="translate(66.22 114.91)">Modi<tspan class="cls-18" x="36.85" y="0">f</tspan><tspan x="43.33" y="0">y</tspan></text>
      <text class="cls-15" transform="translate(20.6 218.58)"><tspan class="cls-19">E</tspan><tspan x="9.28" y="0">x</tspan><tspan class="cls-20" x="17.46" y="0">t</tspan><tspan x="23.73" y="0">end</tspan></text>
      <text class="cls-15" transform="translate(55.7 327.01)">Optimi<tspan class="cls-21" x="50.18" y="0">z</tspan><tspan class="cls-17" x="57.41" y="0">e</tspan></text>
      <text class="cls-15" transform="translate(166.66 371.71)">De<tspan class="cls-22" x="20.35" y="0">v</tspan><tspan class="cls-23" x="28.16" y="0">elop</tspan></text>
      <text class="cls-15" transform="translate(277.2 327.01)">Deli<tspan class="cls-22" x="28.77" y="0">v</tspan><tspan class="cls-23" x="36.58" y="0">er</tspan></text>
      <text class="cls-24" transform="translate(153.83 211.37)">CMS</text>
    </g>
  </g>
</svg>
