<svg xmlns="http://www.w3.org/2000/svg" viewBox="0 0 1063.75 1524.8">
  <defs>
    <style>
      .cls-1 {
        fill: #e87826;
      }

      .cls-2 {
        fill: #fefefe;
      }

      .cls-3 {
        fill: #f29024;
      }

      .cls-4 {
        fill: #f18d24;
      }

      .cls-5 {
        fill: #e67127;
      }

      .cls-6 {
        fill: #282662;
      }

      .cls-7 {
        fill: #e46b28;
      }

      .cls-8 {
        fill: #e56e28;
      }

      .cls-9 {
        fill: #842777;
      }

      .cls-10 {
        fill: #923e85;
      }

      .cls-11 {
        fill: #e67639;
      }

      .cls-12 {
        fill: #efa46e;
      }

      .cls-13 {
        fill: #f1b69a;
      }

      .cls-14 {
        fill: #eb8c4a;
      }

      .cls-15 {
        fill: #f7d5c6;
      }

      .cls-16 {
        fill: #f4bf99;
      }

      .cls-17 {
        fill: #e98b5b;
      }

      .cls-18 {
        fill: #ed9f77;
      }

      .cls-19 {
        fill: #bd8cb6;
      }

      .cls-20 {
        fill: #f5ac5d;
      }

      .cls-21 {
        fill: #fbece2;
      }

      .cls-22 {
        fill: #f8d6be;
      }

      .cls-23 {
        fill: #fbf0eb;
      }

      .cls-24 {
        fill: #ca2136;
      }

      .cls-25 {
        fill: #cc2335;
      }

      .cls-26 {
        fill: #852676;
      }

      .cls-27 {
        fill: #c62039;
      }

      .cls-28 {
        fill: #c3203c;
      }

      .cls-29 {
        fill: #b02050;
      }

      .cls-30 {
        fill: #c0203f;
      }

      .cls-31 {
        fill: #b3204d;
      }

      .cls-32 {
        fill: #ba2046;
      }

      .cls-33 {
        fill: #aa2056;
      }

      .cls-34 {
        fill: #b72049;
      }

      .cls-35 {
        fill: #a6205a;
      }

      .cls-36 {
        fill: #8a2572;
      }

      .cls-37 {
        fill: #be2041;
      }

      .cls-38 {
        fill: #bc2044;
      }

      .cls-39 {
        fill: #b5204b;
      }

      .cls-40 {
        fill: #ae2052;
      }

      .cls-41 {
        fill: #822778;
      }

      .cls-42 {
        fill: #dd562c;
      }

      .cls-43 {
        fill: #ab2055;
      }

      .cls-44 {
        fill: #df5b2b;
      }

      .cls-45 {
        fill: #d53f30;
      }

      .cls-46 {
        fill: #7b297d;
      }

      .cls-47 {
        fill: #db502d;
      }

      .cls-48 {
        fill: #d7442f;
      }

      .cls-49 {
        fill: #7e287b;
      }

      .cls-50 {
        fill: #d94a2e;
      }

      .cls-51 {
        fill: #e05f2a;
      }

      .cls-52 {
        fill: #d8472f;
      }

      .cls-53 {
        fill: #da4d2d;
      }

      .cls-54 {
        fill: #e1622a;
      }

      .cls-55 {
        fill: #8d2470;
      }

      .cls-56 {
        fill: #79297f;
      }

      .cls-57 {
        fill: #682d8b;
      }

      .cls-58 {
        fill: #6d2c87;
      }

      .cls-59 {
        fill: #712b84;
      }

      .cls-60 {
        fill: #772a80;
      }

      .cls-61 {
        fill: #762a81;
      }

      .cls-62 {
        fill: #ce2834;
      }

      .cls-63 {
        fill: #312768;
      }

      .cls-64 {
        fill: #3b296f;
      }

      .cls-65 {
        fill: #442a75;
      }

      .cls-66 {
        fill: #4c2b7b;
      }

      .cls-67 {
        fill: #542c81;
      }

      .cls-68 {
        fill: #612e8a;
      }

      .cls-69 {
        fill: #5a2d85;
      }

      .cls-70 {
        fill: #ca2236;
      }

      .cls-71 {
        fill: #c82037;
      }

      .cls-72 {
        fill: #bb2044;
      }

      .cls-73 {
        fill: #bf2040;
      }

      .cls-74 {
        fill: #c1203e;
      }

      .cls-75 {
        fill: #cd2535;
      }

      .cls-76 {
        fill: #c4203b;
      }

      .cls-77 {
        fill: #b82048;
      }

      .cls-78 {
        fill: #a7205a;
      }

      .cls-79 {
        fill: #df5c2b;
      }

      .cls-80 {
        fill: #e36729;
      }

      .cls-81 {
        fill: #e67227;
      }

      .cls-82 {
        fill: #b6204a;
      }

      .cls-83 {
        fill: #ac2054;
      }

      .cls-84 {
        fill: #d53e30;
      }

      .cls-85 {
        fill: #a3205e;
      }

      .cls-86 {
        fill: #f08b24;
      }

      .cls-87 {
        fill: #cf2c33;
      }

      .cls-88 {
        fill: #d13232;
      }

      .cls-89 {
        fill: #f3d4d8;
      }

      .cls-90 {
        fill: #cea6c6;
      }

      .cls-91 {
        fill: #e7cbdb;
      }

      .cls-92 {
        fill: #f69923;
      }

      .cls-93 {
        fill: #d43b31;
      }

      .cls-94 {
        fill: #e26529;
      }

      .cls-95 {
        fill: #e36929;
      }

      .cls-96 {
        fill: #a4205d;
      }

      .cls-97 {
        fill: #d23532;
      }

      .cls-98 {
        fill: #d33831;
      }

      .cls-99 {
        fill: #fce1c0;
      }

      .cls-100 {
        fill: #f49423;
      }

      .cls-101 {
        fill: #f39224;
      }

      .cls-102 {
        fill: #d33d43;
      }

      .cls-103 {
        fill: #d34048;
      }

      .cls-104 {
        fill: #f09540;
      }

      .cls-105 {
        fill: #f09643;
      }

      .cls-106 {
        fill: #f0943d;
      }

      .cls-107 {
        fill: #f19a48;
      }

      .cls-108 {
        fill: #f19e50;
      }

      .cls-109 {
        fill: #f8b763;
      }

      .cls-110 {
        fill: #f9c480;
      }

      .cls-111 {
        fill: #f7a339;
      }

      .cls-112 {
        fill: #fbd8ab;
      }

      .cls-113 {
        fill: #fefbf7;
      }

      .cls-114 {
        fill: #fdfdfd;
      }

      .cls-115 {
        fill: #316072;
      }

      .cls-116 {
        fill: #dc8d3a;
      }

      .cls-117 {
        fill: #e2a059;
      }

      .cls-118 {
        fill: #f9fafb;
      }

      .cls-119 {
        fill: #d7e0e3;
      }

      .cls-120 {
        fill: #688a96;
      }

      .cls-121 {
        fill: #a8bbc3;
      }

      .cls-122 {
        fill: #fdfbf9;
      }

      .cls-123 {
        fill: #f5e0c9;
      }

      .cls-124 {
        fill: #f1d3b3;
      }

      .cls-125 {
        fill: #f1d2b1;
      }

      .cls-126 {
        fill: #767ab3;
      }

      .cls-127 {
        fill: #777bb3;
      }

      .cls-128 {
        font-size: 132.25px;
        font-family: CopperplateGothic-Bold, Copperplate Gothic Bold;
      }

      .cls-129 {
        font-size: 100px;
        font-family: Consolas, Consolas;
        opacity: 0.63;
      }

      .cls-130 {
        fill: #f7c201;
      }

      .cls-131 {
        fill: #f9d550;
      }

      .cls-132 {
        fill: #f9d245;
      }

      .cls-133 {
        fill: #fae07d;
      }

      .cls-134 {
        fill: #fadf7a;
      }

      .cls-135 {
        fill: #fbe080;
      }

      .cls-136 {
        fill: #f9d44d;
      }

      .cls-137 {
        fill: #6b6b6b;
      }

      .cls-138 {
        fill: #fbe182;
      }

      .cls-139 {
        fill: #f8c920;
      }

      .cls-140 {
        fill: #f9d44b;
      }

      .cls-141 {
        fill: #222;
      }

      .cls-142 {
        fill: #e7e7e7;
      }

      .cls-143 {
        fill: #484848;
      }

      .cls-144 {
        fill: #242424;
      }

      .cls-145 {
        fill: #eaeaea;
      }

      .cls-146 {
        fill: #f8c91f;
      }

      .cls-147 {
        fill: #474747;
      }

      .cls-148 {
        fill: #dddddb;
      }

      .cls-149 {
        fill: #e2e2e0;
      }

      .cls-150 {
        fill: #e1e1df;
      }

      .cls-151 {
        fill: #f9cf01;
      }

      .cls-152 {
        fill: #e0e0de;
      }

      .cls-153 {
        fill: #e2e2df;
      }

      .cls-154 {
        fill: #dfdfde;
      }

      .cls-155 {
        fill: #e2e2e1;
      }

      .cls-156 {
        fill: #ebebe9;
      }

      .cls-157 {
        fill: #e7e7e5;
      }

      .cls-158 {
        fill: #e4e4e2;
      }

      .cls-159 {
        fill: #e6e6e4;
      }

      .cls-160 {
        fill: #f4f4f2;
      }

      .cls-161 {
        fill: #ececea;
      }

      .cls-162 {
        fill: #ededea;
      }

      .cls-163 {
        fill: #e5e5e3;
      }

      .cls-164 {
        fill: #242423;
      }

      .cls-165 {
        fill: #f4f4f1;
      }

      .cls-166 {
        fill: #eeeeeb;
      }

      .cls-167 {
        fill: #ebebea;
      }

      .cls-168 {
        fill: #fedd01;
      }

      .cls-169 {
        fill: #ededeb;
      }

      .cls-170 {
        fill: #f8f8f5;
      }

      .cls-171 {
        fill: #eeeeec;
      }

      .cls-172 {
        fill: #f6f6f3;
      }

      .cls-173 {
        fill: #f3f3f1;
      }

      .cls-174 {
        fill: #dcdee4;
      }

      .cls-175 {
        fill: #dbdfea;
      }

      .cls-176 {
        fill: #dae0f3;
      }

      .cls-177 {
        fill: #dbdfe8;
      }

      .cls-178 {
        fill: #1f1a17;
      }

      .cls-179 {
        fill: #1c1917;
      }

      .cls-180 {
        fill: #161312;
      }

      .cls-181 {
        fill: #171515;
      }

      .cls-182 {
        fill: #060200;
      }

      .cls-183 {
        fill: #0f0a07;
      }

      .cls-184 {
        fill: #080504;
      }

      .cls-185 {
        fill: #181412;
      }

      .cls-186 {
        fill: #0b0705;
      }

      .cls-187 {
        fill: #030100;
      }

      .cls-188 {
        fill: #0e0906;
      }

      .cls-189 {
        fill: #100c09;
      }

      .cls-190 {
        fill: #0b0603;
      }

      .cls-191 {
        fill: #040201;
      }
    </style>
  </defs>
  <title>lamplogo</title>
  <g id="Layer_2" data-name="Layer 2">
    <g id="Layer_1-2" data-name="Layer 1">
      <g>
        <path class="cls-1" d="M768.14,90.53l-2.24,3.39a3.12,3.12,0,0,1-1.66-.44c-10.22-4.23-20.48-8.36-30.69-12.61-1.18-.49-2.2-.18-3.29-.37l1.8-2.56c.81-.5,1.09-1.38,1.66-2L735.77,73l1.26-1.8.95-1.35,1-1.36c1.84-2.81,4.05-5.38,6-8.14a3.34,3.34,0,0,1,.56-.55c1.27-1.06,1.58-1,2.61.46,3,4.34,5.91,8.76,8.89,13.13,3.43,5,6.89,10,10.19,15.1A4.45,4.45,0,0,1,768.14,90.53Z"/>
        <path class="cls-2" d="M745.55,60.17,739,68.61q-.17.08-.22,0c0-.06,0-.11,0-.14Q762.53,34.68,786.3.86c.82-1.16,1.29-1,2.45-.28,7.56,4.88,15.17,9.69,22.76,14.52-1.32.68-2.34-.52-3.52-.75a20.44,20.44,0,0,0-6.23-1.54,17.58,17.58,0,0,0-8.09.8c-5.62,2-9.91,5.69-14.14,9.38A190.51,190.51,0,0,0,762.6,40.37c-5,5.6-9.88,11.24-14.32,17.22C747.53,58.6,746.19,59.06,745.55,60.17Z"/>
        <path class="cls-3" d="M808,14c1.25.1,2.21,1.18,3.51,1.1l.89.57a3,3,0,0,0,1.78,1.13l.89.57c.53,2.93,2,5.66,3.1,8.45Q829.06,52.92,839.94,80a7.53,7.53,0,0,0,1.31,2.49l-.07.73c-2,.16-3.85,1-6,.43-1.91-4-3.41-8.21-5.08-12.32-4.39-10.83-8.72-21.68-13.06-32.52-3.06-7.64-6.18-15.25-9.18-22.91C807.65,15.29,807,14.52,808,14Z"/>
        <path class="cls-4" d="M841.26,82.53c-1,.14-1-.64-1.19-1.12-4.31-10.74-8.57-21.49-12.89-32.22-3.12-7.75-6.3-15.48-9.44-23.22-.95-2.33-1.87-4.66-2.82-7a1.41,1.41,0,0,1,.15-1.63l.59.38a3,3,0,0,0,1.78,1.13l2.07,1.32c.94,1.37,2.63,2.08,3.58,3.44.86,3.47,2.5,6.75,3.84,10.1q6.61,16.56,13.28,33.1a9.59,9.59,0,0,0,1.47,2.95A62.93,62.93,0,0,1,841.26,82.53Z"/>
        <path class="cls-5" d="M730.25,80.49c1-1.11,2.18-.56,3.42,0q15.1,6.24,30.23,12.4a16.57,16.57,0,0,1,2,1.07l-5.8,9.26a.63.63,0,0,1-.14-1c.9-1.23.06-1.71-1.14-2.19-2.89-1.15-5.74-2.38-8.63-3.54-7.3-2.92-14.55-6-21.83-8.91-.79-.32-1.72-.51-2.07-1.43Z"/>
        <path class="cls-6" d="M590.49,563.76c-2.09,8.89-4.16,17.78-6.3,26.66-.65,2.72-1,5.52-2.18,8.09a11.87,11.87,0,0,1-7.2,6.35c-.25.09-.57.1-.63.42l-.3-.19q2.11-9,4.23-17.94,2.92-12.3,5.87-24.6a8,8,0,0,1,.31-.86c0-.69.58-.71,1.09-.59a21.34,21.34,0,0,1,4.72,1.82A.75.75,0,0,1,590.49,563.76Z"/>
        <path class="cls-7" d="M759.24,104.5a22.1,22.1,0,0,1-2.79,4.53,4.07,4.07,0,0,1-2-.51C744,104.21,733.54,100,723.11,95.7c-.79-.33-1.7-.52-2.16-1.35,0-.85,1-1.23,1-2.08l1.62-2.3a3.4,3.4,0,0,1,2.18.39c10.54,4.33,21.1,8.61,31.63,13C758.08,103.58,758.89,103.75,759.24,104.5Z"/>
        <path class="cls-8" d="M759.24,104.5l-24.51-10C731,93,727.3,91.46,723.58,90l2.7-3.84c4.09,2,8.37,3.48,12.56,5.22q10.71,4.44,21.47,8.78c.88.36,1.07.73.59,1.43-.34.5-.93.9-.81,1.62Z"/>
        <path class="cls-9" d="M700,442.58c-1,.09-1,1.25-1.86,1.49-3.77-1.32-7.4-3-11.08-4.52a1.41,1.41,0,0,1-.92-1,49.1,49.1,0,0,0,10.39-2,24.12,24.12,0,0,0,10.84-7.43c.29,0,.34-.69.82-.18-.69,1.74-1.87,3.27-2.25,5.15l-1.08,1.54c-1.5,1.42-2.39,3.26-3.64,4.85-.33.61-1,1.06-1.05,1.8Z"/>
        <path class="cls-10" d="M700.93,440.67c1.31-1.66,2.06-3.7,3.9-5l-3.61,5.12a.19.19,0,0,1-.22,0Q700.91,440.69,700.93,440.67Z"/>
        <path class="cls-11" d="M722,92.26c.19.9-.66,1.31-1,2a2,2,0,0,1-1.22,2.05.42.42,0,0,1-.52-.19Z"/>
        <path class="cls-12" d="M735.93,73,733.78,76q-.18.09-.25,0c0-.07-.06-.12,0-.15l2.16-3.07q.16-.07.23,0T735.93,73Z"/>
        <path class="cls-13" d="M714.93,102.24l1.8-2.56a.39.39,0,0,1,.38.37,3.36,3.36,0,0,1-1.68,2.39A.41.41,0,0,1,714.93,102.24Z"/>
        <path class="cls-14" d="M733.5,75.89l.29.16c-.57.64-.7,1.62-1.73,1.89Z"/>
        <path class="cls-15" d="M714.93,102.24l.24.17a1,1,0,0,1-.11,1A2.32,2.32,0,0,1,714,104.5a.39.39,0,0,1-.47-.21Z"/>
        <path class="cls-16" d="M735.93,73l-.27-.15L736.92,71q.17-.07.23,0t0,.13Z"/>
        <path class="cls-17" d="M719.25,96.1l.28.19a1.62,1.62,0,0,1-1,1.79.41.41,0,0,1-.51-.2Z"/>
        <path class="cls-18" d="M718,97.89l.26.18a1,1,0,0,1,0,.8c-.27.48-.55,1-1.25,1l-.24-.18Z"/>
        <path class="cls-19" d="M700.93,440.67l.29.12-1.08,1.54C699.84,441.51,700.68,441.22,700.93,440.67Z"/>
        <path class="cls-3" d="M817.43,18.87a1.74,1.74,0,0,1-1.78-1.13Z"/>
        <path class="cls-20" d="M814.17,16.79a1.72,1.72,0,0,1-1.78-1.13Z"/>
        <path class="cls-21" d="M738.72,68.47l.25.15-.89,1.28q-.17.09-.23,0c0-.06,0-.11,0-.14Z"/>
        <path class="cls-22" d="M737.82,69.75l.26.15-.89,1.29-.27-.16Z"/>
        <path class="cls-23" d="M713.48,104.29l.24.17c.17.73-.12,1.15-.9,1.27l-.24-.16Z"/>
        <path class="cls-24" d="M707.72,204.39c-2,4.57-3.92,9.13-5.85,13.71q-4.61,11-9.17,21.93c-1.95,4.68-3.87,9.38-5.8,14.06-.12.79-.75.77-1.42.65a9.4,9.4,0,0,1-1.82-.64q-20.08-8.24-40.18-16.42c-.73-.3-1.61-.46-2-1.31,2.37-5.8,5.07-11.45,7.69-17.14,4.49-9.73,9.26-19.34,14.11-28.9.37-.74.85-1.42,1.28-2.13.36-1.45,1.41-1.31,2.65-.8l12.06,4.93c9,3.68,18,7.4,27.07,11C706.93,203.62,707.5,203.79,707.72,204.39Z"/>
        <path class="cls-25" d="M707.72,204.39q-12.52-5.09-25-10.18-7.84-3.2-15.65-6.45c-1-.42-1.89-.6-2.42.46a85.41,85.41,0,0,1,4.77-9.39,118.12,118.12,0,0,1,5.89-10.58c.27-1.31,1.16-1.24,2.3-.75,3.81,1.61,7.66,3.12,11.49,4.68a9.32,9.32,0,0,0,2,.69,2.77,2.77,0,0,1,1.59,1.45c1.15,1.77,2.3,3.54,3.47,5.3,1.6,2.58,3.29,5.11,5,7.64q3.14,5.41,6.82,10.56a5.1,5.1,0,0,1,1.38,3.09A14.43,14.43,0,0,1,707.72,204.39Z"/>
        <path class="cls-26" d="M631.95,412.53c-1.31,5-2.79,10-4.52,14.92-.13.77-.63,1-1.47.78a15.66,15.66,0,0,1-1.64-.61c-10.35-4.22-20.65-8.55-31-12.64a4,4,0,0,1-1.21-.68,252.69,252.69,0,0,0-16.46-22.14,37.9,37.9,0,0,1-2.37-3.05c10.73,5.63,20.89,11.94,29.12,21l.12-8.86c1.46-.33,2.73.43,4,1,7.11,2.94,14.25,5.8,21.35,8.75A41.91,41.91,0,0,0,631.95,412.53Z"/>
        <path class="cls-27" d="M641.52,236.38,674.88,250c3.45,1.41,6.91,2.81,10.35,4.26.67.28,1.21.44,1.67-.14-1.49,4.2-3.1,8.35-4.88,12.44-.59.72-1.24.1-1.8-.13q-16.27-6.61-32.52-13.29c-3.09-1.27-6.21-2.46-9.27-3.78-.68-.29-1.48-.47-1.79-1.25,1.12-3.44,2.72-6.69,4.09-10C641,237.49,641.25,236.94,641.52,236.38Z"/>
        <path class="cls-28" d="M636.63,248.09q12.6,5.17,25.2,10.34c6.51,2.68,13,5.39,19.52,8.07a2.07,2.07,0,0,0,.66,0c-1.18,3.64-2.63,7.19-4.13,10.71-.31,1.33-1.34,1-2.29.59-2.57-1-5.12-2.05-7.67-3.1q-16.86-6.93-33.74-13.81c-.79-.32-1.72-.48-2.17-1.33A117.08,117.08,0,0,1,636.63,248.09Z"/>
        <path class="cls-29" d="M654.82,341.58q-1.61,5.52-3.69,10.87c-.23.65-.82.38-1.29.28a12.2,12.2,0,0,1-2.15-.76C635.82,347,623.9,342.23,612,337.35c-.89-.37-2-.53-2.4-1.56.61-4.09,1.53-8.11,2.53-12.1a10.63,10.63,0,0,1,2.78,1c12.53,5.15,25.09,10.22,37.61,15.41C653.37,340.48,654.39,340.63,654.82,341.58Z"/>
        <path class="cls-30" d="M632,259.61l19.41,7.91,24.72,10.14c.74.3,1.36.27,1.75-.4a97,97,0,0,1-4,10.48c-.6.89-1.43.32-2.13,0-3.76-1.5-7.51-3-11.26-4.58L631,271.11c-1.09-.45-2.44-.77-2.52-2.23Z"/>
        <path class="cls-31" d="M654.82,341.58l-30.34-12.43c-3.87-1.59-7.73-3.2-11.61-4.78a1.72,1.72,0,0,1-.73-.68,67.37,67.37,0,0,1,2.67-10.53,9.68,9.68,0,0,1,3.65,1.14c13,5.34,26,10.69,39.09,15.94.38.15.78.28.93.7C657.37,334.52,656.21,338.09,654.82,341.58Z"/>
        <path class="cls-32" d="M667.85,304.28a95.11,95.11,0,0,1-3.53,10c-.68.4-1.34,0-2-.23-13.61-5.64-27.3-11.1-40.9-16.78-.83-.35-1.86-.61-1.81-1.75l3.1-9.88a20,20,0,0,1,4.27,1.58c12.92,5.3,25.85,10.56,38.77,15.87A4.2,4.2,0,0,1,667.85,304.28Z"/>
        <path class="cls-33" d="M645.57,369.41a103.44,103.44,0,0,1-3.28,10.12c-.45.79-1.17.4-1.8.17-1.43-.54-2.85-1.09-4.26-1.68q-14.57-6-29.19-11.95c-.86-.35-2-.49-2.08-1.74.4-3.13.78-6.26,1.2-9.38.07-.5-.06-1.08.43-1.45a3.13,3.13,0,0,1,2.32.44c11.73,4.77,23.43,9.61,35.16,14.37C644.68,368.56,645.32,368.75,645.57,369.41Z"/>
        <path class="cls-34" d="M619.64,295.48a2.52,2.52,0,0,0,1.44,1.17L663.47,314a5.23,5.23,0,0,0,.85.2,76.07,76.07,0,0,1-3,8.44c-.56.77-1.32.31-2,.05-2-.76-3.93-1.55-5.88-2.36-11.39-4.69-22.8-9.33-34.19-14-.89-.37-2.18-.48-2.23-1.8A89.93,89.93,0,0,1,619.64,295.48Z"/>
        <path class="cls-35" d="M605,364.33c.41,1,1.51,1,2.3,1.38,11.23,4.62,22.48,9.18,33.72,13.77a1.42,1.42,0,0,0,1.3,0c-1.21,4.49-2.68,8.89-4.2,13.27-.61.68-1.25.06-1.83-.17-5.28-2.13-10.52-4.38-15.82-6.47-1.15-.45-2.34-.77-3.49-1.22a4.23,4.23,0,0,1-1.51-1.61c-3.43-5.16-6.53-10.48-10-15.61a3.61,3.61,0,0,1-.64-2A1.8,1.8,0,0,1,605,364.33Z"/>
        <path class="cls-36" d="M631.95,412.53c-.92.7-1.74-.1-2.52-.41-8.16-3.31-16.31-6.66-24.46-10-.81-.33-1.66-.56-2.49-.84a146,146,0,0,1,.59-16.68,20.5,20.5,0,0,1,4.27,1.48c3.73,1.51,7.44,3.07,11.16,4.61a11.81,11.81,0,0,0,2.66.81,2.26,2.26,0,0,1,1.29,1.08q5.06,7.83,10.32,15.55a2.15,2.15,0,0,1,.3.76A11.57,11.57,0,0,1,631.95,412.53Z"/>
        <path class="cls-37" d="M628.51,268.88a4.8,4.8,0,0,0,2.5,1.77L661.14,283q5.83,2.39,11.65,4.8a1.27,1.27,0,0,0,1.15,0,57.21,57.21,0,0,1-2.83,7.72c-.29,1-1.09.86-1.92.55-1.43-.54-2.85-1.09-4.26-1.68-12.41-5.13-24.87-10.16-37.28-15.29-.84-.35-2.05-.43-2.12-1.68Z"/>
        <path class="cls-38" d="M625.52,277.35c1.53,1.41,3.59,1.83,5.43,2.59,12.76,5.27,25.57,10.43,38.35,15.66.76.31,1.31.45,1.8-.15a68.6,68.6,0,0,1-3.25,8.83c-4.75-1.91-9.51-3.8-14.25-5.73q-14.24-5.8-28.46-11.63a7.7,7.7,0,0,1-2.4-1.33Z"/>
        <path class="cls-39" d="M617,304.57c.54,1,1.72,1.12,2.64,1.5q16.81,6.94,33.66,13.81c2.21.91,4.42,1.82,6.64,2.71a1.83,1.83,0,0,0,1.35.11,69.43,69.43,0,0,1-2.86,8.24c-5.76-1.89-11.26-4.44-16.87-6.69-8.44-3.37-16.83-6.85-25.24-10.29-.54-.22-1-.53-1.55-.8A51.42,51.42,0,0,1,617,304.57Z"/>
        <path class="cls-40" d="M609.61,335.78c3.83,1.84,7.83,3.27,11.76,4.89q13.88,5.71,27.77,11.38a3,3,0,0,0,2,.4,79.37,79.37,0,0,1-3,9A3,3,0,0,1,646,361c-12.25-5-24.54-10-36.78-15.05-.53-.22-1.14-.36-1.37-1A73.28,73.28,0,0,1,609.61,335.78Z"/>
        <path class="cls-41" d="M592.07,414.29c3.38.69,6.44,2.3,9.61,3.57,7.92,3.18,15.79,6.49,23.7,9.72.67.27,1.54.86,2.05-.13q-1.53,6.36-3.69,12.52c-.11.82-.65,1-1.47.75a12.22,12.22,0,0,1-1.32-.48c-5.85-2.46-11.76-4.76-17.61-7.21a3.91,3.91,0,0,1-2.15-1.4A160.66,160.66,0,0,0,592.07,414.29Z"/>
        <path class="cls-42" d="M740.88,136.54l-4.16,7.73a6.48,6.48,0,0,0-3-2c-10.45-4.23-20.9-8.46-31.29-12.82-1.65-.69-3.11-1.21-4.55-.09a116,116,0,0,1,6.18-9.89,3.31,3.31,0,0,1,2.18.38c11.2,4.63,22.43,9.19,33.65,13.78.69.28,1.48.47,1.79,1.25a.17.17,0,0,1-.13.21C741.57,135.66,740.94,136,740.88,136.54Z"/>
        <path class="cls-43" d="M607.84,345l22.51,9.14,17.81,7.26a72.4,72.4,0,0,1-2.6,8l-39-15.9A43.39,43.39,0,0,1,607.84,345Z"/>
        <path class="cls-44" d="M741.72,134.86l-37.61-15.41a54.3,54.3,0,0,1,4.56-7.1,4,4,0,0,1,2,.45c10.93,4.51,21.9,8.94,32.83,13.46.92.38,2.36.54,1.89,2Z"/>
        <path class="cls-45" d="M723.38,170.63,720,177.75a3.2,3.2,0,0,1-1.67-.43c-9.91-4.07-19.84-8.08-29.74-12.17a36.34,36.34,0,0,1-3.42-1.35,20.11,20.11,0,0,1-4.15-6,18.16,18.16,0,0,1,2.21-3.78,4,4,0,0,1,2,.51c11.92,4.81,23.79,9.77,35.72,14.58C721.87,169.42,722.95,169.6,723.38,170.63Z"/>
        <path class="cls-46" d="M619.83,453.43A98.43,98.43,0,0,1,617,463.5a4,4,0,0,1-2-.44c-4.62-1.79-9.17-3.74-13.75-5.63-.9-.37-1.9-.66-2.27-1.68l2.17-.51c-9.86-2.77-18.12-7.79-25.81-13.86,8.91,2.49,17.79,5.07,27,4.62,5.25,2.39,10.65,4.44,16,6.69A5.63,5.63,0,0,1,619.83,453.43Z"/>
        <path class="cls-47" d="M697.93,129.33c.71-1.67,1.92-1.5,3.61-.8q16.77,7,33.61,13.8c1,.41,1.81.79,1.58,1.93a55.24,55.24,0,0,1-2.95,5.55,2.4,2.4,0,0,1-2-.24c-11.74-4.84-23.51-9.6-35.25-14.44-.59-.24-1.23-.44-1.52-1.07A25.72,25.72,0,0,1,697.93,129.33Z"/>
        <path class="cls-48" d="M723.38,170.63c-4.19-1.74-8.37-3.51-12.56-5.23Q697.56,160,684.3,154.6a8,8,0,0,1-1.05-.63,22.78,22.78,0,0,1,2.48-4.25c1-2,1.19-2.07,3.48-1.15,11.65,4.68,23.22,9.52,34.86,14.22.89.36,2,.56,2.35,1.61A53.59,53.59,0,0,1,723.38,170.63Z"/>
        <path class="cls-49" d="M619.83,453.43c-1.83.14-3.28-1-4.87-1.64-3.74-1.42-7.42-3-11.13-4.56-.64-.26-1.35-.47-1.54-1.23,3.13-.3,3.11-.3,2.44-3.21a111,111,0,0,0-3.55-11.17q10.33,4.25,20.66,8.49c.65.27,1.43.77,1.9-.15C622.6,444.51,621.29,449,619.83,453.43Z"/>
        <path class="cls-50" d="M731.32,154.56a35.32,35.32,0,0,1-2.63,5.36,55.2,55.2,0,0,1-7.53-2.87c-9.82-4-19.61-8-29.43-12-.89-.36-2-.55-2.35-1.6a32.87,32.87,0,0,1,3.08-5.08,3.57,3.57,0,0,1,2.18.45c11.46,4.69,22.94,9.32,34.37,14.08C729.92,153.26,730.94,153.53,731.32,154.56Z"/>
        <path class="cls-51" d="M745.4,128.3a1.36,1.36,0,0,0-.93-1.24q-13.09-5.3-26.17-10.64c-3.23-1.32-6.42-2.71-9.63-4.07l.81-1.21c.34-1,1.2-1.7,1.66-2.62.6-1.22,1.52-1.2,2.79-.67,11,4.57,22,9,33,13.54.64.26,1.36.46,1.63,1.18Z"/>
        <path class="cls-52" d="M689.39,143.43a100.79,100.79,0,0,0,9.47,4c9.65,4,19.34,8,29,11.92a1.47,1.47,0,0,1,.82.57,27.76,27.76,0,0,1-2.28,4.49c-3-1.67-6.32-2.69-9.49-4-9.41-3.9-18.89-7.64-28.28-11.6-1.74-.73-2.28-.09-2.93.92A40.91,40.91,0,0,1,689.39,143.43Z"/>
        <path class="cls-53" d="M731.32,154.56c-3.25-1.86-6.81-3-10.25-4.45-9.52-4-19.07-7.84-28.61-11.76a21,21,0,0,1,2.55-4.29q11.46,4.69,22.92,9.37c5.27,2.15,10.56,4.26,15.84,6.38A26.86,26.86,0,0,1,731.32,154.56Z"/>
        <path class="cls-54" d="M748.6,122.56l-30.22-12.39c-1.62-.66-3.23-1.33-4.83-2-1-.45-1.81-.49-2.35.56a20.07,20.07,0,0,1-1.71,2.42c.79-2,2.32-3.54,3.34-5.4l.9-1.27,1-1.23a5.73,5.73,0,0,1,2.85.73q15.8,6.5,31.63,12.94c1,.41,2.27.76,1.44,2.14l-.79,1.27c-.08.69-.78,1.06-.91,1.72Z"/>
        <path class="cls-55" d="M621.24,391.73c-1.79.35-3.18-.84-4.7-1.44-4.12-1.61-8.22-3.29-12.32-5-.43-.17-.91-.28-1.14-.72a174.62,174.62,0,0,1,1.75-18.89c.26.49.49,1,.79,1.46q5.11,8,10.25,16c.3.47.68.89,1,1.34,1.84,1.92,3,4.21,4.39,6.36C621.44,391.14,621.58,391.48,621.24,391.73Z"/>
        <path class="cls-56" d="M598.94,455.75c3.84,2.19,8.09,3.46,12.1,5.28,2,.88,4,1.42,5.93,2.48-.7,3.18-1.64,6.28-2.64,9.36-.1.42-.48.41-.8.3a20,20,0,0,1-5.71-2.53c.41-1.52.71-3.08,1.26-4.54s-.17-1.58-1.4-1.75a66.63,66.63,0,0,0-8.6-.38q-4.12-1.54-8.14-3.34c-.84-.38-2.1-.62-1.85-1.94A31.47,31.47,0,0,1,598.94,455.75Z"/>
        <path class="cls-57" d="M601.81,519.1l-4.67,18.15a3.67,3.67,0,0,1-2.49-.41,21.66,21.66,0,0,0-3.92-1.38c1.29-6.12,2.89-12.15,4.6-18.14.24-.66.88-.6,1.41-.42A18.49,18.49,0,0,1,601.81,519.1Z"/>
        <path class="cls-58" d="M601.81,519.1a19.19,19.19,0,0,1-4-1.45c-.78-.31-1.58-.8-2.43-.33,1.26-5.94,3-11.76,4.53-17.61a12.39,12.39,0,0,1,6.41,2.6Z"/>
        <path class="cls-59" d="M606.28,502.29l-6.41-2.6c1.23-4.86,2.44-9.72,4-14.48,0-.53.37-1,.94-.8,1.93.69,4.07,1,5.53,2.65-.58,3.53-1.79,6.87-2.64,10.32C607.27,499,606.75,500.66,606.28,502.29Z"/>
        <path class="cls-60" d="M589.06,458.68c.77,1.55,2.5,1.68,3.86,2.32,1.72.81,3.52,1.46,5.29,2.15a1.92,1.92,0,0,1,.84.81c-10.67.82-20.52,3.79-30.25,7.5C570.06,469.23,584.16,460.4,589.06,458.68Z"/>
        <path class="cls-61" d="M610.31,487.07c-1.75-.74-3.51-1.45-5.24-2.23-.68-.31-.94,0-1.23.38,1.06-4.94,2.57-9.74,4-14.58,1.94.43,3.65,1.47,5.53,2.09.33.11.64.3,1,.15C613.09,477.63,611.94,482.42,610.31,487.07Z"/>
        <path class="cls-62" d="M681,157.76l4.13,5.59c2.23,2.48,3.65,5.39,5.55,8,.22.56.92,1,.45,1.7-1.65.28-2.93-.85-4.34-1.36-3.27-1.19-6.49-2.52-9.68-3.93-1-.45-1.48-.29-1.9.44C676.93,164.62,679,161.21,681,157.76Z"/>
        <path class="cls-63" d="M590.49,563.76c-1.91-1.17-3.82-2.37-6.19-2.08a23.49,23.49,0,0,1,1.15-4.75s0-.13,0-.14c1.46-.52,5.25,1,6.07,2.47A24,24,0,0,1,590.49,563.76Z"/>
        <path class="cls-64" d="M591.57,559.26a12.61,12.61,0,0,0-6.12-2.33,19.69,19.69,0,0,1,1.09-4.55.5.5,0,0,1,.63-.36c2,.57,4,1,5.59,2.44A24.39,24.39,0,0,1,591.57,559.26Z"/>
        <path class="cls-65" d="M592.77,554.47c-1.53-.6-3.07-1.19-4.59-1.82a2.47,2.47,0,0,0-1.63-.26,13.14,13.14,0,0,1,.92-3.79c0-.35.25-.69.6-.59,2,.59,4.23.82,5.66,2.63Z"/>
        <path class="cls-66" d="M593.73,550.64c-1.67-1-3.61-1.48-5.39-2.28-.39-.18-.64,0-.88.24a13.91,13.91,0,0,1,.95-3.8c.07-.39.32-.75.74-.64,2,.55,4.14.86,5.54,2.65Z"/>
        <path class="cls-67" d="M594.7,546.81a33,33,0,0,0-4.91-2.16c-.49-.21-1-.33-1.37.15a12.64,12.64,0,0,1,.9-3.64.52.52,0,0,1,.66-.31,18.69,18.69,0,0,1,4.92,2,1,1,0,0,1,.54,1.1Z"/>
        <path class="cls-68" d="M590.74,535.45c.59-.63,1.3-.17,1.87.08a37.84,37.84,0,0,0,4.53,1.71,10.61,10.61,0,0,1-.89,3.14,3,3,0,0,1-2.26-.46c-1.31-.58-2.71-.93-4-1.62A7.48,7.48,0,0,1,590.74,535.45Z"/>
        <path class="cls-69" d="M590,538.31c1.68-.21,3,1,4.49,1.38a14.62,14.62,0,0,1,1.74.7,12.5,12.5,0,0,1-.82,3.54c-1.69-1.68-3.9-2.24-6.12-2.77A7.73,7.73,0,0,1,590,538.31Z"/>
        <path class="cls-70" d="M698.77,240.24c1.5-4.58,3.5-9,5.32-13.41,2.95-7.19,6-14.33,9-21.49a7.28,7.28,0,0,1,.47-.81c1.06-1.55,2.87-1.42,4.62-1.43a5.7,5.7,0,0,0,2.29-.1,11.18,11.18,0,0,1,3.83-.48,5.25,5.25,0,0,0,2.28-.22,5.31,5.31,0,0,1,2.62.14c16.12,6.51,32.19,13.13,48.27,19.72,3.59,1.47,7.18,2.91,10.77,4.38a8.49,8.49,0,0,1,1.88,1c.66.49.87,1,.37,1.63a6.49,6.49,0,0,0-1.25,2c-5.55,8.78-13.36,15.44-22.94,20.42-2,1-4,2-6,2.94-.13.14-.42.25-.38.42s.35.11.53.19A66.56,66.56,0,0,0,784,246.61a22.2,22.2,0,0,1,3.73-1.86c-1,2-1.93,4.13-3,6.12A80.37,80.37,0,0,1,771.54,269a4.24,4.24,0,0,1-.65.45,8.18,8.18,0,0,0-2.41-1.41c-22.25-9.17-44.57-18.2-66.83-27.36A6.36,6.36,0,0,0,698.77,240.24Z"/>
        <path class="cls-71" d="M698.77,240.24c.47-.82,1.13-.69,2-.33,6.89,2.84,13.8,5.64,20.69,8.45l30.23,12.37L770,268.2c.59.24,1.27.51.9,1.3a68.85,68.85,0,0,1-21.51,14.27,1.72,1.72,0,0,0-.37.29c-.42.7-1.06.41-1.64.14-7.06-3.36-14.4-6-21.61-9-10.68-4.45-21.42-8.76-32.13-13.16-1.22-.5-2.46-1-2.39-2.5C693.52,253,696.05,246.58,698.77,240.24Z"/>
        <path class="cls-1" d="M835.31,83.62l4-.46a2.6,2.6,0,0,1,1.84.1,84.38,84.38,0,0,1-2.85,17.21A187,187,0,0,1,831,122.56a4.68,4.68,0,0,1-.4.67,4.74,4.74,0,0,1-2.34-.59c-18.1-7.46-36.25-14.8-54.34-22.28-1.52-.63-3.08-1.15-4.57-1.83a4.48,4.48,0,0,0-2.69-.33,54.84,54.84,0,0,1,4.24-7.05,8,8,0,0,1,3.47-.56c3-.21,6-.55,9-.65a2.59,2.59,0,0,0,1.73-.06,7.16,7.16,0,0,1,2.91-.34,2.48,2.48,0,0,0,1.7-.08,9.09,9.09,0,0,1,3.39-.4,4,4,0,0,0,2.18-.09,20.51,20.51,0,0,1,5.71-.7,8,8,0,0,0,2.28-.16,119.43,119.43,0,0,1,11.87-1.61c4.17-.2,8.17-1.06,12.26-1.57a8.39,8.39,0,0,0,3.25-.7A10.37,10.37,0,0,1,835.31,83.62Z"/>
        <path class="cls-72" d="M671.76,312.7c1-4,2.67-7.78,4-11.68.29-.88.67-1.72,1-2.58,2,.25,3.76,1.26,5.58,2,18.66,7.67,37.37,15.24,56,22.93,5.26,2.17,10.52,4.34,15.8,6.45a80,80,0,0,1-5.35,11.26c-.5.88-.6,2-1.42,2.67a3.72,3.72,0,0,1-2.17-.52q-24.49-10.06-49-20c-7.43-3-14.84-6.15-22.31-9.12C673.09,313.78,672.15,313.6,671.76,312.7Z"/>
        <path class="cls-73" d="M754.14,329.83a.85.85,0,0,1-1.06.16q-19.93-8.25-39.88-16.46c-11-4.53-22.12-9-33.18-13.49a12.53,12.53,0,0,1-3.29-1.6l4-11.15a4.19,4.19,0,0,1,2.84.53q16,6.57,32.08,13.11l40.38,16.52a8.83,8.83,0,0,0,2.87.67A87.48,87.48,0,0,1,754.14,329.83Z"/>
        <path class="cls-41" d="M686.11,438.59c3.19,1.63,6.58,2.79,9.85,4.21a5.26,5.26,0,0,1,2.15,1.26,43.4,43.4,0,0,1-11.4,9c-4.58-1.81-9.13-3.69-13.68-5.57-12.21-5-24.45-10-36.64-15-.89-.37-2.18-.47-2.24-1.8l4.58-15.61c12.7,5.37,25.53,10.42,38.26,15.74,2,.84,4.06,1.56,6,2.45.84.38,1.77.71,2.08,1.68l-7,3.43C681.12,438.81,683.6,438.49,686.11,438.59Z"/>
        <path class="cls-74" d="M758.93,318.11c-.45.88-1.26.5-1.92.23-12.19-5-24.35-10-36.54-15q-14.89-6.09-29.81-12.1c-3.29-1.33-6.5-2.89-9.91-3.93,1.28-3.61,2.45-7.27,4-10.77a3.56,3.56,0,0,1,2,.52Q712.37,287.53,738,298c7.61,3.11,15.2,6.25,22.83,9.32a5.32,5.32,0,0,1,1.72.86A72.92,72.92,0,0,1,758.93,318.11Z"/>
        <path class="cls-75" d="M789.26,231.08c-.14-.61.34-1,.62-1.37.91-1.37.79-1.74-1-2.45-4.43-1.8-8.86-3.58-13.29-5.39l-35.27-14.46q-4.94-2-9.91-3.95a10.47,10.47,0,0,1-1.71-.87c.17-.64.82-.65,1.35-.67,4.14-.22,8.16-1,12.23-1.5a4.5,4.5,0,0,1,1,0c3.62,0,7.11-.62,10.66-1a17.88,17.88,0,0,1,5.78-.14c11.61,4.59,23.12,9.44,34.69,14.13,1,.39,2.22.54,2.49,1.82C794.81,220.71,792.75,226.23,789.26,231.08Z"/>
        <path class="cls-76" d="M762.53,308.16c-1,.17-1.88-.47-2.78-.83q-16-6.54-32-13.09c-11.05-4.51-22.13-9-33.17-13.5a103.9,103.9,0,0,1-9.78-4.2,87.45,87.45,0,0,1,3.22-8.7,8.29,8.29,0,0,1,3.66,1.06c14.59,6,29.22,12,43.82,18,9.44,3.88,18.91,7.71,28.35,11.6a5.53,5.53,0,0,1,1.57.77A57.86,57.86,0,0,1,762.53,308.16Z"/>
        <path class="cls-77" d="M671.76,312.7l23.59,9.66L734,338.21c4,1.66,8.09,3.28,12.14,4.93.43.18.83.41,1.25.62a56,56,0,0,1-4.8,8.46,4.35,4.35,0,0,1-2.51-.58c-12.79-5.3-25.62-10.49-38.42-15.74-10.31-4.23-20.64-8.4-30.93-12.69-.84-.35-2.05-.47-2.07-1.73A81.58,81.58,0,0,1,671.76,312.7Z"/>
        <path class="cls-29" d="M657.26,355.36c1.07-3.61,2.24-7.18,3.59-10.69a4.26,4.26,0,0,1,2.34.59q23.58,9.61,47.13,19.26,8.4,3.43,16.78,6.9a2.78,2.78,0,0,1,1.08.55,72.29,72.29,0,0,1-9,9.1c-1,.09-1.75-.6-2.6-1q-27.47-11.23-54.93-22.48C660.15,357,658.35,356.81,657.26,355.36Z"/>
        <path class="cls-42" d="M739,149.56a116.79,116.79,0,0,1,5.25-10.48c1-.33,1.81.24,2.65.58,10.35,4.16,20.65,8.46,31,12.66,9.79,4,19.58,8,29.34,12,.83.35,1.85.49,2.29,1.44a77.73,77.73,0,0,1-5.75,8.94,3.89,3.89,0,0,1-1.83-.51q-29.79-12.23-59.61-24.4A4.62,4.62,0,0,0,739,149.56Z"/>
        <path class="cls-31" d="M728.18,372c-.72.28-1.28-.18-1.92-.45-9.37-3.85-18.75-7.66-28.13-11.49q-13.58-5.55-27.14-11.14c-3.39-1.4-6.86-2.59-10.15-4.22.81-3,1.82-6,2.92-8.91.89-.46,1.69.13,2.46.45q19.8,8.16,39.63,16.22c9.46,3.86,18.87,7.86,28.41,11.52a.92.92,0,0,1,.27.21A70.28,70.28,0,0,1,728.18,372Z"/>
        <path class="cls-26" d="M685.1,435c-3.19-2.11-6.89-3.11-10.37-4.56-11.55-4.8-23.15-9.48-34.73-14.2a2.39,2.39,0,0,1-1.27-1.11v-.15l.1-.12c.12-.87,1-.81,1.63-1.09,4.59-1.08,9.45-1.09,14.12-1.87a9,9,0,0,1,3-.24,5.78,5.78,0,0,1,1.58.63,88.86,88.86,0,0,0,16.27,1.19c.34,0,.68,0,1,.06,3.51.94,6.76,2.59,10.13,3.9,4.68,1.82,9.3,3.81,13.94,5.74.73.3,1.6.49,1.88,1.37a76.63,76.63,0,0,1-13.81,8.77C687.48,433.89,686.28,434.41,685.1,435Z"/>
        <path class="cls-47" d="M739,149.56c.6-1.17,1.56-1,2.71-.49q12.46,5.12,24.93,10.19c10.09,4.13,20.19,8.24,30.26,12.4a40.09,40.09,0,0,1,6.86,3.06,38.52,38.52,0,0,1-7.24,8.45,7.52,7.52,0,0,0-2.39-1.43q-28.47-11.66-57-23.28c-.71-.29-1.46-.42-2.15-.77A58.53,58.53,0,0,1,739,149.56Z"/>
        <path class="cls-50" d="M735,157.71c.86-.69,1.64.1,2.36.39,6,2.4,12,4.87,18,7.32l27.82,11.4,12.14,5c.69.28,1.58.41,1.21,1.41a39.4,39.4,0,0,1-8.79,6.94c-11.12-4.87-22.44-9.27-33.65-13.91q-10.24-4.24-20.52-8.39a7.84,7.84,0,0,0-3-.7A75.33,75.33,0,0,1,735,157.71Z"/>
        <path class="cls-48" d="M730.53,167.11c.52-.91,1.36-.49,2.09-.19l49.68,20.41c1.19.49,2.41.88,3.6,1.37.74.3,1.57.56,1.84,1.41a64.33,64.33,0,0,1-11.88,6.5,5.5,5.5,0,0,0-2-1.32l-45.22-18.5a8.4,8.4,0,0,0-2.37-.55A78.51,78.51,0,0,1,730.53,167.11Z"/>
        <path class="cls-39" d="M734.54,364.16c-2.18.13-4-1.17-5.85-1.94-11.25-4.53-22.45-9.16-33.67-13.77L664.61,336a5.62,5.62,0,0,0-.85-.21l2.51-7.28c.9-.32,1.69.19,2.49.51,9.79,4,19.56,8,29.34,12,12.72,5.18,25.4,10.43,38.13,15.59,1,.38,2.07.62,2.48,1.72A57.58,57.58,0,0,1,734.54,364.16Z"/>
        <path class="cls-33" d="M649,381.61a104.42,104.42,0,0,1,3.35-10.84,58.33,58.33,0,0,1,8.71,3.31c13.75,5.63,27.54,11.18,41.26,16.9.83.34,1.87.49,2.18,1.52a88.06,88.06,0,0,1-12,7.2,5.71,5.71,0,0,1-2.17-.63L650.6,382.82C650,382.55,649.26,382.34,649,381.61Z"/>
        <path class="cls-78" d="M649,381.61c4.19,1.74,8.37,3.5,12.57,5.22L691.33,399a8.32,8.32,0,0,1,1.19.73,96.58,96.58,0,0,1-18.2,8,4,4,0,0,1-1.35-.33c-8.69-3.62-17.42-7.18-26.14-10.73-.86-.35-2-.53-2-1.77C646.14,390.44,647.35,385.95,649,381.61Z"/>
        <path class="cls-79" d="M809.53,165.79l-31.89-13.08-27-11.09c-2.11-.86-4.22-1.69-6.34-2.53a59.18,59.18,0,0,1,3.58-6.91c.78-.92,1.68-.2,2.45.12,6.62,2.75,13.27,5.42,19.9,8.13q20.39,8.34,40.78,16.67a8.3,8.3,0,0,1,2.36,1.16,1.28,1.28,0,0,1,.28.5A72.76,72.76,0,0,1,809.53,165.79Z"/>
        <path class="cls-80" d="M753.13,122.22a52.82,52.82,0,0,1,4.26-7.78,4.38,4.38,0,0,1,2.18.52q22.79,9.31,45.59,18.63c5.26,2.16,10.53,4.3,15.79,6.47.63.26,1.38.38,1.7,1.09a58,58,0,0,1-3.72,7.63,8.79,8.79,0,0,1-2.47-.89Q786.06,135.42,755.64,123C754.82,122.68,754,122.5,753.13,122.22Z"/>
        <path class="cls-81" d="M766.62,98.2c.45-.67.86-.9,1.91-.46q16.29,6.77,32.64,13.4,14.23,5.8,28.48,11.57a8.06,8.06,0,0,1,.92.52,54.58,54.58,0,0,1-3,7.33c-1,.32-1.93-.22-2.83-.59-13.06-5.41-26.17-10.71-39.26-16.07-6.79-2.78-13.55-5.61-20.36-8.33a4.6,4.6,0,0,0-2.52-.34A57.13,57.13,0,0,1,766.62,98.2Z"/>
        <path class="cls-82" d="M738.71,358.28c-3.08-1.83-6.52-2.83-9.8-4.19q-19.3-8-38.66-15.88c-8-3.26-16-6.48-24-9.72a61.41,61.41,0,0,1,2.37-7c.9,1.29,2.48,1.43,3.77,2,15.4,6.35,30.83,12.63,46.25,18.94q12,4.9,23.91,9.84l-.79,1.23c-.48,1.32-1.67,2.23-2.18,3.54Z"/>
        <path class="cls-83" d="M704.5,392.51c-3-1.63-6.29-2.75-9.45-4.07-11.29-4.69-22.61-9.29-33.93-13.92-2.37-1-4.77-1.86-7.14-2.83-.57-.23-1.27-.31-1.63-.92a72.85,72.85,0,0,1,2.66-8.29,3.35,3.35,0,0,1,2,.5c17.57,7.24,35.18,14.35,52.74,21.61a7.35,7.35,0,0,1,3.18,1.75A70.79,70.79,0,0,1,704.5,392.51Z"/>
        <path class="cls-40" d="M712.93,386.35l-11.29-4.61q-15.19-6.21-30.37-12.44c-5.43-2.23-11-4.26-16.25-6.82l2.24-7.13,36.72,15q11.65,4.76,23.28,9.55a14.51,14.51,0,0,1,1.95,1.18C717.38,383.09,714.93,384.51,712.93,386.35Z"/>
        <path class="cls-54" d="M753.13,122.22c.51-.61,1.2-.24,1.74,0q14,5.7,28,11.45c10.09,4.14,20.2,8.25,30.27,12.43,2,.81,4.11,1.26,5.77,2.7a34.69,34.69,0,0,1-2.8,5.27,4.8,4.8,0,0,1-2.68-.65q-19.14-7.87-38.31-15.69c-7.5-3.07-15-6.19-22.5-9.2-.79-.32-1.72-.51-2.14-1.38A22.72,22.72,0,0,1,753.13,122.22Z"/>
        <path class="cls-7" d="M822.65,141.15q-12-4.86-24-9.73Q783.5,125.24,768.37,119c-3.66-1.51-7.42-2.81-11-4.56a29,29,0,0,1,2.87-5.22,4.53,4.53,0,0,1,2.34.58q22.58,9.16,45.12,18.44l15.3,6.28c.8.33,1.7.58,2,1.49A23.76,23.76,0,0,1,822.65,141.15Z"/>
        <path class="cls-84" d="M726.25,176.24c.34-.46.67-.63,1.41-.33q15.44,6.37,30.92,12.67c5.18,2.12,10.38,4.2,15.53,6.39.69.29,2.25.16,1.75,1.65l-1.53.9c0,.31-.12.58-.5.65-3.94.39-7.85.91-11.81,1.17a2.53,2.53,0,0,1-2-.37,15.21,15.21,0,0,0-3.15-1.55c-10.47-4.33-21-8.6-31.45-12.88-.84-.34-1.85-.51-2.29-1.45A50.64,50.64,0,0,1,726.25,176.24Z"/>
        <path class="cls-27" d="M691.23,259.5c.92,2.19,3.3,2.38,5.12,3.13q23.51,9.75,47.1,19.3a17.51,17.51,0,0,1,4.11,1.92,1.29,1.29,0,0,0,1.45.2c.33.3.72.17,1.09.21,5.14,2.27,10.4,4.23,15.57,6.42a6.42,6.42,0,0,1,2,1.07,13.2,13.2,0,0,1-1.21,4.12,3.7,3.7,0,0,1-2.34-.52c-14-5.67-28-11.41-41.93-17.12-10.22-4.18-20.45-8.34-30.65-12.57-.85-.35-2.06-.47-2.07-1.73Z"/>
        <path class="cls-85" d="M644.83,394.89c.52,1.16,1.81,1.22,2.77,1.62,8.29,3.42,16.62,6.76,24.92,10.14a13.72,13.72,0,0,1,1.81,1.07,79.82,79.82,0,0,1-15.26,4,2.71,2.71,0,0,1-1.43.21c-5.64.78-11.41,1-17,2.15-.5-.1-1,.24-1.52-.2,1.31-4.51,2.61-9,3.95-13.53C643.63,398.52,644.24,396.71,644.83,394.89Z"/>
        <path class="cls-36" d="M702.43,424.52c-4.27-1.81-8.54-3.65-12.82-5.42-3.92-1.62-7.86-3.16-11.79-4.77a9.15,9.15,0,0,1-1.33-.82,91.94,91.94,0,0,0,17.5-2.63,100.36,100.36,0,0,0,11.46-4.12c2.92,1.17,5.82,2.4,8.72,3.61.52.22,1.12.39,1.35,1A55.36,55.36,0,0,1,702.43,424.52Z"/>
        <path class="cls-27" d="M689.46,263.93c.9,1.29,2.48,1.43,3.77,2q23.09,9.53,46.23,18.93l27,11.06a9.59,9.59,0,0,1-1,3.34c-2.49-.2-4.6-1.56-6.83-2.47-11.84-4.78-23.65-9.66-35.46-14.5l-31.88-13.1a16.65,16.65,0,0,1-3.23-1.33Z"/>
        <path class="cls-62" d="M760.43,199c3.91-.09,7.72-.7,11.58-1.05.66-.06,1.3-.36,2,.06a57.69,57.69,0,0,1,6.36,2.47c5.87,2.34,11.67,4.85,17.55,7.16.58.23,1.26.35,1.54,1a57,57,0,0,1-2.48,6.56c-2.66-1.84-5.8-2.64-8.74-3.87-8.5-3.55-17-7-25.56-10.54-1.13-.47-2.41-.57-3.38-1.41C759.38,198.69,759.78,198.59,760.43,199Z"/>
        <path class="cls-51" d="M750.5,127.14l25.39,10.39,27,11.08,13.24,5.45a8.21,8.21,0,0,1-1.5,2.75,4.71,4.71,0,0,1-2.35-.59c-18.86-7.81-37.79-15.42-56.66-23.22-1.63-.67-3.29-1.25-4.9-2-.63-.28-1.36-.44-1.67-1.14A8.8,8.8,0,0,1,750.5,127.14Z"/>
        <path class="cls-8" d="M762.56,105.22c.53-1,1.23-.65,2.21-.24,7.69,3.19,15.43,6.28,23.13,9.43q18.43,7.54,36.85,15.11c.92.38,1.85.69,2.78,1a12.63,12.63,0,0,1-1.25,2.91,7.09,7.09,0,0,1-3.33-.93c-13.71-5.67-27.47-11.22-41.19-16.87l-17.58-7.21a4.08,4.08,0,0,0-3.3-.23A10,10,0,0,1,762.56,105.22Z"/>
        <path class="cls-86" d="M841.68,69.79c-1.17.1-1.05-.92-1.26-1.41-1.52-3.57-2.91-7.18-4.36-10.78-4.16-10.33-8.36-20.64-12.45-31-.36-.91-1.38-1.93-.53-3a52,52,0,0,1,14.56,22.24,83.1,83.1,0,0,1,4.19,23.48A1.23,1.23,0,0,1,841.68,69.79Z"/>
        <path class="cls-8" d="M760.87,108.22c.51-.8.94-1.18,2.25-.63,10,4.18,20.14,8.24,30.22,12.34l32,13a8.81,8.81,0,0,1,.92.51A7.23,7.23,0,0,1,825,136c-3.73-1.94-7.7-3.33-11.57-4.94q-16.8-7-33.65-13.82c-6.1-2.49-12.21-4.95-18.32-7.42-.43-.17-.84-.4-1.26-.6Z"/>
        <path class="cls-87" d="M799.46,208.67c-6.45-2.34-12.72-5.14-19.09-7.71-1.94-.78-3.86-1.61-5.8-2.4-.3-.12-.53-.22-.57-.53s-.08-.52.33-.52c3.93-.22,7.57-1.35,11.29-2.21l1.62-.36a4.46,4.46,0,0,1,2.52.36c3.38,1.41,6.77,2.82,10.18,4.16.8.32,1.67.6,2,1.51A60.34,60.34,0,0,1,799.46,208.67Z"/>
        <path class="cls-51" d="M749.06,129.9q12.86,5.23,25.72,10.45,15.11,6.17,30.21,12.39c3.23,1.33,6.43,2.71,9.65,4.07l-.26.43a2.14,2.14,0,0,1-1,1.36l-22.8-9.35-28-11.48-13.25-5.45a2,2,0,0,0-1.51-.15A5.49,5.49,0,0,1,749.06,129.9Z"/>
        <path class="cls-71" d="M767.66,291.76c-2.56-.5-4.81-1.85-7.22-2.75-3.09-1.15-6.1-2.5-9.15-3.73-.55-.22-1.15-.31-1.19-1a6.69,6.69,0,0,1,2.27-.37c.34,0,.74.26,1-.13,2.37-.59,4.75-1.13,7.1-1.78a60,60,0,0,0,11.15-4.27C770.32,282.67,769.22,287.28,767.66,291.76Z"/>
        <path class="cls-55" d="M715.52,411.34l-9.32-3.77c-.4-.16-.73-.37-.75-.82a101.47,101.47,0,0,0,10.1-5.95A92.23,92.23,0,0,0,727,391.19C723.84,398.27,720.33,405.16,715.52,411.34Z"/>
        <path class="cls-88" d="M801.91,201c-3.09-1.79-6.54-2.73-9.78-4.19a25.08,25.08,0,0,0-4.9-1.84c4.82-1.6,9.7-3.08,14.1-5.46,1.08-.59,2.12-1.24,3.4-2A63.77,63.77,0,0,1,801.91,201Z"/>
        <path class="cls-39" d="M739.6,357c.27-1.44,1.46-2.35,2.18-3.54A13.12,13.12,0,0,1,739.6,357Z"/>
        <path class="cls-89" d="M760.49,255.06a4.07,4.07,0,0,1-1.88.3c.41-.67,1.13-.72,1.73-.91Z"/>
        <path class="cls-90" d="M708.16,429l-.82.18a2.72,2.72,0,0,1,1-1.3A.84.84,0,0,1,708.16,429Z"/>
        <path class="cls-91" d="M657.63,411.93a2.34,2.34,0,0,1,1.43-.21l.15.54A2.12,2.12,0,0,1,657.63,411.93Z"/>
        <path class="cls-27" d="M753.34,283.76c-.08,1-.6.29-1,.13A1.25,1.25,0,0,1,753.34,283.76Z"/>
        <path class="cls-51" d="M813.37,158.6l1-1.36a2.51,2.51,0,0,1-.76,1.51Z"/>
        <path class="cls-92" d="M815.1,86.73l-11.88,1.66c-.76-.07-1.48.1-2.23.1-1.85.45-3.9.12-5.69.79-.76-.09-1.48.13-2.24.07a11,11,0,0,0-3.32.47c-.58,0-1.16,0-1.74,0a8.28,8.28,0,0,0-2.84.4c-.59,0-1.16.05-1.75,0l-12.55.9a74.56,74.56,0,0,1,5.12-8.5q7-11.12,14.57-21.89a32.42,32.42,0,0,0,3.72-5.36A27.29,27.29,0,0,0,796,53.26c.75-.33.78-1.19,1.39-1.62a20.75,20.75,0,0,0,1.82-2.35,11.38,11.38,0,0,0,2.42-2.84c1-.3,1.11-1.41,1.91-1.9-.79.48-.92,1.57-1.9,1.87a11,11,0,0,1-2.37,2.79c-.55.66-1,1.39-1.51,2.08a9.23,9.23,0,0,0-1.54,1.91c-.7.28-.78,1-1.32,1.45-.72.5-.85,1.49-1.77,1.82A370.18,370.18,0,0,0,770,87.85c-.6.91-1.27,1.79-1.9,2.68-2-2.91-4-5.82-6-8.74-3.85-5.65-7.75-11.27-11.49-17a39.93,39.93,0,0,1-2.79-4.18c-.67-1.38-1.38-1.46-2.32-.46,4-5.34,8.26-10.51,12.65-15.57,5.11-5.89,10.3-11.72,15.9-17.23a88.32,88.32,0,0,1,14.36-11.8A15.18,15.18,0,0,1,794,13.14a38,38,0,0,1,3,6.79c6.21,15.59,12.55,31.14,18.78,46.73,2.48,6.21,5.18,12.37,7.3,18.67-.07.38-.43.42-.75.46C819.87,86.1,817.52,86.56,815.1,86.73Z"/>
        <path class="cls-49" d="M634.15,430.72c1,1.32,2.59,1.49,3.93,2,15.42,6.35,30.89,12.61,46.32,18.94.81.33,1.85.48,2.31,1.41a68.18,68.18,0,0,1-21.3,8.29,4.72,4.72,0,0,1-1.51-.41c-10.66-4.42-21.34-8.77-32-13.13-.84-.34-1.84-.53-2.24-1.49Z"/>
        <path class="cls-46" d="M629.63,446.36c4.74,2,9.47,3.94,14.22,5.89,6.69,2.75,13.39,5.46,20.08,8.22a10.07,10.07,0,0,1,1.48.93,107.22,107.22,0,0,1-21.78,3,98.61,98.61,0,0,1-13,0,10,10,0,0,1-4.09-1.15c-.5-.3-1-.55-1.19-1.12Z"/>
        <path class="cls-93" d="M760.43,199a1,1,0,0,0-1.13.39c-4.52.22-9,.79-13.42,1.33a6.71,6.71,0,0,1-2.54,0c-5.7-2.53-11.49-4.84-17.26-7.19-1.24-.51-2.51-1-3.73-1.52a5.53,5.53,0,0,0-3-.53,60.87,60.87,0,0,1,3.82-8.42l25.41,10.39c3.45,1.41,6.91,2.81,10.35,4.27C759.51,198,760.25,198.28,760.43,199Z"/>
        <path class="cls-94" d="M750.65,119c0-.6.12-1-.85-1.44-11.4-4.57-22.77-9.22-34.15-13.86a8.67,8.67,0,0,1-.92-.51l.44-.81,1.8-2.56,1-1.25a4,4,0,0,1,2,.51c10.46,4.3,20.95,8.55,31.41,12.86.9.37,2,.58,2.35,1.62Z"/>
        <path class="cls-95" d="M753.72,113.59c-3.37-1.75-6.94-3-10.45-4.44L719,99.24a8,8,0,0,1-1.05-.63l.3-.53,1.28-1.78,1.45-2c4.11,1.94,8.37,3.52,12.58,5.24l21.83,8.92a8,8,0,0,1,1.05.63A24.41,24.41,0,0,1,753.72,113.59Z"/>
        <path class="cls-96" d="M621.24,391.73a62.31,62.31,0,0,0-3.5-5.64c-.31-.52-.57-1.05-.86-1.58,6.94,2.2,13.52,5.3,20.24,8.07.33.13.62.34,1,.22-1.57,5.41-3.12,10.82-5,16.11-1.91-1.93-3.06-4.29-4.61-6.42C625.91,399,623.87,395.2,621.24,391.73Z"/>
        <path class="cls-97" d="M719.33,191.51c.49-.69,1-.78,2-.37,6.8,2.84,13.64,5.6,20.46,8.39.64.26,1.34.47,1.55,1.22l-14.59,1.83-2.21.08c-.75-.06-1.47.11-2.21.11l-3.79.52c-.76-.08-1.48.1-2.23.1a8.64,8.64,0,0,0-4.73,1.15C715.35,200.13,717.2,195.76,719.33,191.51Z"/>
        <path class="cls-93" d="M690.53,171.58a69,69,0,0,1-5.36-8.23c7.76,3.16,15.54,6.28,23.28,9.49,3.87,1.6,7.89,2.85,11.56,4.91l-2.54,5.41a16.92,16.92,0,0,0-3.41-1.74c-7.46-3.06-14.9-6.18-22.42-9.09C691.21,172.17,690.75,172,690.53,171.58Z"/>
        <path class="cls-98" d="M690.53,171.58c6.26,2,12.16,4.86,18.28,7.2,2.54,1,5,2.1,7.57,3.08a1.43,1.43,0,0,1,1.09,1.29l-2.06,4.26a4.62,4.62,0,0,1-2.16-.59c-5.78-2.36-11.52-4.82-17.37-7a58.9,58.9,0,0,1-3.59-5.25c-.36-.5-.75-1-1.12-1.46Z"/>
        <path class="cls-60" d="M625.31,462.15a26.75,26.75,0,0,0,5.28,2.27l-2,.14c7.93,6.51,12.83,14.25,14.3,23.53-1.72-2.21-3.4-4.44-5.15-6.62-3.8-4.74-8-9.13-13.78-11.88-.61-.29-.59-.61-.48-1C624.08,466.42,624.7,464.28,625.31,462.15Z"/>
        <path class="cls-97" d="M695.89,179.81a1.29,1.29,0,0,1,1.15,0c6.16,2.46,12.38,4.8,18.38,7.64a30,30,0,0,1-2.06,4.62c-2.63-.54-5-1.92-7.46-2.79a48.56,48.56,0,0,0-5.06-1.85A57.8,57.8,0,0,1,695.89,179.81Z"/>
        <path class="cls-88" d="M700.83,187.41a1,1,0,0,1,1.23-.2q5.29,2.16,10.56,4.38a5.18,5.18,0,0,1,.74.46c-1.27,3-2.58,6-4.11,8.86-2.53-4.39-5.79-8.44-8.18-12.9A5,5,0,0,1,700.83,187.41Z"/>
        <path class="cls-99" d="M793.16,56.46a4.65,4.65,0,0,1,1.7-2c.18.4-.34.58-.27,1a32.34,32.34,0,0,1-4,5.31C791.22,59.21,792.77,58.16,793.16,56.46Z"/>
        <path class="cls-41" d="M639.14,413.88c.51.08,1-.13,1.52.2-.54.36-1.43.12-1.82.75A1,1,0,0,1,639.14,413.88Z"/>
        <path class="cls-94" d="M748.95,122c-.08-.77.58-1.16.91-1.72A3.55,3.55,0,0,1,748.95,122Z"/>
        <path class="cls-44" d="M740.88,136.54c-.13-.66.43-1,.71-1.46A2.53,2.53,0,0,1,740.88,136.54Z"/>
        <path class="cls-100" d="M822.93,85.37a47.78,47.78,0,0,1-2.85-6.75c-4.23-10.36-8.39-20.74-12.57-31.12q-6.69-16.63-13.35-33.27a4.94,4.94,0,0,1-.18-1.09,16.48,16.48,0,0,1,7.75-.7c2,4.27,3.56,8.63,5.31,13,4.7,11.67,9.36,23.35,14.07,35,3,7.39,5.93,14.78,8.94,22.16a2.28,2.28,0,0,1,.24,1.85A19.74,19.74,0,0,1,822.93,85.37Z"/>
        <path class="cls-101" d="M830.07,84.35c-.37-2.29-1.56-4.39-2.41-6.56-3.42-8.67-6.93-17.33-10.41-26q-4.31-10.71-8.62-21.42c-2.23-5.52-4.47-11-6.68-16.55a6.05,6.05,0,0,1-.22-1.41A14.62,14.62,0,0,1,808,14c-.53,1.16.4,2.19.8,3.19,4.75,11.92,9.6,23.8,14.41,35.7q5.59,13.82,11.1,27.67a8.19,8.19,0,0,1,1,3.07l-4.46.85C830.59,84.51,830.3,84.74,830.07,84.35Z"/>
        <path class="cls-102" d="M724.34,202.77a2.47,2.47,0,0,1,2.21-.11A2.75,2.75,0,0,1,724.34,202.77Z"/>
        <path class="cls-103" d="M718.32,203.39a2.46,2.46,0,0,1,2.23-.1A2.91,2.91,0,0,1,718.32,203.39Z"/>
        <path class="cls-104" d="M830.07,84.35l.78.11a1.48,1.48,0,0,1-1.16.51l-13.25,1.87a2,2,0,0,1-1.35-.12l7.82-1.36A47,47,0,0,0,830.07,84.35Z"/>
        <path class="cls-105" d="M793.07,89.35a2.62,2.62,0,0,1,2.24-.07A2.74,2.74,0,0,1,793.07,89.35Z"/>
        <path class="cls-106" d="M801,88.49a2.47,2.47,0,0,1,2.23-.1A2.89,2.89,0,0,1,801,88.49Z"/>
        <path class="cls-107" d="M788,89.83a1.84,1.84,0,0,1,1.74,0A1.73,1.73,0,0,1,788,89.83Z"/>
        <path class="cls-108" d="M783.41,90.25a1.86,1.86,0,0,1,1.75,0A1.74,1.74,0,0,1,783.41,90.25Z"/>
        <path class="cls-109" d="M799.15,49.15l2.44-2.91q.16-.07.23,0t0,.13c-.83.95-1.1,2.31-2.44,2.88q-.15.08-.22,0T799.15,49.15Z"/>
        <path class="cls-110" d="M796.22,53.22c.14-.8.33-1.56,1.28-1.86a.58.58,0,0,1,.1.43c-.39.53-.53,1.26-1.38,1.4Z"/>
        <path class="cls-111" d="M801.86,46.4l-.27-.15c.91-.34,1.14-1.3,1.91-1.77C803,45.17,802.95,46.16,801.86,46.4Z"/>
        <path class="cls-112" d="M797.6,51.79l-.1-.43,1.65-2.21.27.13Z"/>
        <path class="cls-113" d="M794.6,55.44c-.15-.39.2-.63.27-1,.44-.43.51-1.2,1.36-1.27v0Z"/>
      </g>
      <g>
        <path class="cls-114" d="M321.54,779.65c94.26.87,167.22,70.45,166.38,158.68-.81,84.72-75.73,155.09-164.35,154.34-94.55-.8-167.33-70.5-166.35-159.32C158.15,849.15,233.33,778.83,321.54,779.65Z"/>
        <path class="cls-115" d="M315,790c-12,6.53-23,13.85-31.66,24.11C247.6,856.28,265,919.83,318,939.59c27.48,10.23,44.85,28.21,50.26,56.11,10.07,51.89-44.77,97.37-96.93,79.12-62.28-21.79-98.36-65.16-103.28-128-4.83-61.72,23.81-108.53,80.15-139.66C268.76,795.77,291.14,790.26,315,790Z"/>
        <path class="cls-116" d="M334.61,1079.41c29.44-15.73,45.17-39.59,45.86-71.71.7-32.64-20.83-63-53-74.76-22.67-8.31-39.62-22.1-47.3-44.13-9.84-28.24-4.3-53.94,18.63-74.89,23.39-21.37,51.31-25.88,80.75-14.33,60.32,23.69,94.33,67.43,97.79,129.13,3.41,60.61-25.45,106.41-80.87,136.77a136.94,136.94,0,0,1-49.83,15.85C342.49,1081.4,337.88,1084.18,334.61,1079.41Z"/>
        <path class="cls-117" d="M334.61,1079.41c3.58,3,8,1,12,1.93a36.68,36.68,0,0,1-16.4,1.25C330.95,1080,332.93,1079.91,334.61,1079.41Z"/>
        <path class="cls-118" d="M283.72,943.55c5.48,4,9.32,9.31,12.68,15.09,3.13-2.16,2.16-4.91,2.73-7.17.75-3,1.65-5.77,5.17-6.72s6.07.74,8.14,3.07a33.11,33.11,0,0,1,7.6,30.7c-2.72,11.12-1.78,20.11,4.12,30.37s8.8,21.82,17.16,31c3.29,3.59,3.94,8.31.62,12.59a9.7,9.7,0,0,1-12.3,2.6c-13.22-6.77-28.47-8.5-41.56-14.71-22.55-10.7-39.3-27.53-48.88-50.27-3.45-8.18-7.95-16-11.73-24-1.73-3.68-4.8-5.42-8.44-6.77-11.76-4.35-21.53-11.53-30.54-19.72-3.72-3.37-4.14-6.07,2.1-6.89,3.77-.49,7.57-1,11.26-1.81,1.95-.45,5.07-.09,5.48-2.35.46-2.52-2.45-3.66-4.44-4.76A96.32,96.32,0,0,1,189,914.26c-1.76-1.42-3.7-2.65-4.65-6.3,12.19,5.08,23.86,8.66,31.54,18.64,3,3.89,2.48,6.17-2.73,7.82-6.16,1.94-12.53,2.17-19.3,3.73,7.52,5.24,14,12.14,23.33,14.2,11,2.44,16.48,9.11,20.72,18.45,8.08,17.82,15.23,36.31,31.34,49.64,12,9.93,24.4,19,41.34,19.35,5.8.11,8.79,5.19,13.74,6.73,4.32,1.34,9.32,6.17,13,2.18,3.79-4.16-1.66-8.16-4.47-11.53a55.75,55.75,0,0,1-10.31-19.24c-2.08-6.51-4.28-13-9.58-18-3.65-3.44-1.72-7.21-.29-10.76a40.89,40.89,0,0,0-.23-32.46c-.94-2.21-1.69-5.59-4.7-5.23s-1.51,3.75-2.15,5.75c-.41,1.29-.41,2.69-.73,4-1,4.24-2.1,9.85-6.42,10.56-3.47.57-3.52-5.51-5.4-8.47-3.79-6-7.38-12-11.06-18.07C281.55,943.79,282.29,943.35,283.72,943.55Z"/>
        <path class="cls-119" d="M310,1027.47a2,2,0,0,1-2.54,2c-3.41-.65-5.32-2.7-5.34-6.05,0-1.36.71-3.29,2.16-2.8C307.64,1021.77,307.9,1025.54,310,1027.47Z"/>
        <path class="cls-120" d="M277.56,939.85a25.26,25.26,0,0,1-7.15-7.59c5,.63,6.61,3.69,8.87,5.85A1.86,1.86,0,0,1,277.56,939.85Z"/>
        <path class="cls-121" d="M277.56,939.85l1.72-1.74c1.74,1.62,4.68,2.36,4.43,5.45l-1.81,1.72Z"/>
        <path class="cls-122" d="M460.9,961.51c-7.49-4.36-16.18-6.81-22.64-12.79-2.9-2.68-7-5.57-5.93-9.45,1-3.63,6.2-3.69,9.81-4.45,4.35-.92,8.86-1.16,15.07-1.91-9.63-7-17.71-13.59-28.27-16-7.57-1.72-11.79-6.09-14.68-12.52q-5.89-13.11-12.31-26c-9.92-20-24.93-35.88-46.56-43.94-12.14-4.52-25.24-6.79-36.8-13.08-2-1.09-4.77-1.58-6.59.56s-.65,4.61.88,6.23c9.16,9.72,11.86,22.59,18.37,33.38,5.87,9.74,7.32,17.66,3.79,28.12-2.85,8.44-1.11,17.53,3,25.82.82,1.65,1.83,3.67,3.89,3.52,2.63-.2,1.84-2.78,2.14-4.38.89-4.67,1.23-9.45,4.33-13.5,2.45-3.21,4-4,6,.62a146.88,146.88,0,0,0,13.3,24.6c0,2.31-1.16,2.08-2.68,1.2-5.17-4.14-8.29-9.72-11.68-15.82-2.38,2-2.22,4.3-2.52,6.35-.52,3.53-1.5,6.86-5.7,7.76s-6.83-1.57-9-4.4c-7.61-10.11-8.77-21.66-5.94-33.16,2-8.24,2.23-14.7-2.64-22.66-7.09-11.58-9.91-25.35-19.64-35.86-2.94-3.17-3-7.66-.16-11.43a9.28,9.28,0,0,1,11.55-2.94c13.8,6.46,29.33,8.85,42.84,15.2,22.59,10.63,39.34,27.6,48.58,50.48,1.19,3,2.83,5.75,4.05,8.7,4.8,11.63,10.91,21.4,24.8,25.87,8.36,2.69,15.29,9.1,21.56,15.39,4.48,4.49,3.94,5.85-2.61,7.09-3.74.71-7.54,1.07-11.27,1.81-1.77.35-4.43.26-4.83,2.17-.48,2.28,2.05,3.41,3.83,4.4,6.62,3.69,12.88,7.76,17.75,13.51C464,962.39,462.72,962.47,460.9,961.51Z"/>
        <path class="cls-123" d="M347.7,846.74c-.23,1.55-.47,3.93-2.42,3.26-2.92-1-3.92-4.26-5.28-6.74-.84-1.54,1-2.45,2.48-2.15A6.29,6.29,0,0,1,347.7,846.74Z"/>
        <path class="cls-124" d="M365,927.55l2.68-1.2c2.9,1.14,3.83,3.72,5.62,7.11C369.31,931.89,366.84,930.13,365,927.55Z"/>
        <path class="cls-125" d="M460.9,961.51,464,960c2.28,1.53,4.61,3,5.06,6.81A16.14,16.14,0,0,1,460.9,961.51Z"/>
      </g>
      <g>
        <path class="cls-126" d="M330.48,1078.92c129.83.67,234.79,99.66,234.22,224.09-.56,122.94-105,222.56-236.13,221.78-129-.76-233.71-99.84-232.84-224.52C96.6,1177.79,200.46,1079.39,330.48,1078.92Z"/>
        <path class="cls-2" d="M421.26,1354.18H344.67c-20.69,0-37.71-16-37.91-35.74-.06-5.47-.1-11,0-16.42.05-2.2-.57-3-3.06-3q-45.75.11-91.51,0c-3,0-3,1.35-3,3.41q.23,40.48,27.11,71.84,28.69,33.51,73.46,40.87a167.81,167.81,0,0,0,17.93,1.72c2.44.14,3.07.83,3.06,3-.08,16.67,0,33.35-.08,50,0,4.74-.58,5.19-5.3,5-39.52-1.67-75.5-13-106.68-36.45-38.19-28.67-61.76-65.91-68.3-111.89-8.5-59.74,11-110.69,56.94-152,26.82-24.15,59.15-38.48,95.77-43.59,82.2-11.45,161.06,29.83,193.93,101.47a160,160,0,0,1,14.76,58.71c1.07,20.29-.86,40.17-6.83,59.71-.82,2.68-2,3.45-4.81,3.44C473.88,1354.14,447.57,1354.18,421.26,1354.18Z"/>
        <path class="cls-127" d="M301.4,1234c0,10.82-8.78,19.28-20,19.29-11.5,0-20.4-8.43-20.39-19.34s9.11-19.47,20.45-19.37C292.62,1214.66,301.41,1223.22,301.4,1234Z"/>
      </g>
      <text class="cls-128" transform="translate(661.33 575.03) scale(1.05 1)">A<tspan class="cls-129" x="107.58" y="0">pache</tspan></text>
      <text class="cls-128" transform="translate(275.49 239.63) scale(1.05 1)">L<tspan class="cls-129" x="93.57" y="0">inux</tspan></text>
      <text class="cls-128" transform="translate(498.07 982.07) scale(1.05 1)">M<tspan class="cls-129" x="127.8" y="0">ySQL</tspan></text>
      <text class="cls-128" transform="translate(595.45 1343.02) scale(1.05 1)">P<tspan class="cls-129" x="101.19" y="0">hp</tspan></text>
      <g>
        <path d="M329.81,290.53h3.53c.94.52,2,.12,3,.25,13.11.17,25.88,2.49,38.53,5.52a213.17,213.17,0,0,1,46,16.93,230.47,230.47,0,0,1,42,27.19,239.49,239.49,0,0,1,50.33,56.14A255.75,255.75,0,0,1,539,448.68,242,242,0,0,1,549.38,486a7.22,7.22,0,0,0,3.21,4.88q45.4,32,90.81,63.9c.9.64,3.05,1,1.45,2.94a4.39,4.39,0,0,1-1.73.28c-6.64-.17-13.26.44-19.88.47-16,.09-31.88.93-47.83,1.13-5.86.07-11.74.21-17.62.35-3.53.08-3.92.32-4.27,3.57a283.31,283.31,0,0,1-6.83,39.19,255.15,255.15,0,0,1-15.75,44.69,4.46,4.46,0,0,1-1.37,2,.79.79,0,0,1-1.13-.21c-.57-1-.17-2.07.06-3.1.23-.84.54-1.67.76-2.51a52.47,52.47,0,0,0,1.73-7.45c.09-.73.07-1.47.21-2.19a5,5,0,0,1,.17-.73,35.51,35.51,0,0,0,.9-5.89c.41-1.88.72-3.78,1-5.68a10.31,10.31,0,0,0,.29-3.53,19.85,19.85,0,0,1,.19-3.76,56.56,56.56,0,0,0,0-12.74,18.6,18.6,0,0,1-.21-3.74,8.75,8.75,0,0,0-.29-3.13c-.23-.9-.16-1.83-.31-2.74-.85-3.6-1.06-7.3-1.66-10.93-.38-1.46-.62-2.94-1-4.4a11.37,11.37,0,0,1-.28-1.44,35.74,35.74,0,0,0-1.32-4.81c-.16-.81-.42-1.6-.64-2.4a144.22,144.22,0,0,0-20.47-41.46c-2.41-3.37-4.85-6.71-7.4-10-.42-.55-.87-1.08-1.28-1.64-2.44-2.71-4.68-5.57-7.31-8.12-1-1.06-2.17-2-3.1-3.11a40.41,40.41,0,0,0-7.42-6.91c-.71-.69-1.43-1.39-2.17-2.06a14.92,14.92,0,0,0-2.74-2.3,15.78,15.78,0,0,1-1.69-1.47,7.94,7.94,0,0,0-1.7-1.37,16,16,0,0,1-1.58-1.17A219,219,0,0,0,444.71,471c-.52-.25-1-.5-1.55-.78a62.19,62.19,0,0,0-7.08-3.63c-2.68-1.36-5.51-2.41-8.14-3.87-5.34-2.4-10.8-4.52-16.33-6.49a8.42,8.42,0,0,0-2.65-.71,3.35,3.35,0,0,1-.64-.23,6.24,6.24,0,0,0-2.53-.77,3.61,3.61,0,0,1-.64-.25,23.05,23.05,0,0,0-3.31-1.17c-7.2-2.25-14.55-3.94-21.94-5.51a10.84,10.84,0,0,1-1.14-.23,27.46,27.46,0,0,0-4.15-.73,15.48,15.48,0,0,1-2.38-.22c-1.37-.5-3.08,0-4.15-1.36,0-1.72,1.24-2.91,2.09-4.25,1.44-2.29,1.26-3-1.27-4.3a44.5,44.5,0,0,0-10.7-3.44,168.69,168.69,0,0,0-26.85-3.69c-7.11-.79-14.24-.4-21.36-.47-2-.25-4,.64-6-.32-.38-1,.36-1.65,1-2.3,10.11-10.84,15.44-23.65,17.16-37.9,1.69-13.94-.07-27.5-6.29-40.27-7.51-15.41-18.92-26.9-37-31a42,42,0,0,0-25.64,2.41C238.06,325.68,228.89,337,222.77,351a67.81,67.81,0,0,0-5.61,27.83c.09,16.21,4.33,31.34,15,44.37,7.76,9.53,17.63,16.11,30.3,18.47a43.44,43.44,0,0,0,15.27,0,13.23,13.23,0,0,1,3.48-.46c2.32,1,3.2,3,3.89,5.17-1.73,1.58-4.08,1.94-6.22,2.22-5.36.72-10.33,2.72-15.54,3.88-2,.45-3.95,1.32-6,1.7a20.12,20.12,0,0,0-3,1c-1,.43-2.07.53-3,1A215.16,215.16,0,0,0,212.67,474c-6.25,3.72-12.26,7.78-18.15,12-.55.42-1.1.85-1.67,1.23-1.3,1.09-2.38,2.42-4,3.13-.62.48-1.15,1-1.8,1.49a14.86,14.86,0,0,0-2.8,2.35,28.52,28.52,0,0,1-2.28,2,58.79,58.79,0,0,0-8.76,8.43c-.85.87-1.77,1.68-2.62,2.54a17.14,17.14,0,0,0-2.27,2.33,10.61,10.61,0,0,1-1.25,1.45,8,8,0,0,0-1.45,1.65c-.38.56-.83,1.05-1.26,1.57a159.52,159.52,0,0,0-19.69,29.1,140.32,140.32,0,0,0-12.08,31.88,10.1,10.1,0,0,0-.54,2.82,5.81,5.81,0,0,1-.21,1.1,47.2,47.2,0,0,0-1.77,9.73,6.07,6.07,0,0,1-.19,1.14c-.48,1.22-.17,2.54-.5,3.79a10.23,10.23,0,0,0-.29,3.46,13.23,13.23,0,0,1-.2,2.84c-.59,2.17-.18,4.39-.3,6.58,0,.83,0,1.67,0,2.5.1,2.2-.28,4.42.29,6.6a12.93,12.93,0,0,1,.21,2.86,10.12,10.12,0,0,0,.32,3.54,62.54,62.54,0,0,0,1.51,10.17,19.77,19.77,0,0,0,.42,2.6,12.89,12.89,0,0,1,.28,1.44c4.19,20.3,12.93,38.76,25.19,55.75,3,4.14,6.3,8.06,9.62,12,.53.64,1.16,1.2,1.67,1.85.42,1.14,2.32,1.65,1.53,3.3-1.45,1.15-3.32.51-4.91,1.08a9.52,9.52,0,0,1-1.61.21c-2.21-.11-4.33.84-6.56.49-3.82-3.29-6.77-7.3-9.88-11.15a251.36,251.36,0,0,1-39.86-70.14,266.46,266.46,0,0,1-13.74-54c-.33-2.21-.56-4.44-.84-6.66-.21-1.69-1-2.58-2.92-2.5-9,.38-18-.42-27-.53-14.36-.17-28.71-.73-43.07-1l-16.11-.35a6.83,6.83,0,0,1-2.72-.34c-1.2-1.3.1-1.84.9-2.4C5.49,559,9.57,556,13.7,553.14c18.44-12.88,36.8-25.85,55.21-38.75,7.45-5.22,14.79-10.58,22.33-15.67a6.21,6.21,0,0,0,2.93-4.47,253,253,0,0,1,17-58.83,255.59,255.59,0,0,1,21.92-40.72,241.86,241.86,0,0,1,24.24-30.93,232.64,232.64,0,0,1,32.13-29A226.68,226.68,0,0,1,230.87,310,223.38,223.38,0,0,1,292.6,292a133.41,133.41,0,0,1,16.06-1.19c1-.12,2,.27,3-.25h.5c1.15.53,2.37.12,3.54.25h2.41c1-.13,2.12.27,3.13-.25h2.52c1,.52,2,.12,3,.25C327.79,290.66,328.84,291.05,329.81,290.53Z"/>
        <path class="cls-130" d="M491.32,710.69c17.78,2.84,35,7.41,50.8,15.85,7.17,3.82,13.74,8.37,18.9,14.51,11.05,13.13,10.28,27.69-1.89,39.93-8.49,8.55-19,14.05-30.27,18.46a175.73,175.73,0,0,1-37.2,9.69,224.79,224.79,0,0,1-24.5,2.46c-1.47.37-3,.08-4.45.17h-3.49c-1.24.14-2.52-.29-3.73.25H453c-1-.5-2.16-.13-3.23-.25h-7.63a175.3,175.3,0,0,1-68.86-14.48,72.89,72.89,0,0,1-21.31-13.46A47.68,47.68,0,0,1,342.88,773c-6.51-12.06-3.47-24,5.78-33.78,8.24-8.69,18.61-14.33,29.78-18.81,15.68-6.29,32.11-9.84,49-11.66a208.68,208.68,0,0,1,24.86-1.5c1.92,0,3.85-.07,5.77,0,2.57.15,5.15-.11,7.71.17a11.18,11.18,0,0,0,3.85.35,22.4,22.4,0,0,1,3.41.18,13.53,13.53,0,0,0,4.1.33c1.39-.07,2.7.54,4.09.47a10.76,10.76,0,0,1,2.08.2c1.76.44,3.6.31,5.37.7A4.73,4.73,0,0,1,491.32,710.69Z"/>
        <path class="cls-130" d="M180.85,811.62c-23-1.17-45.41-5-66.55-14.07C103,792.67,92.44,786.6,85,776.75c-8.62-11.36-8-24.66,1.43-35.48,7.24-8.33,16.55-13.92,26.65-18.42,13.89-6.19,28.59-9.9,43.69-12.21a33.32,33.32,0,0,1,6.51-.76,5,5,0,0,0,2.2.17c-.18.19-.52,0-.84-.29l5.26-.89c1.55-1.22,3.56-.27,5.21-1,4.8-.13,9.57-.82,14.39-.66,3.37,0,6.74-.06,10.1,0,24.86,1,49.15,4.59,72.14,14.17,9,3.75,17.41,8.44,24.5,14.94s12.13,14.14,12,23.95A23,23,0,0,1,305.17,772a44.15,44.15,0,0,1-9.74,12.21c-12.23,10.43-26.91,16.29-42.4,20.68a191.3,191.3,0,0,1-36,6.51,108,108,0,0,1-11.55.35h-4.27c-1.7.14-3.43-.29-5.11.25H190c-1.85-.53-3.75-.12-5.62-.25A17.86,17.86,0,0,1,180.85,811.62Z"/>
        <path class="cls-131" d="M184.42,811.58c1.86.11,3.79-.5,5.58.43h-5.55q-.24-.13-.17-.28T184.42,811.58Z"/>
        <path class="cls-132" d="M196.06,812c1.62-.92,3.38-.34,5.08-.43q.21.16.13.3t-.16.13Z"/>
        <path class="cls-133" d="M462.58,811.56l4.57,0a1.1,1.1,0,0,0-.05.42h-4.54q-.25-.16-.16-.31T462.58,811.56Z"/>
        <path class="cls-134" d="M201.1,812a2.7,2.7,0,0,1,0-.43l4.56,0a1.16,1.16,0,0,0-.05.42Z"/>
        <path class="cls-135" d="M441.86,812a1.22,1.22,0,0,0-.05-.42h4.06q.28.12.2.27c-.05.1-.11.16-.17.16Z"/>
        <path class="cls-136" d="M445.9,812a2.61,2.61,0,0,0,0-.43l4,0q.27.14.19.3c-.05.11-.11.16-.17.16Z"/>
        <path class="cls-137" d="M315.64,290.94c-1.16-.14-2.45.64-3.5-.4h3.53q.26.16.16.28A.26.26,0,0,1,315.64,290.94Z"/>
        <path class="cls-138" d="M184.42,811.58a2.72,2.72,0,0,1,0,.43h-3.53l-.07-.39Z"/>
        <path class="cls-139" d="M455.49,812c1.07-.91,2.36-.31,3.54-.47q.24.16.16.32T459,812Z"/>
        <path class="cls-140" d="M459,812q0-.24,0-.47l3.54,0a3.51,3.51,0,0,0,0,.45Z"/>
        <path class="cls-141" d="M326.83,291c-1,0-2.16.4-3.07-.43h3q.23.12.17.27T326.83,291Z"/>
        <path class="cls-142" d="M336.37,290.53q0,.21,0,.41c-1,0-2.13.42-3-.41Z"/>
        <path class="cls-143" d="M326.83,291a2.41,2.41,0,0,1,0-.43h3C328.94,291.48,327.82,290.83,326.83,291Z"/>
        <path class="cls-144" d="M321.23,290.53c-.91.83-2,.38-3.06.44q-.22-.16-.13-.3t.16-.14Z"/>
        <path class="cls-145" d="M308.61,290.95q0-.21,0-.41h3C310.75,291.47,309.63,290.87,308.61,290.95Z"/>
        <path class="cls-146" d="M449.94,812a4.05,4.05,0,0,0,0-.46c1,.11,2.15-.4,3.05.46Z"/>
        <path class="cls-147" d="M318.2,290.53a2.37,2.37,0,0,1,0,.44l-2.53,0a3.3,3.3,0,0,0,0-.4Z"/>
        <path class="cls-148" d="M458,707.85H452c-.24-1.08.53-1.82,1.06-2.59a170.11,170.11,0,0,0,28.53-73.84A173.67,173.67,0,0,0,476,558.57,166.94,166.94,0,0,0,462,525a161.5,161.5,0,0,0-22.27-31,159.31,159.31,0,0,0-43.91-34.07,155.21,155.21,0,0,0-25.19-10.35c-1.41-.45-3-.67-4-1.91a1.42,1.42,0,0,1,.82-1.89,9.33,9.33,0,0,1,4.78.4,6.08,6.08,0,0,0,2.51-.11,14.11,14.11,0,0,1,4.13.85.68.68,0,0,1-.61.24,2.62,2.62,0,0,0,1.53-.13,161.38,161.38,0,0,1,22.73,5.74c.74,1,2.16.68,3.09,1.35l0,0c.94.56,2.14.39,3.07,1l0,0a7.15,7.15,0,0,0,3,.65,143.76,143.76,0,0,1,16.67,6.63,28.19,28.19,0,0,0,8.07,3.91,35.21,35.21,0,0,1,7.28,3.66c.16.72.7.73,1.3.65a176,176,0,0,1,26.79,17.68c.28.61.63,1.14,1.46,1.09l1.6,1.3a2.13,2.13,0,0,0,1.7,1.41,10.74,10.74,0,0,1,2.84,2.44,3.3,3.3,0,0,0,2.22,1.88,66.5,66.5,0,0,1,7.38,7,6.47,6.47,0,0,0,3,3.12,66.4,66.4,0,0,1,7.44,8.22c-.07.79.51,1.11,1.12,1.41a148.7,148.7,0,0,1,23.64,39,101,101,0,0,1,4.53,12.85c-.36.91.16,1.63.58,2.37A17.29,17.29,0,0,1,530.6,575a2.66,2.66,0,0,0-.16,1.33c0,.52.07.12.16,0s.14,0,.2-.11a13.53,13.53,0,0,1,.94,4.42,121.89,121.89,0,0,0,1.72,12.49,148.48,148.48,0,0,1,.76,18.37c-.15,5-.64,10-1.28,15-.79,2.3-.64,4.75-1.19,7.1l0-.06a2.42,2.42,0,0,0-.15,2.38,33.45,33.45,0,0,1-1.91,7.78c-.46.71-1,1.4-.61,2.3l-.54,2.74c.19.9-.63,1.66-.39,2.57-4,8.94-7.56,18-12.48,26.57a165.63,165.63,0,0,1-18,25.24c-2.15,2.5-4.66,4.74-6.4,7.56l-8.22-1.27c.36-.44.87-.27,1.34-.3s-.19-.51,0-.23c-1.06.44-2.15.14-3.24.13a46.6,46.6,0,0,0-11.54-.71,9.43,9.43,0,0,1-3.71-.33c.4-.5,1-.18,1.57-.37C464.31,707.83,461.16,707.4,458,707.85Z"/>
        <path class="cls-2" d="M281.4,441.48c-18.71,4.38-34.06-1.4-46.69-14.45-10.44-10.79-15.78-23.85-17.55-38.33-1.92-15.61.48-30.52,8.16-44.49,6-10.88,14.35-19.66,26.32-24.78,15.85-6.78,31-4.88,44.9,4.65s21.69,23.27,25.05,39.07c4.15,19.47,1.34,38-9.52,55.26a71.93,71.93,0,0,1-8.09,10c-.57.9-1.57.8-2.46.93-4.39.64-8.81,1.14-13,2.62A23.16,23.16,0,0,0,284,434c-3.07,1.9-3.54,3.13-2.46,6.53A1,1,0,0,1,281.4,441.48Z"/>
        <path class="cls-148" d="M200.1,707.9l-10.62,0a48.84,48.84,0,0,0-11,.17c-2,.2-3.95,0-5.69.13.5.3,1.48-.35,2.17.3-1.66.6-3.4.34-5.11.42l-2.15-2.6a2.21,2.21,0,0,0-1.46-1.7,143.33,143.33,0,0,1-17-22.69A139,139,0,0,1,131,636.4a2.48,2.48,0,0,0,.16-1.33c0-.57-.09,0-.15,0a.49.49,0,0,0-.21.1,3.79,3.79,0,0,1-.45-2.57c0-3.43-.94-6.74-1.27-10.14a142.08,142.08,0,0,1,.26-31.16,6.25,6.25,0,0,0,0-1.43l.09-.94c.88-3.32,1.35-6.72,1.93-10.1l.13-1A3.87,3.87,0,0,0,132,575a140.28,140.28,0,0,1,17.22-41,153.43,153.43,0,0,1,12.86-18.08c.67-.81,1.42-1.55,2.13-2.32.65-.26,1.19-.6,1.15-1.38l1.37-1.5c.65-.26,1.19-.6,1.15-1.38a9,9,0,0,1,2.38-2.46,4.77,4.77,0,0,0,2.48-2.59,72.39,72.39,0,0,1,8.9-8.46,3.31,3.31,0,0,0,2.22-1.88,10.9,10.9,0,0,1,2.82-2.44,2.24,2.24,0,0,0,1.74-1.39l4.1-3.24c.82,0,1.17-.47,1.45-1.08a203.89,203.89,0,0,1,47.53-26.61c3.14-1.26,6.36-2.35,9.55-3.52a6.3,6.3,0,0,0,3.07-.73,8.3,8.3,0,0,0,3-1.2c6.49-2.24,13.17-3.88,19.85-5.51,2.62-.64,5.26-1.17,7.89-1.76.79.32,1.54.66.9,1.68-6.09,2.08-12.23,4-18.16,6.49a153.29,153.29,0,0,0-38.7,23.59,162.57,162.57,0,0,0-33.7,38.26,169.92,169.92,0,0,0-24.61,67.23A161.88,161.88,0,0,0,169,615.24c1.17,23,6.25,45.08,16.29,66.11a172.45,172.45,0,0,0,13.29,23.11C199.31,705.49,200.32,706.48,200.1,707.9Z"/>
        <path class="cls-2" d="M385.07,422.52c-17-.29-32.58-4.67-45.52-15.67C326.76,396,321.1,380,327.22,364.41a43.62,43.62,0,0,1,20.16-22.54c24.93-13.74,50.27-13.87,75.23-.24,11.87,6.48,20,16.2,22.45,29.45,1.91,10.52-.79,20.13-7.45,28.65-9.26,11.85-22.12,18.22-37,21.28A71.05,71.05,0,0,1,385.07,422.52Z"/>
        <path class="cls-130" d="M285.82,447.88l-1-1.44-3.47-5c-2.15-3.75-1.72-5.46,2.22-7.93,4.36-2.73,9.37-3.64,14.42-4.36,2-.28,4-.52,5.94-.78l5.66-.15c4.9.44,9.81.1,14.72.36,2.47.13,5,.68,7.46.14,12.16.82,24.19,2.35,35.74,6.3a14.23,14.23,0,0,1,1.59.72c3.61,1.75,3.74,2.27,1.54,5.5-.82,1.2-1.61,2.42-2.41,3.64.23.58-.17.81-.63,1a2.83,2.83,0,0,0-1,1.5c-.91,3.16-3.25,5.56-5.06,8.2-11.06,16.14-22,32.34-33.21,48.4-.19.27-.37.53-.56.8-1.62,2.19-2,2.23-3.5,0-6.46-9.16-12.69-18.47-19.05-27.69q-9.13-13.23-18.14-26.54C286.53,449.79,285.59,449.07,285.82,447.88Z"/>
        <path class="cls-149" d="M129.36,589.86c.92,2.14.19,4.36-.07,6.42-.5,4.06-.26,8.1-.36,12.14a99.21,99.21,0,0,0,1.91,22.69c.12.57.14,1.11-.46,1.48a34.15,34.15,0,0,1-1.52-10.34c-.47-1.16.1-2.42-.39-3.58a5.34,5.34,0,0,1-.09-2.61c-.58-2.3.13-4.68-.39-7v-2.42c.52-2.31-.19-4.68.39-7a5.47,5.47,0,0,1,.1-2.61c.48-1.15-.09-2.4.38-3.55C129,592.3,128.49,591,129.36,589.86Z"/>
        <path class="cls-150" d="M532.7,626.83a177.18,177.18,0,0,0,1-24.06c-.11-3.33-.33-6.67-.5-10-.3-.5-.42-.93.44-1l.12,2.58c.43,1,0,2.14.39,3.16a8.66,8.66,0,0,1,.1,3.57,84.33,84.33,0,0,1,0,13.5,8.59,8.59,0,0,1-.1,3.57c-.48,1.15.09,2.39-.38,3.54-.14,1.91-.1,3.86-1,5.64q-.24-.17-.18-.36T532.7,626.83Z"/>
        <path class="cls-151" d="M331.82,428.77c-2.92.91-6,.58-8.87.3-3.91-.37-7.8-.28-11.69-.37-.58,0-1.18.06-1.62-.43A156.43,156.43,0,0,1,331.82,428.77Z"/>
        <path class="cls-152" d="M131.38,578.83c0,3.47-.3,6.9-1.93,10.1A26.81,26.81,0,0,1,131.38,578.83Z"/>
        <path class="cls-150" d="M533.65,591.82l-.44,1c-.75-4-1.84-7.95-1.47-12.06,1.11,3.1,1,6.39,1.52,9.58C533.36,590.82,533.56,591.3,533.65,591.82Z"/>
        <path class="cls-153" d="M436.3,466.19c-1.71.62-2.72-.81-4-1.31a49.45,49.45,0,0,1-4.63-2.3s.05-.16.1-.18a3.65,3.65,0,0,1,.49-.11Z"/>
        <path class="cls-148" d="M534.26,614.63q0-6.75,0-13.5A45.59,45.59,0,0,1,534.26,614.63Z"/>
        <path class="cls-154" d="M532.7,626.83l0,.55c.07,2.13.23,4.28-1,6.23A17,17,0,0,1,532.7,626.83Z"/>
        <path class="cls-148" d="M128,609.09c.89,2.29.25,4.66.39,7A26.25,26.25,0,0,1,128,609.09Z"/>
        <path class="cls-148" d="M128.39,599.69c-.14,2.33.49,4.69-.39,7A26.31,26.31,0,0,1,128.39,599.69Z"/>
        <path class="cls-155" d="M367.64,445.92l.63-1c1.12,1,2.88-.2,4,1q.25.17.17.34t-.16.17C370.79,445.52,369.14,446.32,367.64,445.92Z"/>
        <path class="cls-156" d="M491.85,506.38a3.44,3.44,0,0,1-3-3.12Z"/>
        <path class="cls-156" d="M172.77,504.26a2.54,2.54,0,0,1-2.48,2.59Z"/>
        <path class="cls-157" d="M257.13,453.7c-.54,1.38-1.87,1.22-3,1.39q-.23-.15-.15-.3t.15-.15C255.09,454.28,256,453.62,257.13,453.7Z"/>
        <path class="cls-158" d="M254.1,454.64q0,.23,0,.45c-.94.52-1.82,1.32-3,.54Z"/>
        <path class="cls-159" d="M405.58,454.09c-1.21-.08-2.5,0-3.09-1.35C403.44,453.37,405,452.76,405.58,454.09Z"/>
        <path class="cls-160" d="M132,575a1.78,1.78,0,0,1-.51,2.85A6.61,6.61,0,0,1,132,575Z"/>
        <path class="cls-161" d="M481.48,496.28c-1.26-.08-2.28-.4-2.22-1.88Z"/>
        <path class="cls-162" d="M529.12,646c-1-1,.28-1.86.21-2.81,0-.11.26.33.4.51Z"/>
        <path class="cls-161" d="M183.89,493.92c.06,1.48-1,1.8-2.22,1.88Z"/>
        <path class="cls-149" d="M411.57,455.65c-1.22.71-2.11.06-3-.65A5.06,5.06,0,0,1,411.57,455.65Z"/>
        <path class="cls-163" d="M408.61,455a3.87,3.87,0,0,1-3.07-1C406.63,454.21,407.94,453.74,408.61,455Z"/>
        <path class="cls-164" d="M528.18,651.32c-.78-1,0-1.74.39-2.57l.55.61Z"/>
        <path class="cls-165" d="M529.16,570.22c-1-.6-1.36-1.36-.58-2.37Z"/>
        <path class="cls-148" d="M533.78,621.75c.07-1.19-.46-2.43.38-3.54A8,8,0,0,1,533.78,621.75Z"/>
        <path class="cls-148" d="M128.49,618.68c.85,1.12.31,2.38.39,3.58A8,8,0,0,1,128.49,618.68Z"/>
        <path class="cls-148" d="M128.87,593.53c-.06,1.19.46,2.44-.38,3.55A8,8,0,0,1,128.87,593.53Z"/>
        <path class="cls-148" d="M534.16,597.56c-.81-1-.3-2.1-.39-3.16A5.75,5.75,0,0,1,534.16,597.56Z"/>
        <path class="cls-166" d="M476.43,492c-.91-.1-2,0-1.7-1.41Z"/>
        <path class="cls-167" d="M166.27,704.57c1.49-.22,1.4.8,1.46,1.7Z"/>
        <path class="cls-161" d="M165.4,512.2c.38,1,.08,1.56-1.15,1.38Z"/>
        <path class="cls-168" d="M164.62,709.76l1.58.28c-1.28.32-2.15.51-2.94-.16Z"/>
        <path class="cls-169" d="M500.41,516c-1.17.1-1.55-.36-1.12-1.41Z"/>
        <path class="cls-162" d="M188.45,490.09c.27,1.42-.82,1.32-1.74,1.39Z"/>
        <path class="cls-169" d="M167.92,509.32c.38,1,.08,1.56-1.15,1.38Z"/>
        <path class="cls-169" d="M194,485.77c.17,1.16-.36,1.46-1.45,1.08Z"/>
        <path class="cls-169" d="M473.13,489.26c-1.09.37-1.63.07-1.46-1.09Z"/>
        <path class="cls-160" d="M530.8,576.28c-.09.21-.12.52-.28.6-.34.16-.3-.19-.31-.35,0-.53-.11-1.08.39-1.48Z"/>
        <path class="cls-170" d="M379.76,447c-.62.58-1.32.47-2.26.17l1.34-.28Z"/>
        <path class="cls-160" d="M130.84,635.16c.09-.21.12-.52.28-.6.34-.16.3.18.31.35,0,.53.12,1.08-.39,1.48Z"/>
        <path class="cls-171" d="M444.88,470.49c-.82.48-1.42.57-1.3-.65Z"/>
        <path class="cls-172" d="M372.23,446.44v-.51l2.49.13C374,446.74,373.06,446.34,372.23,446.44Z"/>
        <path class="cls-173" d="M531.64,635.93a1.53,1.53,0,0,1,.15-2.38Z"/>
        <path class="cls-2" d="M285.82,447.88l31.39,45.68,8.8,12.8c.66-.93,1.22-1.69,1.75-2.48L365,449.55c.5-.73,1.06-1.42,1.6-2.12,6.46,2.44,13.12,4.39,19.46,7.16A161.18,161.18,0,0,1,415,471a167.18,167.18,0,0,1,20,17.11,158,158,0,0,1,24.79,31.77,167.39,167.39,0,0,1,19.14,46.86,185.35,185.35,0,0,1,3.93,22.78,178,178,0,0,1,.94,21.24A172,172,0,0,1,462,692.11a167.18,167.18,0,0,1-10,15.74,255.13,255.13,0,0,0-31.87,2.47c-19.94,3-39.17,8-56.59,18.1A64,64,0,0,0,350,738.75c-9.27,9.37-13.43,21.32-6.27,34.43a3.8,3.8,0,0,1-3.16,1.16c-10.78,0-21.57.43-32.31-.92-1.31-.16-2.7-.19-3.69-1.24,7.08-14.6.88-26.49-8.92-35.43-8.83-8-19.49-13.23-30.77-17.34-18.58-6.76-37.92-10-57.73-11.08-2.35-.12-4.69-.29-7-.44a170.06,170.06,0,0,1-31.42-88.55c-.35-5.91-.51-11.81-.3-17.69a172.19,172.19,0,0,1,19.11-73.09,164.78,164.78,0,0,1,58-63.21,153.5,153.5,0,0,1,37.86-17A7,7,0,0,1,285.82,447.88Z"/>
        <path d="M304.56,772.18c11.91,1.78,23.91,1.59,35.91,1.3,1.09,0,2.17-.19,3.25-.3a51.37,51.37,0,0,0,8.26,10,202.83,202.83,0,0,1-43.69,1.59q-6.54-.41-13-1.17A51.09,51.09,0,0,0,304.56,772.18Z"/>
        <path class="cls-174" d="M469.64,708.32a23.78,23.78,0,0,1,11.59.55q.26.13.18.27c-.06.09-.11.14-.17.14-1.42.35-2.7-.37-4.06-.46-1.37-.48-2.85.09-4.23-.36Z"/>
        <path class="cls-175" d="M458,707.85c3.5-.93,7-.16,10.56-.06l-2.66.2Z"/>
        <path class="cls-148" d="M473,708.45c1.41.08,2.88-.48,4.23.36A10.16,10.16,0,0,1,473,708.45Z"/>
        <path class="cls-176" d="M481.24,709.27q0-.2,0-.4h3.5c-.44.77-1.15.33-1.63.56Z"/>
        <path class="cls-177" d="M175,708.45l-3.66-.17c5.6-.3,11.15-1.17,16.76-.86a1.79,1.79,0,0,1,1.38.43Z"/>
        <path class="cls-178" d="M315.6,386.47a1.44,1.44,0,0,1-.47,1.46c-.34.59-.77,1.17-.48,1.9-1.55,4.27-4.31,7.38-9.08,8.56a60,60,0,0,1-6.53-.48,6.34,6.34,0,0,1-3.13-1.8,3.28,3.28,0,0,0-2-1.91,7.31,7.31,0,0,1-2.12-3.36c-.51-3-1.69-6-1.17-9.15.3-1.82.95-3.52,1.36-5.29a10.9,10.9,0,0,1,7.47-7.22,30.85,30.85,0,0,1,6.19-.22c4.81,1,7.41,4.21,9,8.39-.31.6.13,1,.44,1.42.23.64.7,1.21.52,1.95A18.07,18.07,0,0,0,315.6,386.47Z"/>
        <path class="cls-179" d="M292,376.41c.77.7,0,1.36-.17,1.94a15.32,15.32,0,0,0,0,10.41c.21.62,1.09,1.4,0,2.09C289.54,387.45,289.59,379,292,376.41Z"/>
        <path class="cls-180" d="M299,397.92a20,20,0,0,1,6.53.48A9.74,9.74,0,0,1,299,397.92Z"/>
        <path class="cls-181" d="M305.67,369a21.33,21.33,0,0,1-6.19.22A7.88,7.88,0,0,1,305.67,369Z"/>
        <path class="cls-182" d="M315.6,386.47a8.21,8.21,0,0,1,0-5.72A16.38,16.38,0,0,1,315.6,386.47Z"/>
        <path class="cls-183" d="M293.95,394.21c1.39.17,1.87.64,2,1.91A5.67,5.67,0,0,1,293.95,394.21Z"/>
        <path class="cls-184" d="M314.65,389.84c-1-.9-.25-1.4.48-1.9A2.26,2.26,0,0,1,314.65,389.84Z"/>
        <path class="cls-184" d="M315.08,378.8c-1-.22-1.18-.7-.44-1.42A1.56,1.56,0,0,1,315.08,378.8Z"/>
        <path class="cls-178" d="M343,391.29a2.14,2.14,0,0,1-1.57.85,14.73,14.73,0,0,0-3.48,0,2.14,2.14,0,0,1-1.59-.85,2.07,2.07,0,0,0-1.5-1.39,8.82,8.82,0,0,1-2.43-6.33,3,3,0,0,0,0-2.37,2.53,2.53,0,0,1,.36-2.1c.34.27.49.56.16.93.45-.25.2-.66.17-1-.06-.77.84-1.37.37-2.18,0-1,1-1.28,1.47-1.94,4-3.11,6.12-3.13,9.06-.22a9.51,9.51,0,0,1,2.2,4.72c.18.69.29,1.4.43,2.1s-.1,1.7.28,2.5a9.12,9.12,0,0,1-2.42,5.81A2.4,2.4,0,0,0,343,391.29Z"/>
        <path class="cls-185" d="M346.46,381.69c-.88-1.46-.63-3.19-1.42-4.71-2.18-4.23-5.16-5-9.19-2.3a3.52,3.52,0,0,1-.93.3c1.86-3.49,6.35-3.49,8.94-1,2,1.89,2.58,4.28,3,6.76C346.63,381,346.83,381.47,346.46,381.69Z"/>
        <path class="cls-186" d="M333.45,376.91c1,1.16-.64,2.14,0,3.44-.85-.37-.51-.91-.73-1.24A4.11,4.11,0,0,1,333.45,376.91Z"/>
        <path class="cls-187" d="M337.91,392.16a3.63,3.63,0,0,1,3.48,0A4.37,4.37,0,0,1,337.91,392.16Z"/>
        <path class="cls-188" d="M334.82,389.92c1.2,0,1.46.22,1.5,1.39A2.63,2.63,0,0,1,334.82,389.92Z"/>
        <path class="cls-189" d="M343,391.29c-.15-1.1.33-1.59,1.51-1.41A2.62,2.62,0,0,1,343,391.29Z"/>
        <path class="cls-190" d="M346.46,381.69l.43-.95q0,1.66,0,3.32C346.17,383.37,346.58,382.48,346.46,381.69Z"/>
        <path class="cls-191" d="M332.39,381.22a1.65,1.65,0,0,1,0,2.37Z"/>
      </g>
    </g>
  </g>
</svg>
