<svg xmlns="http://www.w3.org/2000/svg" viewBox="0 0 255.99 371.66">
  <defs>
    <style>
      .cls-1 {
        fill: #f1f1f1;
      }

      .cls-2 {
        fill: #f8f8f8;
      }

      .cls-3 {
        fill: #d7d7d7;
      }

      .cls-4 {
        fill: #d8d8d8;
      }

      .cls-5 {
        fill: #dfdfdf;
      }

      .cls-6 {
        fill: #ececec;
      }

      .cls-7 {
        fill: #e2e2e2;
      }

      .cls-8 {
        fill: #dedede;
      }

      .cls-9 {
        fill: #f0f0f0;
      }

      .cls-10 {
        fill: #fefefe;
      }

      .cls-11 {
        fill: #d6d6d6;
      }

      .cls-12 {
        fill: #8bc54c;
      }

      .cls-13 {
        fill: #46483e;
      }

      .cls-14 {
        fill: #535a47;
      }

      .cls-15 {
        fill: #535947;
      }

      .cls-16 {
        fill: #555c48;
      }

      .cls-17 {
        fill: #585e4d;
      }

      .cls-18 {
        fill: #585f4c;
      }

      .cls-19 {
        fill: #4a4b42;
      }

      .cls-20 {
        fill: #44453d;
      }

      .cls-21 {
        fill: #575c4c;
      }

      .cls-22 {
        fill: #5f6357;
      }

      .cls-23 {
        fill: #add273;
      }

      .cls-24 {
        fill: #eaeaea;
      }

      .cls-25 {
        fill: #e9eae9;
      }

      .cls-26 {
        fill: #eaeae9;
      }

      .cls-27 {
        fill: #fbfbfa;
      }

      .cls-28 {
        fill: #8bc54d;
      }

      .cls-29 {
        fill: #fefefd;
      }

      .cls-30 {
        fill: #b2b2b2;
      }

      .cls-31 {
        fill: #e33137;
      }

      .cls-32 {
        fill: #b52f32;
      }

      .cls-33 {
        fill: #f4f5f6;
      }

      .cls-34 {
        fill: #e13238;
      }

      .cls-35 {
        fill: #b53033;
      }

      .cls-36 {
        fill: #80c464;
      }

      .cls-37 {
        fill: #412f1f;
      }

      .cls-38 {
        fill: #509647;
      }

      .cls-39 {
        fill: #4f9446;
      }

      .cls-40 {
        fill: #4c9144;
      }

      .cls-41 {
        fill: #529849;
      }

      .cls-42 {
        fill: #4a8f42;
      }

      .cls-43 {
        fill: #539a49;
      }

      .cls-44 {
        fill: #4e9245;
      }

      .cls-45 {
        fill: #5daa4f;
      }

      .cls-46 {
        fill: #5aa84d;
      }

      .cls-47 {
        fill: #57a74c;
      }

      .cls-48 {
        fill: #54a64a;
      }

      .cls-49 {
        fill: #60ab51;
      }

      .cls-50 {
        fill: #559b4b;
      }

      .cls-51 {
        fill: #68af56;
      }

      .cls-52 {
        fill: #65ad54;
      }

      .cls-53 {
        fill: #52a549;
      }

      .cls-54 {
        fill: #6bb059;
      }

      .cls-55 {
        fill: #70b25e;
      }

      .cls-56 {
        fill: #76b663;
      }

      .cls-57 {
        fill: #6eb15b;
      }

      .cls-58 {
        fill: #79b766;
      }

      .cls-59 {
        fill: #579d4c;
      }

      .cls-60 {
        fill: #73b461;
      }

      .cls-61 {
        fill: #7fba6c;
      }

      .cls-62 {
        fill: #50a447;
      }

      .cls-63 {
        fill: #63ac53;
      }

      .cls-64 {
        fill: #7cb969;
      }

      .cls-65 {
        fill: #83bd71;
      }

      .cls-66 {
        fill: #87bf75;
      }

      .cls-67 {
        fill: #88bf78;
      }

      .cls-68 {
        fill: #b7b598;
      }

      .cls-69 {
        fill: #a2a680;
      }

      .cls-70 {
        fill: #bbb99e;
      }

      .cls-71 {
        fill: #cecbb5;
      }

      .cls-72 {
        fill: #d5d2c2;
      }

      .cls-73 {
        fill: #414141;
      }

      .cls-74 {
        font-size: 23.11px;
        fill: #e5e5e5;
        font-family: CenturyGothic, Century Gothic;
      }

      .cls-75 {
        fill: #919191;
        letter-spacing: 0em;
      }

      .cls-76 {
        font-size: 27.01px;
      }

      .cls-76, .cls-78 {
        font-family: CopperplateGothic-Bold, Copperplate Gothic Bold;
      }

      .cls-77 {
        font-size: 20.43px;
      }

      .cls-77, .cls-79 {
        font-family: Consolas, Consolas;
        opacity: 0.63;
      }

      .cls-78 {
        font-size: 25.67px;
      }

      .cls-79 {
        font-size: 19.41px;
      }
    </style>
  </defs>
  <title>meanlogo</title>
  <g id="Layer_2" data-name="Layer 2">
    <g id="Layer_1-2" data-name="Layer 1">
      <g>
        <path class="cls-1" d="M193,370.5c-4.51-1.16-9-2.5-13.53-3.5-4-.88-7.89-2.11-11.83-3.19-1.35-.37-2.71-.71-4.05-1.11a6,6,0,0,1-4.39-5.28c-.55-4-.53-8.08-1.2-12.05-.48-2.85-.82-5.68-1.05-8.55-.27-3.4-.65-6.79-1-10.19-.45-4.53-.92-9.05-1.34-13.58-.29-3.06-.5-6.13-.78-9.19-.44-4.76-.91-9.51-1.35-14.27-.27-2.83-.5-5.67-.76-8.5-.68-7.48-.2-15-.37-22.47a19.83,19.83,0,0,1,.72-5.4c.37-.35.16-1.38,1.19-.95a1.16,1.16,0,0,1,.07.81c-.87,1.77-.67,3.71-1,5.58a166.33,166.33,0,0,0,0,16.74,11.25,11.25,0,0,1,.16,2.41,6.38,6.38,0,0,0,.19,2.24,7.77,7.77,0,0,1,.15,1.66,6,6,0,0,0,.21,2.15,7.68,7.68,0,0,1,.14,1.64,6,6,0,0,0,.21,2.14,7.59,7.59,0,0,1,.14,1.63,6,6,0,0,0,.2,2.13,5.07,5.07,0,0,1,.14,1.09,11.24,11.24,0,0,0,.21,3,4.88,4.88,0,0,1,.15,1.09,9.44,9.44,0,0,0,.21,2.7,4.93,4.93,0,0,1,.14,1.09,9.39,9.39,0,0,0,.21,2.7,4.94,4.94,0,0,1,.14,1.09,9.29,9.29,0,0,0,.21,2.7,5,5,0,0,1,.14,1.1,11.36,11.36,0,0,0,.2,3,4.87,4.87,0,0,1,.15,1.1,9.45,9.45,0,0,0,.21,2.7,4.93,4.93,0,0,1,.14,1.09,9.39,9.39,0,0,0,.21,2.7,4.93,4.93,0,0,1,.14,1.09,9.39,9.39,0,0,0,.21,2.7,4.93,4.93,0,0,1,.14,1.09,9.38,9.38,0,0,0,.21,2.7,4.94,4.94,0,0,1,.14,1.09,9.27,9.27,0,0,0,.21,2.7,5.2,5.2,0,0,1,.14,1.09,11.34,11.34,0,0,0,.2,3,5.14,5.14,0,0,1,.14,1.07c.05.95-.18,1.95.49,2.8a2.94,2.94,0,0,1,.23,1.09,8.74,8.74,0,0,0,.27,2.84c.74,4.73.79,9.54,1.47,14.27a8.3,8.3,0,0,0,.16,1.86,8.1,8.1,0,0,0,.37,1.17,3.68,3.68,0,0,0,2.29,2.32c7.3,2.16,14.71,3.9,22.05,5.89,2.94.8,5.92,1.43,8.83,2.3,2.71.81,5.49.3,8.23.47a1.34,1.34,0,0,1,1.08.51,4.65,4.65,0,0,1-2.82.78A20.14,20.14,0,0,1,193,370.5Z"/>
        <path class="cls-2" d="M193,370.5c2.3.24,4.54.91,6.9.7a10.24,10.24,0,0,0,3.33-.7c.54-.85,1.51-.82,2.33-1,6.44-1.71,12.91-3.34,19.33-5.1,2.9-1.11,6-1.61,8.92-2.57.16-.07.32-.14.48-.19a6.25,6.25,0,0,0,3.12-2.84c1-3.14,1-6.43,1.28-9.66.48-4.71.88-9.43,1.34-14.15.3-3.12.52-6.26.82-9.38.43-4.54.81-9.09,1.3-13.63.3-2.78.6-5.57.72-8.36.15-3.37.86-6.65,1.25-10,.37-3.18.52-6.37.93-9.54,1.09-8.49.65-17,.76-25.54,0-1.36-.76-2.69-.11-4.06l.23-.23a5.65,5.65,0,0,1,.71,3.1c0,6.65.16,13.3-.06,19.94-.15,4.48-.85,8.94-1.29,13.41-.28,2.83-.52,5.67-.77,8.5-.3,3.38-1.08,6.69-1.18,10.1-.09,3.23-.62,6.45-.94,9.67q-.69,7-1.36,14.09c-.28,3-.44,6-.78,9-.6,5.37-.63,10.79-1.7,16.11a5.77,5.77,0,0,1-4.48,4.75c-7.5,2-15,3.91-22.52,5.87-3.27.85-6.5,1.93-9.83,2.52A13.77,13.77,0,0,1,193,370.5Z"/>
        <path class="cls-2" d="M153.15,252.18l-1.06,1a3.32,3.32,0,0,1,2.48-2.79,14.79,14.79,0,0,1,5.48-1h77.55a14.71,14.71,0,0,1,5.46,1.1c1.65.66,2.87,1.78,2.87,3.72h0c-.66.1-.91-.45-1.29-.79-2-2.5-4.84-2.84-7.76-2.84q-36.63,0-73.25,0a52.13,52.13,0,0,0-6.14.27C155.93,251.06,154.64,251.9,153.15,252.18Z"/>
        <path class="cls-3" d="M152.1,278v-2.4a40,40,0,0,1-.15-6.81,99.51,99.51,0,0,1,.15-10.4c0-1.89-.26-3.85,1.05-5.51.31-.39.61-.62.93,0a2.2,2.2,0,0,1-.27,1.4,6.79,6.79,0,0,0-.34,1.84,4.07,4.07,0,0,1-.13.49c-.14.43-.21.88-.35,1.31,0,6.15-.23,12.3.12,18.45.14.5.27,1,.42,1.51.67,7.35,1.32,14.7,2,22,.79,8.49,1.26,17,2.44,25.45,1.38,9.87,1.87,19.8,3,29.68a15.28,15.28,0,0,0,.2,2.51,5.59,5.59,0,0,1,.29,1.56c-.25.7-.57.49-.92.08-.4-.25-.33-.66-.34-1-.41-.52.09-1.21-.35-1.72l-1.41-14.79c-.46-.88.13-1.88-.35-2.75v-1c-.75-.79.06-2-.7-2.76v-1c-.46-1,.13-2.1-.35-3.1v-1c-.46-.88.13-1.88-.35-2.75v-1c-.46-.88.13-1.88-.35-2.75v-1c-.46-.88.13-1.88-.35-2.75v-1c-.46-.88.13-1.88-.35-2.75v-1c-.46-.88.13-1.88-.35-2.75v-1c-.46-1,.13-2.1-.35-3.1v-1c-.46-.88.13-1.88-.35-2.75v-1c-.46-.88.13-1.88-.35-2.75v-1c-.46-.88.13-1.88-.35-2.75v-1c-.46-1,.13-2.1-.35-3.1v-1c-.43-.64.1-1.43-.34-2.07v-1.72c-.43-.64.1-1.43-.34-2.07v-1.72c-.43-.64.1-1.43-.34-2.07V280C152,279.4,152.55,278.61,152.1,278Z"/>
        <path class="cls-4" d="M202.19,370.5c-5.86.59-11.3-1.24-16.82-2.72-7-1.89-14.08-3.68-21.12-5.54a3,3,0,0,1-1.58-.66c0-.73.59-.66,1.07-.74,6.61,1.59,13.15,3.41,19.73,5.11,4,1,7.93,2.09,11.92,3.07a15.31,15.31,0,0,0,7.83-.2c9.82-2.74,19.76-5,29.56-7.86a3.9,3.9,0,0,1,1-.15c.45.05,1,0,1.14.53s-.48.33-.66.58h0c-3.39,1.06-6.9,1.7-10.23,2.93C216.77,366.71,209.5,368.7,202.19,370.5Z"/>
        <path class="cls-5" d="M153.86,252.87c-.24-.38-.48,0-.71,0v-.68c1.81-1.95,4.35-2,6.66-2q39-.13,78.06,0c2.86,0,5.77.49,7.36,3.39a1.11,1.11,0,0,1,.17.88c-.61.65-.71-.53-1.2-.32a1.13,1.13,0,0,1-.65-.22,4.67,4.67,0,0,0-2.49-1.69c-.38-.08-1-.16-.71-.84a57.19,57.19,0,0,0-7.4-.44q-30.9,0-61.8,0a130.33,130.33,0,0,0-14,.37c-.71.32-1.8-.06-2.09,1.07C154.75,252.83,154.41,253.09,153.86,252.87Z"/>
        <path class="cls-6" d="M202.19,370.5a84.9,84.9,0,0,1,9-2.6c4.25-1.21,8.57-2.17,12.86-3.24a.89.89,0,0,1,1.06,0c-2.62,1.12-5.46,1.53-8.18,2.32-4.52,1.32-9.12,2.37-13.69,3.53Z"/>
        <path class="cls-7" d="M152.09,258.37q0,8.6,0,17.2c-.43-.34-.34-.82-.34-1.26q0-7.34,0-14.68C151.75,259.18,151.66,258.71,152.09,258.37Z"/>
        <path class="cls-8" d="M163.75,361.21c-.39,0-.82-.05-1.08.36a2.87,2.87,0,0,1-2.12-2.41c.24,0,.49.38.72,0A4.56,4.56,0,0,1,163.75,361.21Z"/>
        <path class="cls-7" d="M157.39,335.07c1.41.64.41,1.85.7,2.76C156.69,337.19,157.68,336,157.39,335.07Z"/>
        <path class="cls-7" d="M157,330.95c.7,1,.2,2.07.35,3.1C156.7,333.07,157.18,332,157,330.95Z"/>
        <path class="cls-7" d="M153.51,292.42c.7,1,.2,2.07.35,3.1C153.17,294.55,153.66,293.45,153.51,292.42Z"/>
        <path class="cls-7" d="M154.92,307.9c.7,1,.2,2.07.35,3.1C154.58,310,155.07,308.93,154.92,307.9Z"/>
        <path class="cls-7" d="M153.86,296.55c.7.85.2,1.84.35,2.75C153.52,298.46,154,297.46,153.86,296.55Z"/>
        <path class="cls-7" d="M154.22,300.33c.7.85.2,1.84.35,2.75C153.87,302.24,154.36,301.25,154.22,300.33Z"/>
        <path class="cls-7" d="M154.57,304.12c.7.85.2,1.84.35,2.75C154.23,306,154.71,305,154.57,304.12Z"/>
        <path class="cls-7" d="M155.27,312c.7.85.2,1.84.35,2.75C154.93,313.93,155.42,312.94,155.27,312Z"/>
        <path class="cls-7" d="M158.1,338.86c.7.85.2,1.84.35,2.75C157.75,340.76,158.24,339.77,158.1,338.86Z"/>
        <path class="cls-7" d="M155.63,315.81c.7.85.2,1.84.35,2.75C155.28,317.72,155.77,316.73,155.63,315.81Z"/>
        <path class="cls-7" d="M156,319.6c.7.85.2,1.84.35,2.75C155.64,321.5,156.12,320.51,156,319.6Z"/>
        <path class="cls-7" d="M156.33,323.38c.7.85.2,1.84.35,2.75C156,325.28,156.48,324.29,156.33,323.38Z"/>
        <path class="cls-7" d="M156.68,327.16c.7.85.2,1.84.35,2.75C156.34,329.07,156.83,328.08,156.68,327.16Z"/>
        <path class="cls-7" d="M152.81,285.54c.63.61.24,1.38.34,2.07C152.53,287,152.91,286.23,152.81,285.54Z"/>
        <path class="cls-7" d="M152.45,281.76c.63.61.24,1.38.34,2.07C152.17,283.22,152.56,282.45,152.45,281.76Z"/>
        <path class="cls-7" d="M152.1,278c.63.61.24,1.38.34,2.07C151.82,279.43,152.21,278.67,152.1,278Z"/>
        <path class="cls-7" d="M153.16,289.33c.63.61.24,1.38.34,2.07C152.88,290.78,153.26,290,153.16,289.33Z"/>
        <path class="cls-8" d="M159.86,356.4c.59.48.27,1.14.35,1.72C159.63,357.64,159.93,357,159.86,356.4Z"/>
        <path class="cls-9" d="M245.23,254.59v-1l.71.69c.65,6.45.29,12.92.34,19.39,0,5.42-.85,10.78-1.36,16.16-.12,1.25-.13,2.49-.29,3.75-.58,4.65-1.29,9.29-1.57,14-.34,5.62-1.15,11.2-1.67,16.81-.42,4.54-.69,9.09-1.1,13.62s-1,8.94-1.33,13.42a55.44,55.44,0,0,1-.75,6.61,2.26,2.26,0,0,1-.73,1.5,1.18,1.18,0,0,1-.4-.73,3.56,3.56,0,0,1,.37-2.16,6.1,6.1,0,0,0,.27-2.62,6.22,6.22,0,0,1,.14-1.36,7.21,7.21,0,0,0,.21-2.43,7.71,7.71,0,0,1,.13-1.66,7.21,7.21,0,0,0,.22-2.44,6.27,6.27,0,0,1,.14-1.37,7.22,7.22,0,0,0,.22-2.42,6.24,6.24,0,0,1,.14-1.37,7.23,7.23,0,0,0,.22-2.42,6.24,6.24,0,0,1,.14-1.37,7.25,7.25,0,0,0,.22-2.42,6.3,6.3,0,0,1,.14-1.37,7.28,7.28,0,0,0,.21-2.45,7.86,7.86,0,0,1,.14-1.7,8.09,8.09,0,0,0,.2-2.6c.66-5.73,1.09-11.47,1.66-17.21.31-3.12.64-6.25.79-9.39.06-1.32.44-2.6.46-3.91a7.29,7.29,0,0,0,.28-2.58,3.56,3.56,0,0,1,.22-1.38,3.69,3.69,0,0,0,.5-2.52,6,6,0,0,1,.14-1.35,8.65,8.65,0,0,0,.21-2.71,5.92,5.92,0,0,1,.14-1.38,7.34,7.34,0,0,0,.22-2.45,6.26,6.26,0,0,1,.14-1.42,7.05,7.05,0,0,0,.18-2.35q0-9.65,0-19.29a12.21,12.21,0,0,0-.28-2.88A1.5,1.5,0,0,1,245.23,254.59Z"/>
        <path class="cls-8" d="M225.12,364.66h-1.06a64.17,64.17,0,0,1,10.23-2.75c-1.44,1.07-3.25,1-4.87,1.51C228,363.87,226.56,364.25,225.12,364.66Z"/>
        <path class="cls-8" d="M237.47,358.81v.69c-.92,1-1.54,2.32-3.17,2.41l.4-.53-.77-.17a19,19,0,0,1,2.75-2.82C237,358.44,236.84,359.31,237.47,358.81Z"/>
        <path class="cls-10" d="M236.76,358.45a5.16,5.16,0,0,1-2.83,2.76c-3.56.94-7.11,1.9-10.67,2.83-7.06,1.85-14.12,3.7-21.19,5.5a12.84,12.84,0,0,1-6.27,0c-8.67-2.18-17.3-4.5-25.95-6.77l-6.09-1.6a5.62,5.62,0,0,1-2.48-2.07l-.37-1.37c-.43-.77.11-1.66-.33-2.42a25.21,25.21,0,0,1-.64-5.59c-.46-5-.85-10-1.43-15-.24-2,0-4.17-.46-6.13a53.5,53.5,0,0,1-1.06-8.38c-.3-3.23-.66-6.45-1-9.67-.46-4.7-1-9.39-1.34-14.1-.22-2.78-.55-5.56-.72-8.33-.22-3.53-.88-7-.79-10.57a9.63,9.63,0,0,1-.35-3q0-7.63,0-15.26a9.64,9.64,0,0,1,.35-3h0c.47-.64-.08-1.43.35-2.08l.36-1.36,1-.69a3.08,3.08,0,0,1,1.94-1,70.61,70.61,0,0,1,9.13-.38q34.86,0,69.72,0c1.54,0,3.16-.21,4.58.68,1.41.48,3.06.61,3.54,2.4.49.51.53,1.27,1,1.78a3.64,3.64,0,0,1,.38,1.7q0,10.05,0,20.1c0,2.63-.77,5.17-1,7.78-.29,3.64-.71,7.28-1.13,10.91-.55,4.7-.93,9.41-1.34,14.12-.38,4.43-.77,8.86-1.19,13.29s-.77,9-1.25,13.46c-.33,3.06-.56,6.14-.84,9.21s-.46,6.37-.89,9.54a6,6,0,0,0-.55,2.21A.85.85,0,0,1,236.76,358.45Z"/>
        <path class="cls-10" d="M153.15,256.3q0,10.67,0,21.33c-.4-.25-.31-.66-.34-1a3.45,3.45,0,0,1-.17-1.85q0-7.87,0-15.75a3,3,0,0,1,.17-1.67C152.84,257,152.75,256.56,153.15,256.3Z"/>
        <path class="cls-11" d="M152.81,257.33q0,9.64,0,19.27c-.44-.33-.36-.81-.36-1.26q0-8.38,0-16.76C152.45,258.14,152.36,257.66,152.81,257.33Z"/>
        <path class="cls-8" d="M160.58,355.35c.63.74.2,1.62.33,2.42C160.24,357,160.69,356.16,160.58,355.35Z"/>
        <path class="cls-10" d="M153.5,254.23c-.11.69.3,1.47-.35,2.08C153.29,255.62,152.91,254.84,153.5,254.23Z"/>
        <path class="cls-11" d="M240.27,251.5a8.69,8.69,0,0,0-2.59-.35q-38.76,0-77.52,0c-1.28,0-2.56.21-3.83.32q-.18-.12-.12-.23t.12-.12a17.1,17.1,0,0,1,5.31-.65q37.18-.07,74.37,0a23.58,23.58,0,0,1,5.8.72C241.27,251.68,240.73,251.39,240.27,251.5Z"/>
        <path class="cls-3" d="M156.33,251.15v.35c-.49.19-.82.72-1.42.67-.28,0-.68-.12-.31-.46A2.25,2.25,0,0,1,156.33,251.15Z"/>
        <path class="cls-6" d="M244.52,255.62c-1.12-.23-.55-1.12-.71-1.72h.7a2.29,2.29,0,0,1,.29,1.27A.81.81,0,0,1,244.52,255.62Z"/>
        <path class="cls-11" d="M244.53,255.28l0-1.37c.64-.17.26.67.71.68v1C244.82,255.83,244.73,255.46,244.53,255.28Z"/>
        <path class="cls-3" d="M244.53,255.28l.69.34a8.56,8.56,0,0,1,.38,2.69c0,6.67,0,13.35,0,20-.45.63.09,1.43-.35,2.07v1.37c-.47.75.1,1.65-.35,2.41v1.37c-.48.87.11,1.88-.35,2.75v1.37c-.71.67,0,1.74-.7,2.41v1.37c-.47.75.1,1.65-.35,2.41-.45,4.82-.93,9.63-1.34,14.45-.22,2.61-.41,5.22-.73,7.82-.36,2.88-.51,5.79-.76,8.68-.48.76.1,1.65-.35,2.41v1.71c-.47.76.1,1.65-.35,2.41v1.37c-.48.76.1,1.65-.35,2.41v1.37c-.48.76.1,1.65-.35,2.41v1.37c-.48.76.1,1.65-.35,2.41v1.37c-.48.76.1,1.65-.35,2.41v1.71c-.47.76.1,1.65-.35,2.41V354c-.49.87.11,1.88-.35,2.75a3.49,3.49,0,0,0-.36,2.06l-.54.4-.17-.76a2.76,2.76,0,0,1,0-.33c.43-.65-.08-1.43.33-2.08.63-1.75.48-3.61.63-5.41q.82-9.51,1.8-19c.47-4.52.69-9.07,1.1-13.6.53-5.71,1.16-11.41,1.71-17.12.29-3.06.5-6.12.75-9.18s.15-6,.84-8.81c.43-1.77.35-3.58.94-5.29a1.17,1.17,0,0,0,.19-.81q0-9.51,0-19a1.17,1.17,0,0,0-.19-.81,2.34,2.34,0,0,0-.35-1.37Z"/>
        <path class="cls-7" d="M243.82,292.08c.22-.81-.58-1.9.7-2.41C244.28,290.47,245.13,291.57,243.82,292.08Z"/>
        <path class="cls-7" d="M244.53,288.3c.14-.91-.35-1.91.35-2.75C244.73,286.46,245.22,287.45,244.53,288.3Z"/>
        <path class="cls-8" d="M237.83,356.75c.15-.91-.35-1.91.35-2.75C238,354.91,238.52,355.9,237.83,356.75Z"/>
        <path class="cls-7" d="M244.88,284.17c.13-.8-.32-1.68.35-2.41C245.1,282.56,245.54,283.44,244.88,284.17Z"/>
        <path class="cls-8" d="M239.24,340.93c.13-.8-.33-1.69.35-2.41C239.46,339.32,239.9,340.2,239.24,340.93Z"/>
        <path class="cls-8" d="M239.95,333.36c.13-.8-.33-1.69.35-2.41C240.17,331.75,240.6,332.63,239.95,333.36Z"/>
        <path class="cls-8" d="M239.59,337.14c.13-.8-.33-1.69.35-2.41C239.82,335.53,240.25,336.41,239.59,337.14Z"/>
        <path class="cls-8" d="M238.89,344.71c.13-.8-.33-1.69.35-2.41C239.11,343.1,239.55,344,238.89,344.71Z"/>
        <path class="cls-8" d="M240.3,329.23c.13-.8-.33-1.69.35-2.41C240.52,327.62,241,328.5,240.3,329.23Z"/>
        <path class="cls-8" d="M238.18,352.62c.13-.8-.33-1.69.35-2.41C238.41,351,238.84,351.89,238.18,352.62Z"/>
        <path class="cls-7" d="M243.47,295.87c.13-.8-.32-1.68.35-2.41C243.69,294.26,244.13,295.14,243.47,295.87Z"/>
        <path class="cls-8" d="M238.53,348.5c.13-.8-.33-1.69.35-2.41C238.76,346.88,239.19,347.77,238.53,348.5Z"/>
        <path class="cls-7" d="M245.23,280.39c.11-.69-.29-1.46.35-2.07C245.48,279,245.86,279.78,245.23,280.39Z"/>
        <path class="cls-12" d="M198.86,279.33c12.7,0,25.4,0,38.1,0,1.61,0,1.88.34,1.72,1.92-1.08,10.89-2,21.79-3,32.69-.71,7.87-1.11,15.79-2.26,23.6-.86,5.83-1.12,11.7-1.87,17.53a1.61,1.61,0,0,1-1.38,1.63q-15.15,3.91-30.29,7.88a4.93,4.93,0,0,1-2.6,0q-13.85-3.68-27.71-7.32c-3.61-1-3.65-1-4-4.57-1.13-12.32-2.21-24.65-3.33-37-1-11.58-2.09-23.16-3.21-34.74-.13-1.36.21-1.61,1.52-1.6C173.34,279.35,186.1,279.33,198.86,279.33Z"/>
        <path class="cls-13" d="M174.34,264.72c0-2.07,0-3.64,0-5.22,0-.79.23-1.07,1.09-1.12,4.18-.25,4.18-.28,4.18,3.8,0,3,0,6.08,0,9.11,0,1.08-.26,1.42-1.43,1.53-2.32.23-4-.36-5.3-2.38a47.13,47.13,0,0,0-3.5-4.3c0,2.08-.07,3.7,0,5.31.06,1.09-.35,1.33-1.41,1.34-3.86,0-3.86.07-3.86-3.74,0-3.1,0-6.19,0-9.29,0-1,.23-1.32,1.35-1.42,2.57-.24,4.51.37,5.86,2.68A32.63,32.63,0,0,0,174.34,264.72Z"/>
        <path class="cls-13" d="M202.2,265.54c0-2,0-4,0-6,0-.76.15-1.17,1.06-1.14,2.75.1,5.51-.17,8.25.43a6.47,6.47,0,0,1,5.49,6.6,6.68,6.68,0,0,1-5.26,6.83c-2.84.73-5.71.46-8.58.55-1,0-1-.58-.95-1.24C202.21,269.55,202.2,267.55,202.2,265.54Z"/>
        <path class="cls-13" d="M219.52,265.58c0-2,0-4,0-6,0-.91.29-1.19,1.21-1.18,3.47,0,6.94.06,10.4,0,1.12,0,1.48.35,1.36,1.38a7.35,7.35,0,0,0,0,1.55c.08.85-.33,1.09-1.14,1.08-1.76,0-3.53,0-5.29,0-.52,0-1.27-.27-1.29.68s.68.75,1.23.76c1.59,0,3.18.08,4.76,0,1.36-.08,1.24.77,1.13,1.54s.66,2-1.07,1.95-3.29,0-4.94,0c-.5,0-1.08-.13-1.13.69s.58.82,1.17.82c1.76,0,3.53.06,5.29,0,1.11-.05,1.48.35,1.36,1.38a7.36,7.36,0,0,0,0,1.55c.08.83-.28,1.09-1.11,1.08-3.59,0-7.17,0-10.76,0-1,0-1.2-.34-1.18-1.21C219.55,269.59,219.52,267.58,219.52,265.58Z"/>
        <path class="cls-11" d="M244.87,257c.5.39.35.93.36,1.43q0,8.89,0,17.79c0,.5.14,1-.36,1.43Q244.87,267.31,244.87,257Z"/>
        <path class="cls-14" d="M183.17,261.82c.69-1.38,2.29-1.56,3.37-2.43a8.41,8.41,0,0,1,1.51-.78.73.73,0,0,1,.2.81,5.84,5.84,0,0,1-2.33,1.78,2.94,2.94,0,0,0-1.58,3,36,36,0,0,1,0,3.61c0,.6.1,1.3-.66,1.64-.68-.73-.26-1.6-.33-2.4C183.2,265.3,183.51,263.55,183.17,261.82Z"/>
        <path class="cls-15" d="M195.91,271.12c-.74.78-1.84,1-2.68,1.66-1.95,1.56-2.64,1.51-4.81.06-.12-.32.08-.47.33-.59a5.75,5.75,0,0,0,5-1.07,2.22,2.22,0,0,1,1.47-.42A.94.94,0,0,1,195.91,271.12Z"/>
        <path class="cls-16" d="M188.08,259.37l0-.76,1.74-.95a2.23,2.23,0,0,1,1.76,0l4.32,2.35c.14.31,0,.46-.28.59-1.18.24-2-.58-2.82-1.09-1.28-.75-2.5-1.17-3.87-.23A.72.72,0,0,1,188.08,259.37Z"/>
        <path class="cls-17" d="M195.41,260.48l.46-.44c.9.47,2,.63,2.45,1.77-.4,2-.06,4.06-.2,6.09,0,.52.29,1.15-.35,1.55-.65-.31-.6-.92-.65-1.48a9.72,9.72,0,0,1,0-2.05A6.27,6.27,0,0,0,195.41,260.48Z"/>
        <path class="cls-18" d="M188.88,272.42l-.46.43-4.57-2.47c-.11-.41.09-.64.46-.77C185.92,270.41,187.9,270.64,188.88,272.42Z"/>
        <path class="cls-19" d="M184.2,269.74l-.35.64c-.7-.21-.79-.79-.79-1.36,0-2.4.07-4.8.1-7.19.73,1.73.13,3.54.33,5.3.09.76-.29,1.58.33,2.26A.41.41,0,0,1,184.2,269.74Z"/>
        <path class="cls-20" d="M197.65,269.39c.67-1.8.13-3.67.32-5.49.07-.7-.29-1.48.35-2.09,0,2.37.07,4.73.13,7.1a1.19,1.19,0,0,1-.79,1.18c-.31.19-.43,0-.5-.25A.54.54,0,0,1,197.65,269.39Z"/>
        <path class="cls-21" d="M197.26,269.76l.39.33c-.42.6-1.17.67-1.74,1L195,271A1.71,1.71,0,0,1,197.26,269.76Z"/>
        <path class="cls-8" d="M237.1,356c-.09.7.3,1.46-.33,2.08C236.88,357.42,236.51,356.66,237.1,356Z"/>
        <path class="cls-22" d="M191.55,257.69l-1.76,0C190.38,257.4,191,257,191.55,257.69Z"/>
        <path class="cls-23" d="M197.59,295.83a1.68,1.68,0,0,0,1.1-1.85c-.09-2.35,0-4.7,0-7,0-1,.32-1.4,1.41-1.4q15,0,30,0c1.14,0,1.49.22,1.29,1.49-.44,2.92-.62,5.89-.89,8.83-.46,4.87-.94,9.74-1.37,14.62-.4,4.48-.71,9-1.12,13.45s-.9,9.06-1.34,13.59c-.27,2.83-.51,5.67-.76,8.51-.13,1.48-.29,2.95-.35,4.43,0,1-.85,1.15-1.56,1.33-6,1.57-12.1,3.1-18.15,4.66-1.92.49-3.84,1-5.75,1.53-1.06.3-1.38-.07-1.37-1.06,0-2.52,0-5,0-7.56a1.64,1.64,0,0,0-1.11-1.84,1.31,1.31,0,0,1,1-.49,6.52,6.52,0,0,0,3.18-.86c5.72-3.28,11.62-6.25,17.34-9.52.56-.32,1.09-.68,1.63-1a4.33,4.33,0,0,0,2.18-4.17q-.15-9.88,0-19.75a4.14,4.14,0,0,0-2-3.9,81,81,0,0,0-7.89-4.52c-3.77-1.87-7.35-4.07-11.06-6a7,7,0,0,0-3.34-.94A1.34,1.34,0,0,1,197.59,295.83Z"/>
        <path class="cls-23" d="M198.68,344l0-12.37a.81.81,0,0,1,.49-.26c2.9.29,5.77,1,8.73.43,2.7-.54,5.34-1.1,6.46-4a4.45,4.45,0,0,0-2.81-6.11c-2.83-1-5.86-1.16-8.79-1.72-1.46-.28-3.11-.22-4-1.75a3.09,3.09,0,0,1-.06-1.68,2.26,2.26,0,0,1,.91-1.22c2.88-2.11,9.09-1.09,10.95,1.86a2,2,0,0,0,2.6.75c1.11-.43.47-1.38.23-2.07a4.51,4.51,0,0,0-2.42-2.59,16.07,16.07,0,0,0-10.29-1,4.73,4.73,0,0,1-1.73.21l-.22-.16q0-6.5,0-13a1,1,0,0,1,.82-.18c3.1,1,5.72,2.91,8.52,4.44,3.22,1.77,6.52,3.4,9.72,5.21a3.79,3.79,0,0,1,2.25,3.7c-.09,6.18,0,12.37,0,18.56,0,1.2-.13,2.29-1.33,3-5.88,3.35-11.87,6.51-17.81,9.75a5.52,5.52,0,0,1-1.32.48A1,1,0,0,1,198.68,344Z"/>
        <path class="cls-24" d="M199.36,299.32l-.69,0c-1.27.19-2.2,1-3.27,1.61-5.55,3-11.09,6-16.64,8.94a1.52,1.52,0,0,0-.92,1.5q0,10.32,0,20.63a1.38,1.38,0,0,0,.75,1.42c1.82.93,3.61,1.9,5.43,2.82,2.64,1.34,4.6-.24,4.53-2.83-.19-6.47,0-13-.1-19.43,0-1.7.64-2,2.16-2s2,.49,2,2c-.07,6.53,0,13.07,0,19.6,0,5.34-4.2,8.1-9.28,6-2.26-.93-4.39-2.16-6.57-3.29a4.21,4.21,0,0,1-2.4-4.08c0-6.94.09-13.87,0-20.81,0-2.91,1.77-4.2,4-5.25,3.66-1.71,7.05-3.88,10.6-5.78,2.88-1.54,5.78-3,8.67-4.55l1.07,0A7.38,7.38,0,0,1,199.36,299.32Z"/>
        <path class="cls-23" d="M198.34,326.47a5.39,5.39,0,0,0,0-4.12,1,1,0,0,1,.55-.23c2.69.57,5.45.71,8.16,1.14a9.85,9.85,0,0,1,2.21.54c1.06.44,2,1,2.09,2.29a2.74,2.74,0,0,1-1.9,2.82,12.55,12.55,0,0,1-10.5-.69C198.51,327.72,197.83,327.28,198.34,326.47Z"/>
        <path class="cls-25" d="M198.68,344l.69,0a7.36,7.36,0,0,1-.7,3.46l-1.07,0-8.49-4.64c1.38-.59,2.52-1.11,3.69-1.55.63-.24,1.09.26,1.6.51C195.83,342.54,197,343.67,198.68,344Z"/>
        <path class="cls-26" d="M198.68,322.3l-.37,0c-4.24-1.51-4.62-7.72.36-10.07q0,.11,0,.22c1,1.26.29,2.67.37,4v1.72C199,319.59,199.61,321,198.68,322.3Z"/>
        <path class="cls-25" d="M198.34,326.47c-.09.61.51.89.68,1.38a11.36,11.36,0,0,1,0,3.78l-.36,0c-1.86-.95-3.51-2.1-4-4.26-.17-.81-.89-1.84.39-2.35A2.37,2.37,0,0,1,198.34,326.47Z"/>
        <path class="cls-27" d="M207.12,265.45a4.75,4.75,0,0,1,0-.69c.1-.71-.4-1.72.33-2.07a3.27,3.27,0,0,1,2.86.42c1.29.7,2,2.32,1.56,3.27-.71,1.43-2.93,2.57-4.21,2.22-.56-.15-.53-.53-.54-.92C207.12,266.94,207.12,266.2,207.12,265.45Z"/>
        <path class="cls-28" d="M197.26,269.76A5.25,5.25,0,0,0,195,271a4.1,4.1,0,0,0-1.83.94,3.66,3.66,0,0,1-4.34.43c-1.37-1.21-3.21-1.64-4.68-2.68l-.37-.36c0-1,0-1.93,0-2.89,0-4.8,0-4.8,4.23-7.12,1.58-1.22,3.15-1.48,4.86-.16a15.31,15.31,0,0,0,2.47,1.28c1.94.83,2.46,2.29,2.24,4.27a40.26,40.26,0,0,0,0,4.64Z"/>
        <path class="cls-10" d="M198.66,347.47c.18-1.16-.49-2.49.7-3.46,6-3.29,12.05-6.62,18.13-9.83a3.34,3.34,0,0,0,2.05-3.5c-.12-6.13-.1-12.26,0-18.39a2.88,2.88,0,0,0-1.74-3c-6-3.19-12-6.44-18-9.68a3,3,0,0,1-.41-.32c-1.17-1-.54-2.28-.7-3.45a5,5,0,0,1,3.17.78c5.93,3.27,11.84,6.56,17.79,9.78,2.55,1.38,4,3,3.83,6.22-.29,6.35-.17,12.72,0,19.08a4.36,4.36,0,0,1-2.31,4.26q-9.91,5.59-19.91,11A3.69,3.69,0,0,1,198.66,347.47Z"/>
        <path class="cls-10" d="M199,331.62a4.61,4.61,0,0,1,0-3.78,13.23,13.23,0,0,0,10.17.72,2.36,2.36,0,0,0,1.75-2.5c0-1.17-1-1.61-2-1.89-2.54-.72-5.19-.75-7.78-1.15a6.3,6.3,0,0,1-2.49-.73c.15-1.36-.38-2.76.33-4.08,1.83,1.54,4.18,1.28,6.32,1.68a46.16,46.16,0,0,1,6.17,1.27c2.37.78,3.55,2.15,3.7,4.44a5.78,5.78,0,0,1-3.17,5.51A18.81,18.81,0,0,1,199,331.62Z"/>
        <path class="cls-29" d="M199,316.51c-.76-1.28-.15-2.68-.37-4a15,15,0,0,1,13.48.92c1.53.88,2,2.6,2.19,4.32a.74.74,0,0,1-.29.75c-.94.67-3.5-.07-3.95-1.16a3.62,3.62,0,0,0-.81-1.31C207.27,314.1,200.91,314.4,199,316.51Z"/>
      </g>
      <g>
        <path class="cls-30" d="M197.66,151.05l.12.12.1-.15h-.22Z"/>
        <path class="cls-30" d="M253.15,109Q226,100,198.8,90.95l-1.69-.55c-.74.21-1.24.34-1.73.5-18.38,6.31-36.74,12.65-55.14,18.89-1.84.62-2.68,1.62-2.17,3.29.84,2.77.73,5.61,1.08,8.42,2.31,18.82,4.54,37.65,7.22,56.42.47,3.27-.79,7.5,3.51,9.77Q172,199.38,194,211.28a5.79,5.79,0,0,0,6.19-.06q21.72-11.9,43.54-23.63c1.69-.91,3.15-1.82,3.42-4,1.31-10.56,2.8-21.1,4.09-31.66,1.55-12.71,2.76-25.47,4.58-38.15C256.29,110.87,255.63,109.87,253.15,109Zm-3.47,8.82q-4,30.51-7.73,61a5.58,5.58,0,0,1-3.32,4.63q-20.5,10.9-40.95,21.9c-5.21-.16-8.74-3.9-13-6-9.48-4.65-18.58-10-27.94-14.89-3.08-1.6-4.12-3.69-4.49-7.08-2.07-19.08-4.42-38.12-6.85-57.16-.46-3.59-.13-5.67,4.06-7,14.62-4.72,29-10,43.59-14.93,1.48-.5,2.95-1.93,4.77-.8h0c16.53,5.43,33,10.92,49.61,16.24C249.87,114.6,250,115.71,249.68,117.87Z"/>
        <path class="cls-31" d="M197.72,162.39h0l-15.27-.28c-3.31,4-4.32,8.95-6.29,13.5-1.41,3.26-11,6.31-13.92,4.24-1.58-1.13-.37-2.44.12-3.54,2.46-5.51,5-11,7.54-16.45q12.92-27.82,25.9-55.61a12.51,12.51,0,0,1,1.83-2.29l.2-4.37h0c-1.82-1.13-3.3.3-4.77.8-14.54,4.94-29,10.21-43.59,14.93-4.19,1.35-4.52,3.43-4.06,7,2.43,19,4.78,38.08,6.85,57.16.37,3.38,1.42,5.47,4.49,7.08,9.36,4.88,18.47,10.24,27.94,14.89,4.26,2.09,7.8,5.84,13,6l0-43.06Z"/>
        <path class="cls-32" d="M247.43,113.81c-16.57-5.32-33.08-10.81-49.61-16.24a4.61,4.61,0,0,1,.78,3.86l-.92,2,.06,1.52h0c7.61,13.1,13.32,27.1,20.1,40.6,5.64,11.24,10.92,22.65,16.7,34.71-4,0-7.28,0-10.61,0a3.11,3.11,0,0,1-3.21-2c-.55-1.23-1.16-2.43-1.71-3.65-5.89-13.08-6-13.22-20.8-12.23a7.56,7.56,0,0,1,1.1,4.32c.13,11.2.1,22.4,0,33.59a8.89,8.89,0,0,1-1.65,5.19q20.47-11,40.95-21.9a5.58,5.58,0,0,0,3.32-4.63q3.75-30.54,7.73-61C250,115.71,249.87,114.6,247.43,113.81Z"/>
        <path class="cls-32" d="M197.62,101.94l.06,1.44.92-2a4.61,4.61,0,0,0-.78-3.86h0Z"/>
        <path class="cls-32" d="M199.31,166.67a7.56,7.56,0,0,0-1.1-4.32l-.49,0h0l0,43.06a8.89,8.89,0,0,0,1.65-5.19C199.41,189.06,199.44,177.87,199.31,166.67Z"/>
        <path class="cls-33" d="M164.12,178.15c1.1,1.4,2.84.55,4.34.46,3.86-.23,5.89-2.1,7.41-5.71,1.79-4.25,1.95-9.79,7.55-11.83,4,.17,8.16-.9,12.1.17,1.8-.59,2.45-2.07,2.09-4.81a36.69,36.69,0,0,1,0-5H186.7l10.19-24.18c1.54-6.92.31-13.94.74-20.9L197,105s0-.06,0-.09C186.05,127.81,175.61,151,164.86,174,164.24,175.29,163,176.74,164.12,178.15Z"/>
        <path class="cls-33" d="M197.61,151.44l.17-.27-.12-.12C197.64,151.15,197.61,151.43,197.61,151.44Z"/>
        <path class="cls-33" d="M192.48,161.52a8.7,8.7,0,0,0,3-.28c-3.94-1.07-8.08,0-12.1-.17-5.6,2-5.76,7.58-7.55,11.83-1.52,3.61-3.55,5.48-7.41,5.71-1.5.09-3.24.94-4.34-.46s.12-2.86.74-4.19c10.75-23,21.19-46.14,32.11-69.07a4.3,4.3,0,0,1,.65-2.95,12.51,12.51,0,0,0-1.83,2.29q-13,27.79-25.9,55.61c-2.54,5.47-5.08,10.95-7.54,16.45-.49,1.1-1.7,2.41-.12,3.54,2.9,2.07,12.52-1,13.92-4.24,2-4.56,3-9.54,6.29-13.5h0C185.71,160.63,189.17,161.36,192.48,161.52Z"/>
        <path class="cls-33" d="M197,105l.65,1.38c0-.48.07-1,.11-1.45h0l-.06-1.52-.71,1.51S197,104.95,197,105Z"/>
        <path class="cls-33" d="M197,104.89l.71-1.51-.06-1.44A4.3,4.3,0,0,0,197,104.89Z"/>
        <path class="cls-30" d="M198.55,126.52c-.26.76-.54,1.51-.83,2.26,0,.4,0,.81,0,1.22h0c4,5.69,6.06,12.29,9.39,18.29,1.14,2.06.84,3.08-1.79,2.95s-5-.15-7.47-.21l-.1.15a4.51,4.51,0,0,1,.73.86,11,11,0,0,1,.71,4.38c.07,2.72-.59,4.52-2.61,5.19a11,11,0,0,1,1.4.65c4.92-2.47,10.08-1.28,15.15-.66,1.83.22,2.58,2.07,3.25,3.62,1.13,2.62,2.41,5.17,3.47,7.82a16.71,16.71,0,0,0,1.78,3.6c1.44,2,7.83,3.69,9.28,2.11,2-2.17-.6-3.92-1.43-5.66-10.2-21.49-20.67-42.87-30.8-64.4C199.9,114.58,199.44,120.55,198.55,126.52Z"/>
        <path class="cls-30" d="M196.61,161.59a7.75,7.75,0,0,1-3.05.26,40.38,40.38,0,0,0-11.11.25h0l15.27.28h0l.29-.14A11,11,0,0,0,196.61,161.59Z"/>
        <path class="cls-30" d="M229.52,173.08c.83,1.75,3.43,3.49,1.43,5.66-1.45,1.57-7.84-.09-9.28-2.11a16.71,16.71,0,0,1-1.78-3.6c-1.05-2.65-2.33-5.2-3.47-7.82-.67-1.55-1.42-3.4-3.25-3.62-5.07-.61-10.23-1.81-15.15.66l.19.1h0c14.84-1,14.91-.85,20.8,12.23.55,1.23,1.16,2.43,1.71,3.65a3.11,3.11,0,0,0,3.21,2c3.33-.06,6.65,0,10.61,0-5.78-12.06-11.06-23.47-16.7-34.71-6.78-13.5-12.49-27.49-20.1-40.6a32.3,32.3,0,0,1,1,3.76C208.85,130.21,219.32,151.58,229.52,173.08Z"/>
        <path class="cls-30" d="M198,162.25l-.29.14.49,0h0Z"/>
        <path class="cls-30" d="M196.89,127.26a1.85,1.85,0,0,1,.83,1.52c.28-.75.57-1.5.83-2.26.89-6,1.35-11.94.18-17.85l-1.1-2.32C197.19,113.32,198.43,120.34,196.89,127.26Z"/>
        <path class="cls-30" d="M199.22,156.4a11,11,0,0,0-.71-4.37,4.51,4.51,0,0,0-.73-.86l-.17.27h0a36.69,36.69,0,0,0,0,5c.36,2.74-.29,4.22-2.09,4.81a11.41,11.41,0,0,1,1.08.36C198.63,160.92,199.29,159.12,199.22,156.4Z"/>
        <path class="cls-30" d="M193.56,161.85a7.75,7.75,0,0,0,3.05-.26,11.41,11.41,0,0,0-1.08-.36,8.7,8.7,0,0,1-3,.28c-3.31-.16-6.78-.88-10,.59h0A40.38,40.38,0,0,1,193.56,161.85Z"/>
        <path class="cls-30" d="M197.63,106.36l1.1,2.32a32.3,32.3,0,0,0-1-3.76h0C197.7,105.39,197.66,105.87,197.63,106.36Z"/>
        <path class="cls-34" d="M197.74,131.81c-.18-.38-.35-.77-.52-1.15a1.76,1.76,0,0,1-.1-.34c-2.52,6.32-5.62,12.45-7.89,19.07,2.59,1.3,6.09-.32,8.43,1.66v0Z"/>
        <path class="cls-34" d="M197.61,151.44s0-.29,0-.39c-2.33-2-5.83-.36-8.43-1.66,2.27-6.63,5.38-12.76,7.89-19.07-.22-1,.38-2.09-.23-3.06L186.7,151.44h10.91Z"/>
        <path class="cls-34" d="M197.22,130.66c.16.39.34.77.52,1.15q0-.91,0-1.81h0c0-.4,0-.82,0-1.22q-.29.77-.6,1.54A1.76,1.76,0,0,0,197.22,130.66Z"/>
        <path class="cls-34" d="M197.12,130.32q.31-.77.6-1.54a1.85,1.85,0,0,0-.83-1.52C197.5,128.23,196.9,129.31,197.12,130.32Z"/>
        <circle class="cls-34" cx="197.61" cy="151.44" transform="translate(-31.92 247.88) rotate(-60.26)"/>
        <path class="cls-35" d="M198.42,150.58c2.11-1.41,5.86.89,6.78-1.87.72-2.17-1.76-4.47-2.6-6.81a74.22,74.22,0,0,0-4-8.28c1.26,5.8,1.66,11.6-1,17.38h.22l.11-.17Z"/>
        <path class="cls-35" d="M202.6,141.91c.84,2.34,3.33,4.64,2.6,6.81-.92,2.76-4.67.46-6.78,1.87l-.43.26-.11.17c2.49.06,5,.09,7.47.21s2.93-.89,1.79-2.95c-3.33-6-5.43-12.6-9.39-18.29.32,1.21.61,2.42.88,3.63A74.22,74.22,0,0,1,202.6,141.91Z"/>
        <path class="cls-35" d="M198.62,133.63q-.46-.9-.89-1.82l-.08,19.2C200.29,145.23,199.88,139.43,198.62,133.63Z"/>
        <path class="cls-35" d="M197.74,131.81q.43.92.89,1.82c-.26-1.21-.56-2.42-.88-3.63h0Q197.74,130.9,197.74,131.81Z"/>
      </g>
      <g>
        <path class="cls-36" d="M4,132c0-7.48.59-14.85,3-22a13.43,13.43,0,0,1,6.44-7.86C20.65,98.09,28.5,96,36.6,94.63A131.57,131.57,0,0,1,60.46,93c12.25.22,24.39,1.28,36,5.59a74.86,74.86,0,0,1,7.71,3.55c3.85,1.95,5.65,5.21,6.81,9,2.11,7,2.64,14.08,2.6,21.28-.07,13.73-2.37,27-9.42,39.07C93.91,189,79,201.66,60.32,210.11a3.07,3.07,0,0,1-2.76.17C36.74,200.75,20.41,186.61,10.64,166,5.55,155.33,3.92,143.79,4,132Z"/>
        <path class="cls-37" d="M58.89,101.46c10.71,0,21.33.87,31.62,4,1.45.45,2.83,1.11,4.3,1.52,5.62,1.55,8.18,5.31,9,10.8,2.39,15.15,1.33,29.94-4.56,44.23-3.61,8.74-9.5,16-16.27,22.63a88.73,88.73,0,0,1-22.82,16.16,2.46,2.46,0,0,1-2.5.21c-16.7-8.5-30.06-20.37-38.51-37-4-7.84-5.54-16.36-6.34-25a81.38,81.38,0,0,1,1.27-22.8c.75-3.95,2.53-6.7,6.52-8.36a78,78,0,0,1,19.78-5.25A124.49,124.49,0,0,1,58.89,101.46Z"/>
        <path class="cls-38" d="M76.76,138a20.48,20.48,0,0,1,1.64,9c-2.74,1.3-5.8,1.17-8.69,1.76-2.3.46-4.65.74-7,1.16-1.5.28-2.16.93-2.12,2.43.06,1.89,0,3.78,0,5.68-.19,1.26.61,2.76-.94,3.69A2,2,0,0,1,59,160c0-1.23-.08-2.46,0-3.69s-.07-2.71,0-4.07c.07-1.62-.09-3.25,0-4.87.06-2.12-.3-4.27.35-6.37,1-1,2.48-1.11,3.8-1.34,3.93-.68,7.92-.94,11.82-1.84A2.1,2.1,0,0,1,76.76,138Z"/>
        <path class="cls-39" d="M60,158c0-2.23,0-4.46,0-6.69,0-1,.3-1.63,1.27-1.78,5.7-.84,11.35-2.08,17.11-2.52.9,2.86,0,5.69-.09,8.54a3.34,3.34,0,0,1-2.07.81c-4.65.54-9.21,1.57-13.87,2.06A2.85,2.85,0,0,1,60,158Z"/>
        <path class="cls-40" d="M77.08,161.24a29.92,29.92,0,0,1-2.92,7.32,39.54,39.54,0,0,1-5.84,2.51c-2.4-.23-4.43,1.5-6.94,1.14-1-.15-1.83-.11-2.47-.93a3.9,3.9,0,0,1-.28-1.57,14.3,14.3,0,0,1,0-1.7c.42-1.46.08-3.07.89-4.46a4.2,4.2,0,0,1,2.12-.74c4.38-.58,8.72-1.34,13.08-2A2.63,2.63,0,0,1,77.08,161.24Z"/>
        <path class="cls-41" d="M76.76,138c-5.62,1.45-11.46,1.71-17.13,2.86-1.07-2.05-.62-4.18-.33-6.3,1.26-1.27,3-1.26,4.6-1.52,2.32-.37,4.64-.76,7-.93a15.69,15.69,0,0,0,3.34-1.06A21.36,21.36,0,0,1,76.76,138Z"/>
        <path class="cls-42" d="M59.2,171.41c.84.15,1.59.94,2.54-.09.6-.65,1.32,1,2.19.38a7.6,7.6,0,0,1,5.33-1.53c2.23.47,3.2-.55,4.49-1.6.08-.07.27,0,.41,0-3,5.5-6.63,10.41-12.06,13.87a1.17,1.17,0,0,1-1.11-.32,4.84,4.84,0,0,1-1.48-2.54c-.34-1.32-.54-2.67-1-4a2.44,2.44,0,0,1,0-.6,10.41,10.41,0,0,0,.13-1.81A2.2,2.2,0,0,1,59.2,171.41Z"/>
        <path class="cls-43" d="M74.23,131.09c-.23,1.35-1.52,1.43-2.41,1.52-4.1.4-8.14,1.14-12.2,1.79-1.1-2.31-.6-4.7-.34-7.07a3,3,0,0,1,2.35-1.08c3.08-.49,6.15-1,9.21-1.53A20.14,20.14,0,0,1,74.23,131.09Z"/>
        <path class="cls-44" d="M77.08,161.24c-3.37.06-6.62,1-9.94,1.42l-7.51,1a1.08,1.08,0,0,1-.38-.53,1.41,1.41,0,0,1,.37-1.51c.81-1.15.22-2.45.4-3.66,4.53-.16,8.93-1.28,13.4-1.85l4.88-.6A33.84,33.84,0,0,1,77.08,161.24Z"/>
        <path class="cls-45" d="M41.26,135.22a4.35,4.35,0,0,1,.81-2.49c.92.3,1.15,1.12,1.43,1.87C47.4,145.24,50.86,156,54.6,166.72c1.36,3.9,2.58,7.86,4.1,11.71-.08,1.29.28,2.7-1.06,3.65a3.92,3.92,0,0,1-1.5-2.35c-3.36-9.86-6.89-19.67-10.21-29.55-1.46-4.36-2.91-8.73-4.46-13.06C41.25,136.5,40.77,135.91,41.26,135.22Z"/>
        <path class="cls-46" d="M41.26,135.22c1.61,3.9,2.8,7.94,4.16,11.93,2.31,6.75,4.7,13.48,7,20.22Q55,174.68,57.53,182c.32.55.49,1.05-.41,1.2l-1.73-1.51c-1.89-4.09-3-8.45-4.53-12.65-3.68-10-6.75-20.22-10.51-30.2A9.17,9.17,0,0,1,41.26,135.22Z"/>
        <path class="cls-47" d="M40.35,138.84c2.33,2,2.34,4.94,3.29,7.46,2.49,6.62,4.62,13.36,6.9,20,1.57,4.59,3.17,9.17,4.73,13.76a6.41,6.41,0,0,1,.12,1.6,5.94,5.94,0,0,1-2.47-2.12c-1.93-4.41-3.2-9-4.83-13.57-2.63-7.32-5-14.74-7.57-22.08-.35-1-1-2-.55-3.09C40,140.16,39.84,139.44,40.35,138.84Z"/>
        <path class="cls-48" d="M40,140.84q2.81,8.12,5.62,16.24,3.55,10.35,7.07,20.71a9.9,9.9,0,0,1,.27,1.79,12.06,12.06,0,0,1-3.42-3.64c-3.28-10.1-6.88-20.09-10.29-30.14A16.33,16.33,0,0,1,40,140.84Z"/>
        <path class="cls-49" d="M58.33,178.33c-1.64-2.11-1.92-4.74-2.8-7.13-2.43-6.59-4.59-13.29-6.86-19.93q-2.66-7.77-5.35-15.54c-.36-1-.83-2-1.25-3a4.22,4.22,0,0,1,.87-2.38c1.57,1.44,1.77,3.49,2.41,5.31,4.49,12.86,8.85,25.76,13.26,38.64a3.82,3.82,0,0,1,.19.79q0,.18,0,.35C58.62,176.39,59.28,177.48,58.33,178.33Z"/>
        <path class="cls-50" d="M70.85,124.71c-.94,1.1-2.32,1-3.57,1.17-2.55.43-5.12.8-7.67,1.19a1.72,1.72,0,0,1-.54-1.3c0-.27,0,.07,0-.2,0-5.16-.84-5.64,6-6.44a14.37,14.37,0,0,0,1.64-.1A19.68,19.68,0,0,1,70.85,124.71Z"/>
        <path class="cls-51" d="M59.6,163.28q0,.2,0,.41a16.48,16.48,0,0,1-.44,4.47c-1.17.11-1.33-.84-1.58-1.55-4.33-12.66-8.69-25.31-13-38a2.19,2.19,0,0,1,0-2l.76-1.34c1.15.43,1.31,1.5,1.62,2.44,3.7,11.18,7.58,22.31,11.42,33.45A3.3,3.3,0,0,0,59.6,163.28Z"/>
        <path class="cls-52" d="M44.59,126.67q4.24,12.35,8.48,24.7c1.67,4.91,3.27,9.85,4.94,14.76.25.72.24,1.66,1.18,2v1.63c-.46,1.17-1.06,1.07-1.6.1a18.63,18.63,0,0,1-1.18-3.19c-.54-1.58-1.05-3.17-1.74-4.69-1.93-6.12-4.26-12.11-6.29-18.2-1.48-4.42-2.92-8.85-4.57-13.22a2.56,2.56,0,0,1-.08-2A2.83,2.83,0,0,1,44.59,126.67Z"/>
        <path class="cls-53" d="M39.21,145.8c.81.43,1,1.24,1.26,2,2.91,8.39,5.85,16.77,8.71,25.17.31.92,1.12,1.89.32,3a14.27,14.27,0,0,1-3.25-4.11c-2.46-6.75-4.74-13.56-7.08-20.35Z"/>
        <path class="cls-54" d="M59.6,163.28c-1.17.57-1.31-.45-1.52-1.06-3-8.87-5.87-17.79-9-26.62-1.22-3.43-2-7-3.71-10.27a3,3,0,0,1,.88-1.57c1.36.67,1.51,2.11,1.89,3.25,1.55,4.69,3.21,9.35,4.83,14,2.2,6.33,3.95,12.82,6.65,19l0,1.63Z"/>
        <path class="cls-55" d="M59.6,152.29v4.07c-1.15.47-1.45-.34-1.72-1.12-2.1-6.05-4.13-12.12-6.17-18.2-1.45-4.34-3-8.64-4.46-13a2.27,2.27,0,0,1-.22-1.56,4.67,4.67,0,0,1,1.3-2c1.74,2.45,2.12,5.41,3.13,8.13,2.44,6.61,4.56,13.34,7,20C58.88,149.83,58.8,151.19,59.6,152.29Z"/>
        <path class="cls-56" d="M59.6,125.87q0,.6,0,1.21,0,3.66,0,7.32,0,3.25,0,6.51t0,6.51c-1.27.68-1.56-.24-1.85-1.1-1.94-5.71-4-11.38-5.9-17.11-.81-2.44-1.68-4.86-2.47-7.3a3,3,0,0,1-.18-2.54l.78-.93a4.19,4.19,0,0,1,1.69,2.68c2.35,6.91,4.73,13.81,7.08,20.72.06.18.1.4.34.46.11.25.26-.18.06,0s-.13,0-.18-.1c-.59-1.43-.21-2.93-.34-4.4,0-1.16-.08-2.32,0-3.48,0-1.82-.06-3.63,0-5.44.15-1-.12-2,.4-2.86A.45.45,0,0,1,59.6,125.87Z"/>
        <path class="cls-57" d="M47,122.49c1.25,1.6,1.46,3.6,2.09,5.41C52,136,54.57,144.1,57.3,152.2c.36,1.08,1.12,2,1.13,3.24,0,.63.55.89,1.17.93q0,1.83,0,3.66c-2.16-1.39-2.08-3.87-2.83-5.88-2.37-6.41-4.3-13-6.65-19.39-1.34-3.64-2.45-7.37-3.89-11A1.9,1.9,0,0,1,47,122.49Z"/>
        <path class="cls-58" d="M59.19,138.06V143l-.52.07L50,118.43a2.76,2.76,0,0,1,1.29-1.54c1.16.3,1.25,1.31,1.55,2.19C55,125.4,57.23,131.68,59.19,138.06Z"/>
        <path class="cls-59" d="M59.6,125.87l-.4,0a3.16,3.16,0,0,1-.62-2.52c-.18-3.87.37-7.76-.25-11.63a4.35,4.35,0,0,1,.47-2.94c1.78,4,5.14,6.94,7.87,10.3-1.14,1.31-2.85.84-4.23,1-2.19.27-3.1,1.07-2.85,3.2A22.27,22.27,0,0,1,59.6,125.87Z"/>
        <path class="cls-60" d="M49.19,119.36c2.11,6.93,4.52,13.76,7,20.58.75,2.09,1.49,4.19,2.11,6.32.22.77.43,1.25,1.32,1.16q0,2.44,0,4.88c-1.89-1.3-1.7-3.56-2.4-5.35-2.06-5.29-3.81-10.7-5.56-16.1-1.11-3.43-2.56-6.76-3.3-10.3Z"/>
        <path class="cls-61" d="M59.18,128.7v5.7c-1.11.09-1.38-.73-1.63-1.49-1.68-5.14-3.54-10.23-5.23-15.37a2.39,2.39,0,0,1,.15-1.95l1.23-1.24c1.44.88,1.6,2.45,2.06,3.81C56.94,121.66,58.26,125.12,59.18,128.7Z"/>
        <path class="cls-62" d="M39.17,151.48c1.66,1.77,1.93,4.14,2.73,6.26,1.5,4,2.81,8,4.14,12.09a9.16,9.16,0,0,1,.21,2A35.65,35.65,0,0,1,39.17,151.48Z"/>
        <path class="cls-63" d="M58.78,175.08c-.95-.36-.94-1.3-1.19-2q-6.15-17.94-12.25-35.9c-.78-2.28-1.61-4.54-2.42-6.81l.39-.88c2.14,4.09,3.22,8.56,4.75,12.87,2.41,6.8,4.76,13.63,7.12,20.45,1.29,3.57,2.46,7.18,4,10.66C59.14,174,59.39,174.64,58.78,175.08Z"/>
        <path class="cls-64" d="M52.48,115.59c.56,3.39,2.07,6.51,3,9.79.73,2.51,1.66,5,2.52,7.43a2.28,2.28,0,0,0,1.17,1.59q0,1.83,0,3.66c-1.78-2.09-2-4.79-2.89-7.21-1.76-4.62-3-9.43-5-14A3,3,0,0,1,52.48,115.59Z"/>
        <path class="cls-65" d="M59.18,128.7c-1.34-1.66-1.7-3.73-2.37-5.64-1-2.91-1.87-5.87-3.11-8.7L55,113.17a6.15,6.15,0,0,1,2.2,3.73c.64,2.18,1.36,4.33,2,6.51q0,1.21,0,2.43Q59.2,127.27,59.18,128.7Z"/>
        <path class="cls-63" d="M55,162.87c-2-4.74-3.44-9.67-5.16-14.5q-3.24-9.15-6.5-18.3a2.31,2.31,0,0,1,0-.61.93.93,0,0,1,.4-.84q3.46,10,6.93,20c1.42,4.07,2.88,8.12,4.3,12.2a4.48,4.48,0,0,1,.08,1.21A.55.55,0,0,1,55,162.87Z"/>
        <path class="cls-66" d="M59.18,123.41c-1.9-1.24-1.5-3.52-2.21-5.24s-1.41-3.3-2-5L56.27,112c1.61,1.46,1.38,3.68,2.31,5.42.1.25.42-.15.18,0s-.18.05-.2,0c-.42-2-.79-3.9.23-5.8.79,1.53.31,3.17.37,4.75C59.25,118.69,59.18,121.05,59.18,123.41Z"/>
        <path class="cls-67" d="M58.79,111.58v6.52c-1.43-1.88-1.89-4-2.53-6.1a7.29,7.29,0,0,0,2.13-3.48c0-.05,0-.14.08-.15.3,0,.26.2.32.37Q58.8,110.16,58.79,111.58Z"/>
        <path class="cls-68" d="M60,179.59,61.23,182a42.07,42.07,0,0,0-1.54,4.34c-.23.69-.22,1.65-1.32,1.75a5.61,5.61,0,0,1-.48-2.77C57.9,183.18,57.84,181,60,179.59Z"/>
        <path class="cls-69" d="M60,179.59c-1.17,1.74-1.49,3.78-2.07,5.73a5.17,5.17,0,0,1-.78-2.11c.45-.3.4-.76.41-1.2a12.21,12.21,0,0,0,.8-3.68c.26-.95-.36-2,.46-2.9C59.75,176.66,59.56,178.21,60,179.59Z"/>
        <path class="cls-70" d="M58.37,188.09c.92-1.29,1-2.86,1.54-4.28.27-.72.25-1.64,1.32-1.81l.87.43c-.5,1.32-1.33,2.54-1.3,4a2,2,0,0,0-.3.46c-.46,1.15-.25,2.62-1.68,3.3-.45-.34-.09-.92-.39-1.3Z"/>
        <path class="cls-71" d="M58.8,190.15l1.64-3.69c.44,1,.11,2,.2,3-.48,1.3-.33,2.82-1.44,3.89l-.48-.25A4.94,4.94,0,0,1,58.8,190.15Z"/>
        <path class="cls-72" d="M59.2,193.31c.26-1.24.24-2.57,1.21-3.58.5.46,0,1.13.38,1.62C60.23,192,62.4,194.72,59.2,193.31Z"/>
        <path class="cls-68" d="M60.79,191.35c-.5-.46-.29-1.07-.38-1.62q0-1.63,0-3.26h.36Z"/>
        <path class="cls-68" d="M58.8,190.15l-.07,2.91c-.64-1.34-.25-2.76-.3-4.14C58.86,189.24,58.75,189.72,58.8,190.15Z"/>
        <path class="cls-63" d="M55,162.87v-.81c1.53,2.26,1.91,4.94,2.86,7.41.36.93.65,1.06,1.3.32q0,.81,0,1.62,0,1,0,2c-1.43-1.23-1.64-3.07-2.3-4.65C56.09,166.89,55.63,164.85,55,162.87Z"/>
      </g>
      <ellipse class="cls-73" cx="58.97" cy="306.35" rx="58.97" ry="57.5"/>
      <text class="cls-74" transform="translate(7.76 313.73) scale(1.03 1)">Express<tspan class="cls-75" x="79.16" y="0">.js</tspan></text>
      <text class="cls-76" transform="translate(8.96 75.1) scale(1.05 1)">M<tspan class="cls-77" x="26.1" y="0">ongoDB</tspan></text>
      <text></text>
      <text class="cls-78" transform="translate(154.04 74.9) scale(1.05 1)">A<tspan class="cls-79" x="20.88" y="0">ngular</tspan></text>
      <text class="cls-76" transform="translate(12.53 236.7) scale(1.05 1)">E<tspan class="cls-77" x="20.52" y="0">xpress</tspan></text>
      <text class="cls-76" transform="translate(166.55 239.7) scale(1.05 1)">N<tspan class="cls-77" x="23.55" y="0">ode</tspan></text>
    </g>
  </g>
</svg>
