<?xml version="1.0" encoding="utf-8"?>
<!-- Generator: Adobe Illustrator 20.1.0, SVG Export Plug-In . SVG Version: 6.00 Build 0)  -->
<svg version="1.1" id="Layer_1" xmlns="http://www.w3.org/2000/svg" xmlns:xlink="http://www.w3.org/1999/xlink" x="0px" y="0px"
	 viewBox="0 0 80.5 80.3" style="enable-background:new 0 0 80.5 80.3;" xml:space="preserve">
<style type="text/css">
	.st0{fill:#FF8C00;}
</style>
<title>nav_icon</title>
<g id="Layer_2">
	<g id="Layer_1-2">
		<path class="st0" d="M40.3,80.3c-21,1.3-41-18.6-40.3-41.4C0.7,19.2,18.6-0.9,42,0c19.5,0.8,39.4,18.6,38.5,41.9
			C79.8,61.8,61.8,81.4,40.3,80.3z M40.1,52.3c4.5,0,9,0,13.5,0c1.3,0,2.7,0.4,2.8-1.8c0.1-2.4-1.3-2.2-2.9-2.2
			c-8.8,0-17.6,0-26.4,0c-1.3,0-2.7-0.4-2.8,1.8c-0.1,2.4,1.3,2.2,2.9,2.2C31.4,52.3,35.8,52.3,40.1,52.3z M39.9,34.3h13.5
			c1.5,0,3,0.3,2.9-2.1c-0.1-2.1-1.4-1.9-2.7-1.9H27.2c-1.5,0-3-0.3-2.9,2.1s1.9,1.8,3.2,1.8C31.6,34.3,35.8,34.3,39.9,34.3z
			 M40.2,43.3h13.5c1.4,0,2.6,0.1,2.6-2s-1.1-2-2.5-2c-9,0-18,0-26.9,0c-1.4,0-2.6-0.1-2.6,2s1.1,2,2.5,2
			C31.3,43.3,35.8,43.3,40.2,43.3z"/>
	</g>
</g>
</svg>
