<svg xmlns="http://www.w3.org/2000/svg" viewBox="0 0 80.54 80.33">
  <defs>
    <style>
      .cls-1 {
        fill: #515050;
      }
    </style>
  </defs>
  <title>nav_icon</title>
  <g id="Layer_2" data-name="Layer 2">
    <g id="Layer_1-2" data-name="Layer 1">
      <path class="cls-1" d="M40.28,80.27C19.24,81.59-.73,61.71,0,38.89.67,19.19,18.59-.9,42,0,61.47.8,81.38,18.58,80.52,41.9,79.78,61.76,61.82,81.44,40.28,80.27Zm-.2-28c4.49,0,9,0,13.47,0,1.26,0,2.66.36,2.77-1.79.11-2.36-1.31-2.21-2.86-2.21-8.81,0-17.62,0-26.43,0-1.25,0-2.67-.36-2.77,1.79-.11,2.36,1.31,2.22,2.87,2.21C31.44,52.25,35.76,52.27,40.08,52.27Zm-.15-18H53.4c1.49,0,3,.29,2.92-2.14-.08-2.11-1.42-1.85-2.71-1.85H27.17c-1.5,0-3-.28-2.92,2.15s1.91,1.8,3.21,1.82C31.62,34.32,35.77,34.27,39.93,34.27Zm.32,9H53.72c1.37,0,2.59.09,2.6-2s-1.1-2-2.54-2q-13.47,0-26.93,0c-1.37,0-2.59-.09-2.61,2s1.11,2,2.54,2C31.27,43.25,35.76,43.27,40.25,43.27Z"/>
    </g>
  </g>
</svg>
