<svg xmlns="http://www.w3.org/2000/svg" xmlns:xlink="http://www.w3.org/1999/xlink" viewBox="0 0 2295.92 2669.93">
  <defs>
    <style>
      .cls-1 {
        fill: #b3b3b3;
      }

      .cls-2 {
        fill: url(#radial-gradient);
      }

      .cls-3, .cls-7 {
        fill: none;
        stroke: #000;
        stroke-miterlimit: 10;
      }

      .cls-3 {
        stroke-width: 5px;
      }

      .cls-4 {
        font-size: 69.48px;
      }

      .cls-4, .cls-8 {
        font-family: Ubuntu, Ubuntu;
      }

      .cls-5 {
        letter-spacing: 0.37em;
      }

      .cls-6 {
        letter-spacing: -0.01em;
      }

      .cls-7 {
        stroke-width: 8px;
      }

      .cls-8 {
        font-size: 122.75px;
      }
    </style>
    <radialGradient id="radial-gradient" cx="312.96" cy="2209.04" fx="179.07899696423434" fy="2037.6542880272361" r="906.89" gradientTransform="matrix(0.89, 0.46, 0.46, -0.89, -820.9, 3335.65)" gradientUnits="userSpaceOnUse">
      <stop offset="0" stop-color="#fff"/>
      <stop offset="0.11" stop-color="#ccc"/>
      <stop offset="0.24" stop-color="#969696"/>
      <stop offset="0.37" stop-color="#686868"/>
      <stop offset="0.5" stop-color="#434343"/>
      <stop offset="0.63" stop-color="#252525"/>
      <stop offset="0.75" stop-color="#111"/>
      <stop offset="0.88" stop-color="#040404"/>
      <stop offset="1"/>
    </radialGradient>
  </defs>
  <title>oop</title>
  <g id="Layer_2" data-name="Layer 2">
    <g id="Layer_1-2" data-name="Layer 1">
      <g>
        <path class="cls-1" d="M1438.49,2669.43c-57.91,0-117.27-1.17-176.43-3.47-564.83-22-1020.34-143-1015.4-269.72,1.08-27.61,23.85-53.8,67.69-77.83,42.47-23.28,103.45-43.89,181.24-61.26,156.82-35,372.72-54.28,608-54.28,57.9,0,117.26,1.17,176.43,3.47,564.83,22,1020.34,143,1015.4,269.72-1.08,27.61-23.85,53.8-67.69,77.83-42.47,23.28-103.45,43.89-181.24,61.26-156.81,35-372.72,54.28-607.92,54.28Z"/>
        <path d="M1103.55,2203.36c57.9,0,117.25,1.17,176.41,3.47,138.32,5.39,272.27,16.71,398.12,33.63,121.55,16.35,230.46,37.22,323.72,62s166.06,52.27,216.54,81.66c25.52,14.86,45,30.11,57.77,45.34,13.06,15.51,19.38,31.17,18.78,46.54-1.07,27.43-23.76,53.47-67.43,77.41-42.43,23.26-103.37,43.85-181.11,61.21-156.78,35-372.65,54.27-607.84,54.27-57.9,0-117.25-1.17-176.41-3.47-138.32-5.39-272.27-16.71-398.12-33.63-121.55-16.35-230.46-37.22-323.72-62s-166.06-52.27-216.54-81.66c-25.52-14.86-45-30.11-57.77-45.34-13.06-15.51-19.38-31.17-18.78-46.54,1.07-27.43,23.76-53.47,67.43-77.41C357,2295.58,418,2275,495.71,2257.63c156.78-35,372.65-54.27,607.84-54.27m0-1c-482.74,0-853,80.16-857.39,193.85C241.21,2523.4,696,2644.4,1262,2666.45c60.11,2.34,119.09,3.47,176.44,3.47,482.74,0,853-80.16,857.39-193.85,5-127.2-449.87-248.19-1015.88-270.24-60.11-2.34-119.09-3.47-176.44-3.47Z"/>
      </g>
      <g>
        <path class="cls-2" d="M653.33,2577.23a653.14,653.14,0,1,1,334-91.55,649.93,649.93,0,0,1-334,91.55Z"/>
        <path d="M654.43,1271a651.9,651.9,0,0,1,573.92,342.8,654.66,654.66,0,0,1,76.2,364.15,652.33,652.33,0,0,1-317.45,507.33A651.56,651.56,0,0,1,350.95,2502,649.7,649.7,0,0,1,79.41,2233.92a654.65,654.65,0,0,1-76.2-364.15,652.33,652.33,0,0,1,317.45-507.33A655.4,655.4,0,0,1,654.43,1271m0-1C419,1270,191.62,1397.47,74.8,1620.45c-167.56,319.82-44.13,714.92,275.69,882.48a651,651,0,0,0,302.85,74.8c235.41,0,462.81-127.51,579.64-350.49,167.56-319.82,44.13-714.92-275.69-882.48A651,651,0,0,0,654.43,1270Z"/>
      </g>
      <line class="cls-3" x1="653.88" y1="1909.8" x2="820.26" y2="1151.03"/>
      <text class="cls-4" transform="translate(821.01 335.53)">Properties {<tspan class="cls-5" x="0" y="83.38">	</tspan><tspan x="41.69" y="83.38">radius : Number</tspan><tspan class="cls-5" x="0" y="166.76">	</tspan><tspan x="41.69" y="166.76">diame</tspan><tspan class="cls-6" x="235.13" y="166.76">t</tspan><tspan x="262.37" y="166.76">er: radius * 2</tspan><tspan class="cls-5" x="0" y="250.14">	</tspan><tspan x="41.69" y="250.14">circumfrence: diame</tspan><tspan class="cls-6" x="680.51" y="250.14">t</tspan><tspan x="707.75" y="250.14">er * pi</tspan><tspan x="0" y="333.52">}</tspan><tspan x="0" y="416.9">Methods {</tspan><tspan class="cls-5" x="0" y="500.28">	</tspan><tspan x="41.69" y="500.28">Roll: function(distance){</tspan><tspan class="cls-5" x="0" y="583.66" xml:space="preserve">		</tspan><tspan x="83.38" y="583.66">ball rolls distance</tspan><tspan class="cls-5" x="0" y="667.04">	</tspan><tspan x="41.69" y="667.04">}</tspan><tspan x="0" y="750.43">}</tspan></text>
      <rect class="cls-7" x="772.06" y="4" width="987.25" height="1147.03"/>
      <text class="cls-8" transform="translate(1057.74 180.84)">Sphere</text>
    </g>
  </g>
</svg>
