<svg xmlns="http://www.w3.org/2000/svg" viewBox="0 0 960 560">
  <defs>
    <style>
      .cls-1 {
        fill: #fff;
      }
    </style>
  </defs>
  <title>parallax</title>
  <g id="Layer_2" data-name="Layer 2">
    <g id="Layer_1-2" data-name="Layer 1">
      <g>
        <path class="cls-1" d="M.5,559.5V.5h959v559ZM480,103.75c-97.18,0-176.25,79.07-176.25,176.25S382.82,456.25,480,456.25,656.25,377.18,656.25,280,577.18,103.75,480,103.75Z"/>
        <path d="M959,1V559H1V1H959M480,456.75c97.46,0,176.75-79.29,176.75-176.75S577.46,103.25,480,103.25,303.25,182.54,303.25,280,382.54,456.75,480,456.75M960,0H0V560H960V0ZM480,455.75A175.75,175.75,0,1,1,655.75,280,175.76,175.76,0,0,1,480,455.75Z"/>
      </g>
    </g>
  </g>
</svg>
