<svg xmlns="http://www.w3.org/2000/svg" viewBox="0 0 1125.46 1360.15">
  <defs>
    <style>
      .cls-1, .cls-9 {
        fill: #fff;
      }

      .cls-1, .cls-2, .cls-5, .cls-6, .cls-7 {
        stroke: #000;
      }

      .cls-1, .cls-2, .cls-3, .cls-4, .cls-5, .cls-6, .cls-7, .cls-8 {
        stroke-miterlimit: 10;
      }

      .cls-1, .cls-4, .cls-6 {
        stroke-width: 20px;
      }

      .cls-2, .cls-3, .cls-4, .cls-6, .cls-7 {
        fill: none;
      }

      .cls-2, .cls-3 {
        stroke-width: 22px;
      }

      .cls-3, .cls-4 {
        stroke: gray;
      }

      .cls-5, .cls-8 {
        fill: #bdccd4;
      }

      .cls-5 {
        stroke-width: 8px;
      }

      .cls-7 {
        stroke-width: 34px;
      }

      .cls-8 {
        stroke: #ccc;
        stroke-width: 10px;
      }

      .cls-10 {
        fill: #f2f2f2;
      }

      .cls-11 {
        isolation: isolate;
        font-size: 367.57px;
        font-family: JuiceITC-Regular, Juice ITC;
      }
    </style>
  </defs>
  <title>UX</title>
  <g id="Layer_2" data-name="Layer 2">
    <g id="Layer_1-2" data-name="Layer 1">
      <rect class="cls-1" x="10" y="83.85" width="974.75" height="1266.3" rx="22.28" ry="22.28"/>
      <line class="cls-2" x1="69.38" y1="725" x2="292.75" y2="725"/>
      <line class="cls-3" x1="69.38" y1="772" x2="292.75" y2="772"/>
      <line class="cls-3" x1="69.38" y1="819" x2="292.75" y2="819"/>
      <line class="cls-2" x1="387.06" y1="725" x2="610.44" y2="725"/>
      <line class="cls-3" x1="387.06" y1="772" x2="610.44" y2="772"/>
      <line class="cls-3" x1="387.06" y1="819" x2="610.44" y2="819"/>
      <line class="cls-2" x1="704.75" y1="725" x2="928.13" y2="725"/>
      <line class="cls-3" x1="704.75" y1="772" x2="928.13" y2="772"/>
      <line class="cls-3" x1="704.75" y1="819" x2="928.13" y2="819"/>
      <line class="cls-3" x1="387.06" y1="866" x2="610.44" y2="866"/>
      <line class="cls-3" x1="704.75" y1="866" x2="928.13" y2="866"/>
      <line class="cls-3" x1="704.75" y1="913" x2="928.13" y2="913"/>
      <line class="cls-4" x1="70.75" y1="1021" x2="926.75" y2="1021"/>
      <line class="cls-4" x1="70.75" y1="1069" x2="702.75" y2="1069"/>
      <line class="cls-4" x1="70.75" y1="1117" x2="926.75" y2="1117"/>
      <line class="cls-4" x1="59.38" y1="375.58" x2="174.81" y2="375.58"/>
      <line class="cls-4" x1="242.86" y1="375.58" x2="358.29" y2="375.58"/>
      <line class="cls-4" x1="427.86" y1="375.58" x2="543.29" y2="375.58"/>
      <line class="cls-4" x1="610.95" y1="375.58" x2="726.38" y2="375.58"/>
      <line class="cls-4" x1="802.7" y1="375.58" x2="918.13" y2="375.58"/>
      <circle class="cls-5" cx="816.44" cy="550.29" r="112"/>
      <circle class="cls-5" cx="497.38" cy="550.29" r="112"/>
      <circle class="cls-5" cx="181.06" cy="550.29" r="112"/>
      <line class="cls-6" x1="370.38" y1="1239" x2="624.38" y2="1239"/>
      <line class="cls-7" x1="414.91" y1="211" x2="928.44" y2="211"/>
      <rect class="cls-8" x="70.75" y="153" width="287.54" height="150"/>
      <g>
        <path class="cls-9" d="M717.64,465.3A227.06,227.06,0,0,1,515.05,341.14C458.19,229.3,502.76,92.53,614.6,35.67A227.18,227.18,0,0,1,717.26,11c125.46,0,227.15,101.75,227.13,227.21A227,227,0,0,1,717.64,465.3Z"/>
        <path d="M717.27,22c119.39,0,216.17,96.79,216.16,216.18a216,216,0,0,1-408.58,98c-54.1-106.44-11.67-236.59,94.77-290.69A216.2,216.2,0,0,1,717.26,22h.49m-.49-22A237.14,237.14,0,0,0,609.48,26C492.29,85.63,445.62,229,505.25,346.17S708.52,510,825.76,450.23A238.28,238.28,0,0,0,860,428.94c91.25-68,123-193.84,69.64-298.7A238.06,238.06,0,0,0,717.26,0Z"/>
      </g>
      <g>
        <path class="cls-10" d="M1071.12,988.57a16.35,16.35,0,0,1-14.64-9l-265-520.78a247.29,247.29,0,0,0,60.71-30.89l265,520.78a16.43,16.43,0,0,1-7.18,22.07l-31.46,16A16.24,16.24,0,0,1,1071.12,988.57Z"/>
        <path d="M849.75,437.43l261.64,514.22a9.92,9.92,0,0,1-4.34,13.32l-31.46,16a9.89,9.89,0,0,1-13.31-4.31v0L800.64,462.43a253.85,253.85,0,0,0,49.12-25m4.81-19.21A240.48,240.48,0,0,1,782.28,455l268.41,527.54a22.89,22.89,0,0,0,30.78,10h0l31.46-16a22.91,22.91,0,0,0,10-30.81L854.57,418.22Z"/>
      </g>
      <text class="cls-11" transform="translate(523.29 367.8)">r Br</text>
    </g>
  </g>
</svg>
